<svg width="288" height="88" viewBox="0 0 288 88" fill="none" xmlns="http://www.w3.org/2000/svg">
<path d="M130.903 41.0389L130.904 41.0355C131.703 38.7508 133.379 37.1804 136.007 36.3266C137.801 35.7437 139.449 35.6971 140.97 36.1618L133.3 53.8323C132.52 52.6754 131.844 51.2328 131.279 49.4942C130.185 46.1271 130.086 43.3213 130.903 41.0389ZM147.931 52.7618L147.931 52.7629C147.152 55.0054 145.488 56.5578 142.858 57.4125C141.035 58.0048 139.367 58.0432 137.835 57.5543L145.554 39.9229C146.32 41.1002 146.979 42.5284 147.527 44.2151C148.631 47.6121 148.74 50.4487 147.931 52.7618ZM155.918 38.1299L155.535 38.4447L155.847 38.8305L159.426 43.2601L159.723 43.6277L160.107 43.3518C162.033 41.9671 163.568 40.4888 164.7 38.9131L164.7 38.9131L164.704 38.9077C165.828 37.2984 166.54 35.5804 166.829 33.757L166.83 33.7531C167.102 31.944 167.151 30.2015 166.974 28.5271C166.937 28.1113 166.888 27.6798 166.827 27.2328L175.02 52.4483L175.175 52.9238L175.65 52.7693L181.325 50.9256L181.8 50.7711L181.646 50.2956L171.57 19.2855L171.415 18.8099L170.94 18.9644L159.811 22.5803L159.34 22.7335L159.489 23.2062C160.549 26.5672 160.798 29.4005 160.288 31.7293C159.774 34.0055 158.34 36.1413 155.918 38.1299ZM166.455 23.0777L166.481 25.1766C166.357 24.5465 166.212 23.8909 166.048 23.21L166.455 23.0777ZM134.097 30.4491C129.525 31.9346 126.385 34.6238 124.751 38.5306C123.115 42.3888 123.117 46.7676 124.698 51.6326C126.279 56.4984 128.856 60.0557 132.455 62.2445C136.074 64.4452 140.195 64.7756 144.768 63.29C149.339 61.8046 152.466 59.1196 154.07 55.2203C155.695 51.3341 155.689 46.9419 154.108 42.0767C152.537 37.24 149.964 33.698 146.366 31.5095C142.776 29.2982 138.669 28.9636 134.097 30.4491Z" fill="#D2FAB9" stroke="#404040"/>
<path d="M98.9058 37.0584L99.0508 36.6661L99.0012 37.0816C98.7402 39.2694 100.006 41.353 102.066 42.1204L102.465 42.2691L102.042 42.2183C99.8612 41.9561 97.7865 43.2284 97.0228 45.2942L96.8778 45.6864L96.9273 45.271C97.1883 43.0832 95.9221 40.9996 93.8627 40.2322L93.4635 40.0834L93.8863 40.1343C96.0674 40.3965 98.142 39.1242 98.9058 37.0584Z" fill="#90F9DF" stroke="#404040" stroke-width="0.6"/>
<path d="M229.179 30.0696L229.324 29.6774L229.275 30.0928C229.014 32.2806 230.28 34.3642 232.339 35.1316L232.738 35.2804L232.316 35.2295C230.135 34.9673 228.06 36.2397 227.296 38.3054L227.151 38.6977L227.201 38.2822C227.462 36.0944 226.196 34.0108 224.136 33.2434L223.737 33.0947L224.16 33.1455C226.341 33.4078 228.415 32.1354 229.179 30.0696Z" fill="#90F9DF" stroke="#404040" stroke-width="0.6"/>
<path d="M131.548 77.3346L133.788 78.1692L131.416 77.884C127.873 77.458 124.502 79.5248 123.261 82.8815L122.433 85.1215L122.716 82.7492C123.14 79.1941 121.082 75.8092 117.737 74.5627L115.498 73.7281L117.87 74.0133C121.412 74.4393 124.783 72.3725 126.024 69.0158L126.852 66.7758L126.569 69.1482C126.145 72.7032 128.203 76.0881 131.548 77.3346Z" fill="#90F9DF" stroke="#404040" stroke-width="0.6"/>
<path d="M172.733 15.1664L172.247 16.4825L172.413 15.0886C172.755 12.2171 171.094 9.4829 168.391 8.47595L167.072 7.98427L168.469 8.1523C171.331 8.49642 174.054 6.82683 175.056 4.11558L175.543 2.79947L175.377 4.19334C175.034 7.0648 176.696 9.79905 179.398 10.806L180.718 11.2977L179.32 11.1296C176.458 10.7855 173.736 12.4551 172.733 15.1664Z" fill="#90F9DF" stroke="#404040" stroke-width="0.6"/>
<path d="M117.286 12.2025C119.082 12.3909 120.781 11.3508 121.437 9.66501C121.253 11.4655 122.291 13.1701 123.973 13.8262C122.178 13.6378 120.479 14.6779 119.823 16.3637C120.007 14.5633 118.969 12.8587 117.286 12.2025Z" fill="#90F9DF" stroke="#404040" stroke-width="0.6"/>
<path d="M230.655 52.1386C232.45 52.327 234.149 51.2869 234.805 49.601C234.621 51.4015 235.659 53.1061 237.342 53.7623C235.546 53.5739 233.847 54.614 233.191 56.2998C233.375 54.4993 232.337 52.7947 230.655 52.1386Z" fill="#90F9DF" stroke="#404040" stroke-width="0.6"/>
<path d="M180.394 58.5014L179.96 57.1656L180.693 58.3623C182.203 60.8257 185.198 61.9304 187.938 61.033L189.274 60.5952L188.077 61.3349C185.622 62.8511 184.523 65.8581 185.416 68.6077L185.85 69.9435L185.117 68.7467C183.607 66.2834 180.612 65.1787 177.872 66.076L176.536 66.5139L177.733 65.7741C180.188 64.2579 181.287 61.251 180.394 58.5014Z" fill="#90F9DF" stroke="#404040" stroke-width="0.6"/>
<path d="M56.0503 54.4716L55.6163 53.1358L56.3496 54.3325C57.8591 56.7959 60.8538 57.9006 63.5939 57.0032L64.9307 56.5654L63.733 57.3052C61.2783 58.8214 60.1788 61.8283 61.0722 64.5779L61.5062 65.9137L60.7729 64.7169C59.2634 62.2536 56.2687 61.1489 53.5286 62.0463L52.1918 62.4841L53.3894 61.7443C55.8442 60.2281 56.9437 57.2212 56.0503 54.4716Z" fill="#90F9DF" stroke="#404040" stroke-width="0.6"/>
</svg>
