<svg width="288" height="88" viewBox="0 0 288 88" fill="none" xmlns="http://www.w3.org/2000/svg">
<path d="M189.094 37.0584L188.949 36.6661L188.999 37.0816C189.26 39.2694 187.994 41.353 185.934 42.1204L185.535 42.2691L185.958 42.2183C188.139 41.9561 190.214 43.2284 190.977 45.2942L191.122 45.6864L191.073 45.271C190.812 43.0832 192.078 40.9996 194.137 40.2322L194.537 40.0834L194.114 40.1343C191.933 40.3965 189.858 39.1242 189.094 37.0584Z" fill="#F9EF90" stroke="#404040" stroke-width="0.6"/>
<path d="M58.8208 30.0696L58.6758 29.6774L58.7254 30.0928C58.9863 32.2806 57.7201 34.3642 55.6608 35.1316L55.2615 35.2804L55.6844 35.2295C57.8654 34.9673 59.9401 36.2397 60.7038 38.3054L60.8488 38.6977L60.7992 38.2822C60.5382 36.0944 61.8045 34.0108 63.8638 33.2434L64.2631 33.0947L63.8402 33.1455C61.6592 33.4078 59.5845 32.1354 58.8208 30.0696Z" fill="#F9EF90" stroke="#404040" stroke-width="0.6"/>
<path d="M156.452 77.3346L154.212 78.1692L156.584 77.884C160.127 77.458 163.498 79.5248 164.739 82.8815L165.567 85.1215L165.284 82.7492C164.86 79.1941 166.918 75.8092 170.263 74.5627L172.502 73.7281L170.13 74.0133C166.588 74.4393 163.217 72.3725 161.976 69.0158L161.148 66.7758L161.431 69.1482C161.855 72.7032 159.797 76.0881 156.452 77.3346Z" fill="#F9EF90" stroke="#404040" stroke-width="0.6"/>
<path d="M115.267 15.1664L115.753 16.4825L115.587 15.0886C115.245 12.2171 116.906 9.4829 119.609 8.47595L120.928 7.98427L119.531 8.1523C116.669 8.49642 113.946 6.82683 112.944 4.11558L112.457 2.79947L112.623 4.19334C112.966 7.0648 111.304 9.79905 108.602 10.806L107.282 11.2977L108.68 11.1296C111.542 10.7855 114.264 12.4551 115.267 15.1664Z" fill="#F9EF90" stroke="#404040" stroke-width="0.6"/>
<path d="M170.714 12.2025C168.918 12.3909 167.219 11.3508 166.563 9.66501C166.747 11.4655 165.709 13.1701 164.027 13.8262C165.822 13.6378 167.521 14.6779 168.177 16.3637C167.993 14.5633 169.031 12.8587 170.714 12.2025Z" fill="#F9EF90" stroke="#404040" stroke-width="0.6"/>
<path d="M57.3455 52.1386C55.5501 52.327 53.8511 51.2869 53.1951 49.601C53.3789 51.4015 52.3411 53.1061 50.6584 53.7623C52.4538 53.5739 54.1528 54.614 54.8088 56.2998C54.625 54.4993 55.6628 52.7947 57.3455 52.1386Z" fill="#F9EF90" stroke="#404040" stroke-width="0.6"/>
<path d="M107.606 58.5014L108.04 57.1656L107.307 58.3623C105.797 60.8257 102.802 61.9304 100.062 61.033L98.7256 60.5952L99.9232 61.3349C102.378 62.8511 103.477 65.8581 102.584 68.6077L102.15 69.9435L102.883 68.7467C104.393 66.2834 107.388 65.1787 110.128 66.076L111.464 66.5139L110.267 65.7741C107.812 64.2579 106.713 61.251 107.606 58.5014Z" fill="#F9EF90" stroke="#404040" stroke-width="0.6"/>
<path d="M231.95 54.4716L232.384 53.1358L231.65 54.3325C230.141 56.7959 227.146 57.9006 224.406 57.0032L223.069 56.5654L224.267 57.3052C226.722 58.8214 227.821 61.8283 226.928 64.5779L226.494 65.9137L227.227 64.7169C228.737 62.2536 231.731 61.1489 234.471 62.0463L235.808 62.4841L234.611 61.7443C232.156 60.2281 231.056 57.2212 231.95 54.4716Z" fill="#F9EF90" stroke="#404040" stroke-width="0.6"/>
<path d="M151.165 55.4676C152.814 55.5657 154.535 55.6096 156.33 55.5996C158.157 55.5973 159.735 55.5079 161.06 55.3288L161.06 55.3288L161.066 55.328C162.424 55.1288 163.768 54.8195 165.096 54.4002L165.096 54.4003L165.104 54.3975C166.453 53.9455 167.608 53.3679 168.559 52.658L168.559 52.6581L168.565 52.6534C169.516 51.9201 170.355 51.0199 171.081 49.9572C171.852 48.8625 172.429 47.6121 172.818 46.2115C173.714 42.9779 173.36 40.1219 171.694 37.7017C170.043 35.3039 167.449 33.6398 163.973 32.676C159.9 31.5464 156.229 31.8112 152.998 33.518C149.768 35.2226 147.514 38.5639 146.169 43.4122L146.035 43.894L146.517 44.0276L151.856 45.5083L152.338 45.6419L152.472 45.1601C153.377 41.8962 154.672 39.8271 156.282 38.8098C157.894 37.792 159.945 37.5887 162.503 38.2982C164.398 38.8239 165.579 39.6267 166.173 40.6402L166.176 40.6466L166.18 40.653C166.814 41.6654 166.962 42.8505 166.572 44.2566C166.348 45.0665 165.957 45.7876 165.399 46.4245L165.398 46.4244L165.394 46.4302C164.856 47.0623 164.237 47.5863 163.537 48.0042C162.837 48.4221 161.976 48.7791 160.946 49.0692C159.905 49.3369 158.927 49.5473 158.011 49.701C157.137 49.8336 156.095 49.923 154.881 49.9675C153.668 49.9847 152.667 49.9867 151.879 49.9735C151.096 49.9328 150.172 49.8678 149.105 49.7785C148.03 49.6884 147.302 49.6183 146.913 49.568L145.407 49.3732L144.977 49.3176L144.861 49.7354L142.278 59.0481L142.145 59.53L142.627 59.6636L166.716 66.344L167.197 66.4776L167.331 65.9958L168.617 61.3602L168.75 60.8783L168.268 60.7447L149.022 55.4073L148.957 55.3891L148.889 55.3891L145.847 55.3885L145.938 55.0602C147.911 55.2474 149.653 55.3833 151.165 55.4676ZM151.165 55.4676C151.166 55.4676 151.166 55.4676 151.166 55.4677L151.194 54.9684L151.164 55.4676C151.165 55.4676 151.165 55.4676 151.165 55.4676ZM125.654 30.8638L125.657 30.8616C127.437 29.5095 129.528 29.1533 131.991 29.8365C133.658 30.2987 134.944 31.0937 135.876 32.2108L120.967 41.9065C120.963 40.6309 121.179 39.1923 121.625 37.586C122.502 34.4222 123.86 32.2063 125.654 30.8638ZM132.789 48.614L132.788 48.6147C131.046 49.9445 128.974 50.2931 126.508 49.6092C124.814 49.1394 123.517 48.3282 122.588 47.187L137.515 37.547C137.497 38.83 137.276 40.2488 136.844 41.8068C135.959 44.9987 134.593 47.2437 132.789 48.614ZM133.544 24.2372C129.234 23.0418 125.413 23.5155 122.135 25.71C118.881 27.8652 116.634 31.2654 115.363 35.8495C114.092 40.4343 114.263 44.5192 115.933 48.0687C117.613 51.6387 120.644 54.013 124.955 55.2085C129.265 56.4038 133.073 55.9267 136.325 53.7227C139.584 51.5403 141.835 48.1275 143.106 43.5433C144.37 38.9858 144.194 34.9153 142.525 31.3668C140.873 27.8029 137.854 25.4325 133.544 24.2372Z" fill="#6DBAE6" stroke="#404040"/>
</svg>
