<svg width="548" height="174" viewBox="0 0 548 174" fill="none" xmlns="http://www.w3.org/2000/svg">
<path fill-rule="evenodd" clip-rule="evenodd" d="M174 0H0V174H174V0ZM122.686 115.156H140.34V128.736H122.686V159H106.778V128.736H34.222V100.412C65.262 87.22 91.064 59.866 95.138 22.23H111.046C106.002 60.448 85.05 92.652 38.878 113.216V117.872L50.13 115.156H106.778V65.492H122.686V115.156Z" fill="#404040"/>
<path fill-rule="evenodd" clip-rule="evenodd" d="M361 0H187V174H361V0ZM215.028 90.518C215.028 50.36 235.01 20.29 273.422 20.29C311.446 20.29 331.428 50.36 331.428 90.518C331.428 130.87 311.446 160.94 273.422 160.94C235.01 160.94 215.028 130.87 215.028 90.518ZM301.358 45.122C294.374 37.944 285.256 33.87 273.422 33.87C244.904 33.87 230.742 57.538 230.742 90.518C230.742 103.322 232.876 114.574 236.95 123.692L301.358 45.122ZM245.098 135.914C252.082 143.286 261.394 147.36 273.422 147.36C301.746 147.36 315.714 123.692 315.714 90.518C315.714 77.714 313.58 66.462 309.506 57.344L245.098 135.914Z" fill="#404040"/>
<path fill-rule="evenodd" clip-rule="evenodd" d="M548 0H374V174H548V0ZM496.686 115.156H514.34V128.736H496.686V159H480.778V128.736H408.222V100.412C439.262 87.22 465.064 59.866 469.138 22.23H485.046C480.002 60.448 459.05 92.652 412.878 113.216V117.872L424.13 115.156H480.778V65.492H496.686V115.156Z" fill="#404040"/>
</svg>
