<svg width="92" height="76" viewBox="0 0 92 76" fill="none" xmlns="http://www.w3.org/2000/svg">
<path fill-rule="evenodd" clip-rule="evenodd" d="M88.0438 38.0001L88.0459 38.3269L88.0522 38.6539L88.0627 38.9811L88.0774 39.3089L88.0962 39.6373L88.1191 39.9665L88.146 40.2967L88.177 40.628L88.2119 40.9606L88.2507 41.2947L88.2933 41.6304L88.3396 41.9678L88.3895 42.3071L88.4429 42.6485L88.4997 42.992L88.5598 43.3379L88.6231 43.6863L88.6893 44.0373L88.7584 44.391L88.8302 44.7476L88.9044 45.1071L88.9811 45.4698L89.0598 45.8357L89.1405 46.2048L89.2229 46.5774L89.3068 46.9535L89.3919 47.3332L89.478 47.7165L89.5649 48.1036L89.6523 48.4944L89.7398 48.8891L89.8272 49.2876L89.9142 49.6901L90.0005 50.0964L90.0857 50.5067L90.1695 50.921L90.2516 51.3391L90.3315 51.7611L90.4089 52.1869L90.4834 52.6165L90.5546 53.0498L90.6222 53.4868L90.6856 53.9272L90.7445 54.371L90.7984 54.8181L90.847 55.2683L90.8897 55.7214L90.9261 56.1773L90.9558 56.6357L90.9782 57.0965L90.993 57.5593L90.9997 58.0239L90.9977 58.4901L90.9867 58.9575L90.9662 59.4259L90.9357 59.8948L90.8948 60.364L90.8431 60.8331L90.78 61.3017L90.7053 61.7694L90.6185 62.2358L90.5191 62.7005L90.4069 63.163L90.2814 63.6229L90.1424 64.0797L89.9895 64.533L89.8224 64.9822L89.6408 65.4269L89.4446 65.8665L89.2335 66.3007L89.0072 66.7288L88.7658 67.1505L88.509 67.5651L88.2367 67.9723L87.949 68.3715L87.6458 68.7622L87.327 69.144L86.9929 69.5164L86.6435 69.879L86.2788 70.2313L85.8992 70.573L85.5047 70.9036L85.0957 71.2229L84.6723 71.5303L84.2351 71.8257L83.7841 72.1087L83.32 72.3791L82.843 72.6366L82.3536 72.8811L81.8523 73.1123L81.3397 73.33L80.8161 73.5343L80.2821 73.725L79.7384 73.902L79.1855 74.0654L78.624 74.2151L78.0544 74.3513L77.4775 74.4739L76.8939 74.5832L76.3041 74.6792L75.7089 74.7622L75.1088 74.8324L74.5045 74.8899L73.8966 74.935L73.2857 74.9681L72.6725 74.9895L72.0576 74.9995L71.4414 74.9983L70.8247 74.9865L70.208 74.9644L69.5917 74.9325L68.9765 74.8911L68.3628 74.8407L67.7511 74.7817L67.1419 74.7146L66.5355 74.6399L65.9323 74.5581L65.3329 74.4695L64.7374 74.3748L64.1463 74.2744L63.5597 74.1688L62.9781 74.0584L62.4017 73.9439L61.8305 73.8256L61.265 73.704L60.7051 73.5796L60.1511 73.453L59.6031 73.3245L59.0611 73.1946L58.5253 73.0638L57.9956 72.9326L57.4721 72.8013L56.9547 72.6705L56.4436 72.5405L55.9385 72.4118L55.4394 72.2847L54.9463 72.1598L54.4591 72.0373L53.9775 71.9177L53.5015 71.8014L53.0309 71.6887L52.5654 71.58L52.105 71.4757L51.6494 71.3762L51.1983 71.2818L50.7515 71.1928L50.3088 71.1097L49.8698 71.0327L49.4343 70.9622L49.0019 70.8986L48.5723 70.8422L48.1452 70.7934L47.7202 70.7525L47.2969 70.7198L46.875 70.6958L46.454 70.6808L46.0334 70.6752L45.613 70.6793L45.192 70.6928L44.7703 70.7154L44.3472 70.7467L43.9225 70.7863L43.4958 70.8339L43.0666 70.8891L42.6347 70.9516L42.1997 71.021L41.7613 71.097L41.3192 71.1792L40.8731 71.2672L40.4227 71.3608L39.9678 71.4596L39.5082 71.5631L39.0436 71.6711L38.5738 71.7832L38.0986 71.8989L37.6179 72.018L37.1316 72.1401L36.6394 72.2647L36.1413 72.3914L35.6372 72.5199L35.127 72.6497L34.6107 72.7805L34.0882 72.9117L33.5595 73.043L33.0246 73.1738L32.4836 73.3039L31.9365 73.4326L31.3835 73.5596L30.8245 73.6844L30.2599 73.8064L29.6896 73.9253L29.114 74.0405L28.5332 74.1515L27.9474 74.2579L27.357 74.3592L26.7622 74.4548L26.1633 74.5444L25.5608 74.6273L24.9549 74.7032L24.346 74.7715L23.7347 74.8318L23.1213 74.8836L22.5063 74.9265L21.8901 74.96L21.2734 74.9837L20.6567 74.9972L20.0404 75L19.4252 74.9918L18.8117 74.9723L18.2005 74.9411L17.592 74.8979L16.9871 74.8423L16.3863 74.7742L15.7903 74.6933L15.1996 74.5994L14.6149 74.4922L14.0369 74.3717L13.4662 74.2377L12.9033 74.0901L12.349 73.9289L11.8038 73.7541L11.2682 73.5656L10.743 73.3635L10.2285 73.1478L9.72536 72.9188L9.23406 72.6765L8.75507 72.421L8.28884 72.1527L7.83579 71.8716L7.3963 71.5782L6.97073 71.2726L6.5594 70.9552L6.1626 70.6264L5.78057 70.2864L5.41352 69.9358L5.06165 69.5748L4.72507 69.2039L4.4039 68.8236L4.09821 68.4343L3.80801 68.0364L3.5333 67.6305L3.27404 67.217L3.03014 66.7964L2.8015 66.3693L2.58797 65.9361L2.38937 65.4972L2.2055 65.0533L2.03611 64.6048L1.88095 64.1522L1.73973 63.6959L1.61213 63.2365L1.49782 62.7743L1.39644 62.31L1.30764 61.8438L1.231 61.3763L1.16613 60.9078L1.11262 60.4388L1.07002 59.9695L1.03791 59.5005L1.01584 59.032L1.00336 58.5645L1 58.0981L1.00531 57.6332L1.01883 57.17L1.04009 56.709L1.06863 56.2502L1.104 55.7939L1.14573 55.3403L1.19338 54.8896L1.2465 54.442L1.30464 53.9977L1.36739 53.5567L1.4343 53.1192L1.50498 52.6853L1.579 52.2551L1.65597 51.8287L1.7355 51.406L1.81723 50.9873L1.90077 50.5724L1.98577 50.1615L2.0719 49.7545L2.15881 49.3514L2.24619 48.9523L2.33373 48.557L2.42113 48.1656L2.50811 47.7779L2.59438 47.394L2.67969 47.0137L2.76379 46.6371L2.84644 46.264L2.92741 45.8942L3.00647 45.5279L3.08344 45.1647L3.1581 44.8046L3.23028 44.4476L3.29981 44.0934L3.36651 43.742L3.43023 43.3933L3.49084 43.047L3.54819 42.703L3.60216 42.3613L3.65264 42.0217L3.69952 41.684L3.7427 41.3481L3.7821 41.0138L3.81763 40.6809L3.84923 40.3494L3.87683 40.019L3.90038 39.6897L3.91983 39.3611L3.93515 39.0333L3.94631 38.706L3.95328 38.379L3.95605 38.0522L3.95462 37.7254L3.94898 37.3985L3.93916 37.0713L3.92516 36.7436L3.90702 36.4153L3.88477 36.0863L3.85846 35.7562L3.82813 35.4251L3.79384 35.0927L3.75566 34.7589L3.71368 34.4235L3.66797 34.0863L3.61862 33.7473L3.56575 33.4063L3.50946 33.0631L3.44988 32.7176L3.38713 32.3696L3.32137 32.0191L3.25273 31.6658L3.18137 31.3097L3.10748 30.9506L3.03123 30.5884L2.95281 30.2231L2.87242 29.8545L2.79029 29.4824L2.70662 29.1069L2.62167 28.7278L2.53568 28.3451L2.44889 27.9586L2.3616 27.5684L2.27407 27.1743L2.18661 26.7764L2.09951 26.3746L2.0131 25.9688L1.9277 25.5592L1.84366 25.1456L1.76132 24.7281L1.68104 24.3067L1.60321 23.8814L1.52821 23.4524L1.45643 23.0197L1.38827 22.5833L1.32415 22.1434L1.26449 21.7001L1.20972 21.2536L1.16029 20.8039L1.11662 20.3512L1.07918 19.8957L1.04841 19.4377L1.02478 18.9773L1.00875 18.5148L1.00077 18.0505L1.00132 17.5845L1.01085 17.1173L1.02982 16.6491L1.05868 16.1802L1.09788 15.711L1.14787 15.2418L1.20908 14.7731L1.28192 14.3053L1.36681 13.8386L1.46414 13.3736L1.57429 12.9107L1.69762 12.4504L1.83447 11.9931L1.98516 11.5392L2.14998 11.0893L2.32922 10.6439L2.5231 10.2034L2.73186 9.76834L2.95567 9.3392L3.19469 8.91648L3.44904 8.50069L3.71883 8.09232L4.00409 7.69184L4.30485 7.29975L4.62109 6.9165L4.95277 6.54257L5.29979 6.17839L5.66202 5.82438L6.03929 5.48097L6.43142 5.14855L6.83815 4.82748L7.25922 4.51811L7.69431 4.22078L8.14308 3.93577L8.60516 3.66335L9.08013 3.40377L9.56756 3.15724L10.067 2.92394L10.5779 2.70402L11.0998 2.4976L11.6321 2.30477L12.1743 2.12556L12.7258 1.96002L13.286 1.80811L13.8543 1.6698L14.43 1.545L15.0127 1.4336L15.6015 1.33546L16.1959 1.25041L16.7953 1.17824L17.399 1.11873L18.0063 1.07161L18.6167 1.0366L19.2296 1.0134L19.8443 1.00166L20.4603 1.00104L21.077 1.01116L21.6937 1.03164L22.3101 1.06205L22.9255 1.10198L23.5395 1.151L24.1516 1.20864L24.7612 1.27446L25.3681 1.34798L25.9718 1.42873L26.5719 1.51623L27.168 1.60999L27.7598 1.70952L28.3471 1.81435L28.9295 1.92397L29.5068 2.03789L30.0788 2.15564L30.6453 2.27673L31.206 2.40067L31.761 2.52699L32.31 2.65522L32.8529 2.7849L33.3897 2.91556L33.9204 3.04676L34.4449 3.17804L34.9632 3.30898L35.4754 3.43914L35.9814 3.5681L36.4814 3.69544L36.9755 3.82076L37.4636 3.94366L37.9461 4.06374L38.423 4.18061L38.8945 4.2939L39.3607 4.40324L39.8219 4.50824L40.2783 4.60856L40.7301 4.70382L41.1775 4.79368L41.6209 4.87778L42.0605 4.95577L42.4965 5.0273L42.9294 5.09202L43.3594 5.14959L43.7869 5.19965L44.2122 5.24184L44.6357 5.27582L45.0578 5.30121L45.4789 5.31766L45.8995 5.32478L46.32 5.32225L46.7408 5.31021L47.1624 5.28904L47.5852 5.25912L48.0096 5.22081L48.436 5.17446L48.8648 5.12044L49.2962 5.05909L49.7307 4.99077L50.1686 4.91583L50.6101 4.8346L51.0555 4.74745L51.5052 4.65473L51.9594 4.55678L52.4182 4.45397L52.882 4.34666L53.351 4.23521L53.8253 4.12L54.3051 4.00141L54.7905 3.87981L55.2817 3.7556L55.7789 3.62917L56.282 3.50093L56.7913 3.37129L57.3066 3.24067L57.8282 3.1095L58.3559 2.9782L58.8898 2.84723L59.4298 2.71703L59.9759 2.58805L60.528 2.46075L61.086 2.33562L61.6498 2.21311L62.2191 2.09371L62.7939 1.97789L63.3739 1.86615L63.9589 1.75898L64.5486 1.65686L65.1427 1.56027L65.741 1.46972L66.343 1.38569L66.9484 1.30865L67.5568 1.2391L68.1677 1.17749L68.7809 1.1243L69.3956 1.07997L70.0116 1.04495L70.6283 1.01968L71.245 1.00456L71.8614 1L72.4768 1.00638L73.0906 1.02406L73.7023 1.05339L74.3112 1.09469L74.9167 1.14824L75.5182 1.21434L76.1151 1.2932L76.7067 1.38506L77.2923 1.49011L77.8715 1.60849L78.4434 1.74033L79.0075 1.88574L79.5633 2.04476L80.11 2.21744L80.6471 2.40377L81.174 2.60371L81.6903 2.81719L82.1952 3.04411L82.6884 3.28434L83.1694 3.53771L83.6377 3.80402L84.0929 4.08304L84.5346 4.37453L84.9624 4.67819L85.376 4.99371L85.7751 5.32075L86.1595 5.65896L86.529 6.00795L86.8833 6.36732L87.2223 6.73665L87.5459 7.1155L87.8541 7.50343L88.1467 7.89996L88.4239 8.30462L88.6856 8.71693L88.932 9.13639L89.163 9.56252L89.379 9.99482L89.5799 10.4328L89.7661 10.8759L89.9378 11.3238L90.0952 11.7758L90.2386 12.2315L90.3684 12.6904L90.4848 13.1522L90.5882 13.6162L90.679 14.0821L90.7575 14.5495L90.8242 15.0178L90.8795 15.4868L90.9238 15.956L90.9576 16.4251L90.9812 16.8937L90.9952 17.3614L91 17.828L90.996 18.2932L90.9838 18.7566L90.9637 19.218L90.9363 19.6772L90.902 20.1339L90.8613 20.5879L90.8145 21.0391L90.7623 21.4872L90.7049 21.9321L90.6428 22.3736L90.5765 22.8116L90.5064 23.2461L90.4329 23.6769L90.3564 24.104L90.2773 24.5272L90.1959 24.9466L90.1126 25.362L90.0278 25.7736L89.9418 26.1812L89.855 26.5849L89.7677 26.9847L89.6801 27.3806L89.5927 27.7726L89.5056 28.1609L89.4192 28.5454L89.3338 28.9262L89.2494 29.3034L89.1665 29.6771L89.0853 30.0474L89.0059 30.4143L88.9286 30.778L88.8536 31.1385L88.781 31.496L88.711 31.8506L88.6439 32.2025L88.5796 32.5516L88.5185 32.8983L88.4607 33.2426L88.4061 33.5847L88.3551 33.9246L88.3076 34.2626L88.2639 34.5988L88.2239 34.9334L88.1877 35.2664L88.1555 35.5982L88.1272 35.9287L88.103 36.2582L88.0829 36.5869L88.0669 36.9148L88.0551 37.2422L88.0475 37.5692L88.0441 37.8961L88.0438 38.0001Z" fill="#691CFF"/>
<path d="M88.0438 38.0001V38.0001ZM88.0438 38.0001L88.0459 38.3269L88.0522 38.6539L88.0627 38.9811L88.0774 39.3089L88.0962 39.6373L88.1191 39.9665L88.146 40.2967L88.177 40.628L88.2119 40.9606L88.2507 41.2947L88.2933 41.6304L88.3396 41.9678L88.3895 42.3071L88.4429 42.6485L88.4997 42.992L88.5598 43.3379L88.6231 43.6863L88.6893 44.0373L88.7584 44.391L88.8302 44.7476L88.9045 45.1071L88.9811 45.4698L89.0598 45.8357L89.1405 46.2048L89.2229 46.5774L89.3068 46.9535L89.3919 47.3332L89.478 47.7165L89.5649 48.1036L89.6523 48.4944L89.7398 48.8891L89.8272 49.2876L89.9142 49.6901L90.0005 50.0964L90.0857 50.5067L90.1695 50.921L90.2516 51.3391L90.3315 51.7611L90.4089 52.1869L90.4834 52.6165L90.5546 53.0498L90.6222 53.4868L90.6856 53.9272L90.7445 54.371L90.7984 54.8181L90.847 55.2683L90.8897 55.7214L90.9261 56.1773L90.9558 56.6357L90.9782 57.0965L90.993 57.5593L90.9997 58.0239L90.9977 58.4901L90.9867 58.9575L90.9662 59.4259L90.9357 59.8948L90.8948 60.364L90.8431 60.8331L90.78 61.3017L90.7053 61.7694L90.6185 62.2358L90.5191 62.7005L90.4069 63.163L90.2814 63.6229L90.1424 64.0797L89.9895 64.533L89.8224 64.9822L89.6408 65.4269L89.4446 65.8665L89.2335 66.3007L89.0072 66.7288L88.7658 67.1505L88.509 67.5651L88.2367 67.9723L87.949 68.3715L87.6458 68.7622L87.327 69.144L86.9929 69.5164L86.6435 69.879L86.2788 70.2313L85.8992 70.573L85.5047 70.9036L85.0957 71.2229L84.6723 71.5303L84.2351 71.8257L83.7841 72.1087L83.32 72.3791L82.843 72.6366L82.3536 72.8811L81.8523 73.1123L81.3397 73.33L80.8161 73.5343L80.2821 73.725L79.7384 73.902L79.1855 74.0654L78.624 74.2151L78.0544 74.3513L77.4775 74.4739L76.8939 74.5832L76.3041 74.6792L75.7089 74.7622L75.1088 74.8324L74.5045 74.8899L73.8966 74.935L73.2857 74.9681L72.6725 74.9895L72.0576 74.9995L71.4414 74.9983L70.8247 74.9865L70.208 74.9644L69.5917 74.9325L68.9765 74.8911L68.3628 74.8407L67.7511 74.7817L67.1419 74.7146L66.5355 74.6399L65.9323 74.5581L65.3329 74.4695L64.7374 74.3748L64.1463 74.2744L63.5597 74.1688L62.9781 74.0584L62.4017 73.9439L61.8305 73.8256L61.265 73.704L60.7051 73.5796L60.1511 73.453L59.6031 73.3245L59.0611 73.1946L58.5253 73.0638L57.9956 72.9326L57.4721 72.8013L56.9547 72.6705L56.4436 72.5405L55.9385 72.4118L55.4395 72.2847L54.9463 72.1598L54.4591 72.0373L53.9775 71.9177L53.5015 71.8014L53.0309 71.6887L52.5654 71.58L52.105 71.4757L51.6494 71.3762L51.1983 71.2818L50.7515 71.1928L50.3088 71.1097L49.8698 71.0327L49.4343 70.9622L49.0019 70.8986L48.5723 70.8422L48.1452 70.7934L47.7202 70.7525L47.2969 70.7198L46.875 70.6958L46.454 70.6808L46.0334 70.6752L45.613 70.6793L45.192 70.6928L44.7703 70.7154L44.3472 70.7467L43.9225 70.7863L43.4958 70.8339L43.0666 70.8891L42.6347 70.9516L42.1997 71.021L41.7613 71.097L41.3192 71.1792L40.8731 71.2672L40.4227 71.3608L39.9678 71.4596L39.5082 71.5631L39.0436 71.6711L38.5738 71.7832L38.0986 71.8989L37.6179 72.018L37.1316 72.1401L36.6394 72.2647L36.1413 72.3914L35.6372 72.5199L35.127 72.6497L34.6107 72.7805L34.0881 72.9117L33.5595 73.043L33.0246 73.1738L32.4836 73.3039L31.9365 73.4326L31.3835 73.5596L30.8245 73.6844L30.2599 73.8064L29.6896 73.9253L29.114 74.0405L28.5332 74.1515L27.9474 74.2579L27.357 74.3592L26.7622 74.4548L26.1633 74.5444L25.5608 74.6273L24.9549 74.7032L24.346 74.7715L23.7347 74.8318L23.1213 74.8836L22.5063 74.9265L21.8901 74.96L21.2734 74.9837L20.6567 74.9972L20.0404 75L19.4252 74.9918L18.8117 74.9723L18.2005 74.9411L17.592 74.8979L16.9871 74.8423L16.3863 74.7742L15.7903 74.6933L15.1996 74.5994L14.6149 74.4922L14.0369 74.3717L13.4662 74.2377L12.9033 74.0901L12.349 73.9289L11.8038 73.7541L11.2682 73.5656L10.743 73.3635L10.2285 73.1478L9.72536 72.9188L9.23406 72.6765L8.75507 72.421L8.28884 72.1527L7.83579 71.8716L7.3963 71.5782L6.97073 71.2726L6.5594 70.9552L6.1626 70.6264L5.78057 70.2864L5.41352 69.9358L5.06165 69.5748L4.72507 69.2039L4.4039 68.8236L4.09821 68.4343L3.80801 68.0364L3.5333 67.6305L3.27404 67.217L3.03014 66.7964L2.8015 66.3693L2.58797 65.9361L2.38937 65.4972L2.2055 65.0533L2.03611 64.6048L1.88095 64.1522L1.73973 63.6959L1.61213 63.2365L1.49782 62.7743L1.39644 62.31L1.30764 61.8438L1.231 61.3763L1.16613 60.9078L1.11262 60.4388L1.07002 59.9695L1.03791 59.5005L1.01584 59.032L1.00336 58.5645L1 58.0981L1.00531 57.6332L1.01883 57.17L1.04009 56.709L1.06863 56.2502L1.104 55.7939L1.14573 55.3403L1.19338 54.8896L1.2465 54.442L1.30464 53.9977L1.36739 53.5567L1.4343 53.1192L1.50498 52.6853L1.579 52.2551L1.65597 51.8287L1.7355 51.406L1.81723 50.9873L1.90077 50.5724L1.98577 50.1615L2.0719 49.7545L2.15881 49.3514L2.24619 48.9523L2.33373 48.557L2.42113 48.1656L2.50811 47.7779L2.59438 47.394L2.67969 47.0137L2.76379 46.6371L2.84644 46.2639L2.92741 45.8942L3.00647 45.5279L3.08344 45.1647L3.1581 44.8046L3.23028 44.4476L3.29981 44.0934L3.36651 43.742L3.43023 43.3933L3.49084 43.047L3.54819 42.703L3.60216 42.3613L3.65264 42.0217L3.69952 41.684L3.7427 41.3481L3.7821 41.0138L3.81763 40.6809L3.84923 40.3494L3.87683 40.019L3.90038 39.6897L3.91983 39.3611L3.93515 39.0333L3.94631 38.706L3.95328 38.379L3.95605 38.0522L3.95462 37.7254L3.94898 37.3985L3.93916 37.0713L3.92516 36.7436L3.90702 36.4153L3.88477 36.0863L3.85846 35.7562L3.82813 35.4251L3.79384 35.0927L3.75566 34.7589L3.71368 34.4235L3.66797 34.0863L3.61862 33.7473L3.56575 33.4063L3.50946 33.0631L3.44988 32.7176L3.38713 32.3696L3.32137 32.0191L3.25273 31.6658L3.18137 31.3097L3.10748 30.9506L3.03123 30.5884L2.95281 30.2231L2.87242 29.8545L2.79029 29.4824L2.70662 29.1069L2.62167 28.7278L2.53568 28.3451L2.44889 27.9586L2.3616 27.5684L2.27407 27.1743L2.18661 26.7764L2.09951 26.3746L2.0131 25.9688L1.9277 25.5592L1.84366 25.1456L1.76132 24.7281L1.68104 24.3067L1.60321 23.8814L1.52821 23.4524L1.45643 23.0197L1.38827 22.5833L1.32415 22.1434L1.26449 21.7001L1.20972 21.2536L1.16029 20.8039L1.11662 20.3512L1.07918 19.8957L1.04841 19.4377L1.02478 18.9773L1.00875 18.5148L1.00077 18.0505L1.00132 17.5845L1.01085 17.1173L1.02982 16.6491L1.05868 16.1802L1.09788 15.711L1.14787 15.2418L1.20908 14.7731L1.28192 14.3053L1.36681 13.8386L1.46414 13.3736L1.57429 12.9107L1.69762 12.4504L1.83447 11.9931L1.98516 11.5392L2.14998 11.0893L2.32922 10.6439L2.5231 10.2034L2.73186 9.76834L2.95567 9.3392L3.19469 8.91648L3.44904 8.50069L3.71883 8.09232L4.00409 7.69184L4.30485 7.29975L4.62109 6.9165L4.95277 6.54257L5.29979 6.17839L5.66202 5.82438L6.03929 5.48097L6.43142 5.14855L6.83815 4.82748L7.25922 4.51811L7.69431 4.22078L8.14308 3.93576L8.60516 3.66335L9.08013 3.40377L9.56756 3.15724L10.067 2.92394L10.5779 2.70402L11.0998 2.4976L11.6321 2.30477L12.1743 2.12556L12.7258 1.96002L13.286 1.80811L13.8543 1.6698L14.43 1.545L15.0127 1.4336L15.6015 1.33546L16.1959 1.25041L16.7953 1.17824L17.399 1.11873L18.0063 1.07161L18.6167 1.0366L19.2296 1.0134L19.8443 1.00166L20.4603 1.00104L21.077 1.01116L21.6937 1.03164L22.3101 1.06205L22.9255 1.10198L23.5395 1.151L24.1516 1.20864L24.7612 1.27446L25.3681 1.34798L25.9718 1.42873L26.5719 1.51623L27.168 1.60999L27.7598 1.70952L28.3471 1.81435L28.9295 1.92397L29.5068 2.03789L30.0788 2.15564L30.6453 2.27673L31.206 2.40067L31.761 2.52699L32.31 2.65522L32.8529 2.7849L33.3897 2.91556L33.9204 3.04676L34.4449 3.17804L34.9632 3.30898L35.4754 3.43914L35.9814 3.5681L36.4814 3.69544L36.9755 3.82076L37.4636 3.94366L37.9461 4.06374L38.423 4.18061L38.8945 4.2939L39.3607 4.40324L39.8219 4.50824L40.2783 4.60856L40.7301 4.70382L41.1775 4.79368L41.6209 4.87778L42.0605 4.95577L42.4965 5.0273L42.9294 5.09202L43.3594 5.14959L43.7869 5.19965L44.2122 5.24184L44.6357 5.27582L45.0578 5.30121L45.4789 5.31766L45.8995 5.32478L46.32 5.32225L46.7408 5.31021L47.1624 5.28904L47.5852 5.25912L48.0096 5.22081L48.436 5.17446L48.8648 5.12044L49.2962 5.05909L49.7307 4.99077L50.1686 4.91583L50.6101 4.8346L51.0555 4.74745L51.5052 4.65473L51.9594 4.55678L52.4182 4.45397L52.882 4.34666L53.351 4.23521L53.8253 4.12L54.3051 4.00141L54.7905 3.87981L55.2817 3.7556L55.7789 3.62917L56.282 3.50093L56.7913 3.37129L57.3066 3.24067L57.8282 3.1095L58.3559 2.9782L58.8898 2.84723L59.4298 2.71703L59.9759 2.58805L60.528 2.46075L61.086 2.33562L61.6498 2.21311L62.2191 2.09371L62.7939 1.97789L63.3739 1.86615L63.9589 1.75898L64.5486 1.65686L65.1427 1.56027L65.741 1.46972L66.343 1.38569L66.9484 1.30865L67.5568 1.2391L68.1677 1.17749L68.7809 1.1243L69.3956 1.07997L70.0116 1.04495L70.6283 1.01968L71.245 1.00456L71.8614 1L72.4768 1.00638L73.0906 1.02406L73.7023 1.05339L74.3112 1.09469L74.9167 1.14824L75.5182 1.21434L76.1151 1.2932L76.7067 1.38506L77.2923 1.49011L77.8715 1.60849L78.4434 1.74033L79.0075 1.88574L79.5633 2.04476L80.11 2.21744L80.6471 2.40377L81.174 2.60371L81.6903 2.81719L82.1952 3.04411L82.6884 3.28434L83.1694 3.53771L83.6377 3.80402L84.0929 4.08304L84.5346 4.37453L84.9624 4.67819L85.376 4.99371L85.7751 5.32075L86.1595 5.65896L86.529 6.00795L86.8833 6.36732L87.2223 6.73665L87.5459 7.1155L87.8541 7.50343L88.1467 7.89996L88.4239 8.30462L88.6856 8.71693L88.932 9.13639L89.163 9.56252L89.379 9.99482L89.5799 10.4328L89.7661 10.8759L89.9378 11.3238L90.0952 11.7758L90.2386 12.2315L90.3684 12.6904L90.4848 13.1522L90.5882 13.6162L90.679 14.0821L90.7575 14.5495L90.8242 15.0178L90.8795 15.4868L90.9238 15.956L90.9576 16.4251L90.9812 16.8937L90.9952 17.3614L91 17.828L90.996 18.2932L90.9838 18.7566L90.9637 19.218L90.9363 19.6772L90.902 20.1339L90.8613 20.5879L90.8145 21.0391L90.7623 21.4872L90.7049 21.9321L90.6428 22.3736L90.5765 22.8116L90.5064 23.2461L90.4329 23.6769L90.3564 24.104L90.2773 24.5272L90.1959 24.9466L90.1126 25.362L90.0278 25.7736L89.9418 26.1812L89.855 26.5849L89.7677 26.9847L89.6801 27.3806L89.5927 27.7726L89.5056 28.1609L89.4192 28.5454L89.3338 28.9262L89.2494 29.3034L89.1666 29.6771L89.0853 30.0474L89.0059 30.4143L88.9286 30.778L88.8536 31.1385L88.781 31.496L88.711 31.8506L88.6439 32.2025L88.5796 32.5516L88.5185 32.8983L88.4607 33.2426L88.4061 33.5847L88.3551 33.9246L88.3076 34.2626L88.2639 34.5988L88.2239 34.9334L88.1877 35.2664L88.1555 35.5982L88.1272 35.9287L88.103 36.2582L88.0829 36.5869L88.0669 36.9148L88.0551 37.2422L88.0475 37.5692L88.044 37.8961L88.0438 38.0001Z" stroke="#404040"/>
</svg>
