<svg width="24" height="24" viewBox="0 0 24 24" fill="none" xmlns="http://www.w3.org/2000/svg">
<path fill-rule="evenodd" clip-rule="evenodd" d="M10.89 14.1263C9.1624 12.9764 8.83328 10.3807 10.3415 8.81661L10.3498 8.80774L12.4675 6.64126C13.815 5.26282 16.0314 5.25146 17.3928 6.61607C18.7268 7.95322 18.738 10.1524 17.4177 11.5032L15.3508 13.6176C15.337 13.6318 15.3131 13.6191 15.3173 13.5997C15.4671 12.9073 15.4122 11.9909 15.1886 11.341C15.1675 11.2799 15.1821 11.2123 15.227 11.166L16.1982 10.165C16.8371 9.51141 16.8263 8.45268 16.1742 7.81228C15.5287 7.16521 14.4777 7.1706 13.8387 7.82424L12.2355 9.46443L12.2381 9.46536C12.1677 9.53945 12.0936 9.61454 12.0186 9.69061C11.638 10.0766 11.2322 10.4881 11.1422 10.9251L11.1419 10.925C11.0483 11.3336 11.1085 11.7292 11.2853 12.0822L11.2855 12.0821C11.4331 12.3655 11.6953 12.6338 11.9589 12.7769C12.028 12.8145 12.0536 12.9016 12.0124 12.9687C11.743 13.4075 11.4353 13.7526 11.0716 14.1088C11.0227 14.1567 10.947 14.1642 10.89 14.1263ZM14.2086 14.4224L14.2047 14.424C14.0348 14.8336 12.9885 15.8778 12.2288 16.6361C11.917 16.9473 11.6534 17.2104 11.5186 17.3616C10.1847 18.7261 7.97958 18.7487 6.61822 17.4117C5.27047 16.0609 5.25916 13.8391 6.59306 12.4745L8.62885 10.3919C8.64258 10.3778 8.66624 10.3901 8.66244 10.4094C8.52593 11.101 8.58518 11.9968 8.80145 12.6619C8.82109 12.7222 8.80608 12.7884 8.76193 12.8339L7.78792 13.8378C7.14901 14.4914 7.15979 15.5502 7.81188 16.1906C8.46398 16.831 9.52025 16.8202 10.1592 16.1666C10.3155 16.0065 10.5747 15.7414 10.8458 15.4642C11.192 15.1102 11.5577 14.7362 11.7538 14.5352L11.7536 14.535C11.8036 14.4834 11.8551 14.4311 11.9072 14.3782C12.3329 13.9457 12.799 13.4722 12.8654 12.9611H12.8656C12.9455 12.5285 12.8222 12.1258 12.697 11.9136L12.6967 11.9138C12.5362 11.6134 12.2963 11.3871 12.0307 11.2325C11.9599 11.1913 11.933 11.1027 11.9689 11.0289C12.1978 10.559 12.5446 10.1908 12.8989 9.90359C12.9553 9.85791 13.0514 9.85322 13.1116 9.89371C13.8111 10.3644 14.3261 11.1289 14.5138 11.8987L14.5148 11.8991L14.5157 11.8982C14.7134 12.7626 14.6304 13.6493 14.2086 14.4224Z" fill="white"/>
</svg>
