<svg width="37" height="66" viewBox="0 0 37 66" fill="none" xmlns="http://www.w3.org/2000/svg">
<path d="M0.342596 14.8954L8.36651 0.533586L22.3423 8.18625L35.8241 52.1312L28.3107 65.5431L14.0472 59.5668L0.342596 14.8954Z" fill="#FF72C6"/>
<path d="M0.342596 14.8954L8.36651 0.533586M0.342596 14.8954L7.24436 15.1736M0.342596 14.8954L14.0472 59.5668M8.36651 0.533586L7.24436 15.1736M8.36651 0.533586L14.5776 12.9372M8.36651 0.533586L22.3423 8.18625M7.24436 15.1736L14.5776 12.9372M7.24436 15.1736L20.7262 59.1185M14.5776 12.9372L22.3423 8.18625M14.5776 12.9372L29.8927 56.3231M22.3423 8.18625L35.8241 52.1312M14.0472 59.5668L20.7262 59.1185M14.0472 59.5668L28.3107 65.5431M20.7262 59.1185L29.8927 56.3231M20.7262 59.1185L28.3107 65.5431M29.8927 56.3231L35.8241 52.1312M29.8927 56.3231L28.3107 65.5431M35.8241 52.1312L28.3107 65.5431" stroke="#404040" stroke-width="0.6"/>
</svg>
