<svg width="288" height="88" viewBox="0 0 288 88" fill="none" xmlns="http://www.w3.org/2000/svg">
<g clip-path="url(#clip0)">
<path d="M13.6973 62.4375C13.8057 62.522 13.969 62.5649 14.2112 62.5359C14.4541 62.5069 14.7565 62.4072 15.1146 62.2321C15.8301 61.8823 16.727 61.252 17.7469 60.3836C19.7842 58.6489 22.2797 55.9925 24.747 52.8251C27.2143 49.6577 29.1792 46.5879 30.3626 44.1881C30.955 42.9867 31.3467 41.9628 31.5107 41.1835C31.5929 40.7934 31.6155 40.4758 31.5842 40.2332C31.553 39.9913 31.4715 39.8434 31.363 39.759C31.2546 39.6745 31.0913 39.6316 30.8492 39.6606C30.6062 39.6896 30.3038 39.7893 29.9457 39.9644C29.2302 40.3142 28.3333 40.9445 27.3134 41.8129C25.2761 43.5476 22.7806 46.204 20.3133 49.3714C17.846 52.5389 15.8811 55.6086 14.6977 58.0084C14.1053 59.2098 13.7137 60.2337 13.5496 61.013C13.4674 61.4031 13.4448 61.7207 13.4761 61.9634C13.5073 62.2052 13.5889 62.3531 13.6973 62.4375Z" fill="#CBD560" stroke="#404040" stroke-width="0.4"/>
<path d="M25.3543 40.6006C24.7822 37.7255 26.899 35.8454 28.0288 35.2648C28.3919 35.0782 28.0946 33.8619 27.6968 33.5962C27.4404 33.4248 26.7012 33.4206 26.1055 33.6459C25.3609 33.9274 23.4087 35.5168 23.3536 39.2639C23.3045 42.6096 24.8797 47.4704 26.1379 52.5874L27.4228 50.9974L25.3543 40.6006Z" fill="#EB8282" stroke="black" stroke-width="0.4"/>
<path d="M4.01221 54.0538C12.2269 52.4193 20.6951 54.0704 24.0048 55.28L22.3086 57.4856L21.8469 57.1771C17.3578 54.7344 9.118 55.7956 5.01085 56.3904C4.11237 56.5691 3.53151 55.6617 3.44638 55.2338C3.30337 54.515 3.49879 54.1559 4.01221 54.0538Z" fill="#82B9EB" stroke="black" stroke-width="0.4"/>
<path d="M24.9145 52.9349C22.6507 55.8411 20.3508 58.3272 18.3749 60.0887C17.3872 60.9692 16.4768 61.6721 15.6892 62.156C15.2606 62.4193 14.8597 62.6234 14.4967 62.7537L21.7564 64.9568L24.8806 65.905L32.2652 68.146L35.6956 69.1871L41.3539 70.9042L44.0521 71.7231L44.1823 71.7626C45.3226 71.9574 46.5673 71.2568 47.4119 70.2149C48.261 69.1673 48.6285 67.8739 48.1505 66.9528L47.8626 66.483L46.4503 64.1784L43.1979 58.8711L41.4363 55.9966L37.367 49.3564L35.5448 46.383L31.8862 40.413C31.8506 40.7956 31.7525 41.2332 31.6035 41.7119C31.3293 42.5936 30.8717 43.6494 30.2598 44.8243C29.0356 47.1749 27.1843 50.0208 24.9145 52.9349Z" fill="#EFFC58" stroke="#404040" stroke-width="0.4"/>
<path d="M20.5257 36.0551L22.3724 37.2889L22.5263 37.3918L21.1897 39.3924L19.1891 38.0557L20.5257 36.0551Z" fill="#82B9EB"/>
<path d="M19.5695 42.6503L21.4162 43.8841L21.5701 43.987L20.2335 45.9876L18.2329 44.6509L19.5695 42.6503Z" fill="#82B9EB"/>
<path d="M17.9804 66.1844L19.8271 67.4182L19.981 67.521L18.6443 69.5217L16.6437 68.185L17.9804 66.1844Z" fill="#82B9EB"/>
<path d="M20.5257 36.0551L22.3724 37.2889L22.5263 37.3918L21.1897 39.3924L19.1891 38.0557L20.5257 36.0551Z" stroke="#404040" stroke-width="0.4"/>
<path d="M19.5695 42.6503L21.4162 43.8841L21.5701 43.987L20.2335 45.9876L18.2329 44.6509L19.5695 42.6503Z" stroke="#404040" stroke-width="0.4"/>
<path d="M17.9804 66.1844L19.8271 67.4182L19.981 67.521L18.6443 69.5217L16.6437 68.185L17.9804 66.1844Z" stroke="#404040" stroke-width="0.4"/>
<path d="M9.63072 38.0423L11.4811 39.2738L10.2941 41.3763L8.72658 40.2218L9.63072 38.0423Z" fill="#FFBAF8"/>
<path d="M29.0075 35.92L30.8579 37.1515L29.6198 38.9975L27.7695 37.766L29.0075 35.92Z" fill="#FFBAF8"/>
<path d="M42.4901 50.5671L44.031 52.2601L42.7164 53.7214L41.0724 52.1823L42.4901 50.5671Z" fill="#FFBAF8"/>
<path d="M11.3485 72.2265L13.6115 72.8426L12.7329 75.1503L10.7272 74.4829L11.3485 72.2265Z" fill="#FFBAF8"/>
<path d="M9.63072 38.0423L11.4811 39.2738L10.2941 41.3763L8.72658 40.2218L9.63072 38.0423Z" stroke="#404040" stroke-width="0.4"/>
<path d="M29.0075 35.92L30.8579 37.1515L29.6198 38.9975L27.7695 37.766L29.0075 35.92Z" stroke="#404040" stroke-width="0.4"/>
<path d="M42.4901 50.5671L44.031 52.2601L42.7164 53.7214L41.0724 52.1823L42.4901 50.5671Z" stroke="#404040" stroke-width="0.4"/>
<path d="M11.3485 72.2265L13.6115 72.8426L12.7329 75.1503L10.7272 74.4829L11.3485 72.2265Z" stroke="#404040" stroke-width="0.4"/>
<path fill-rule="evenodd" clip-rule="evenodd" d="M2.59821 42.2303C2.65605 41.5978 2.83704 40.9189 3.04228 40.3417C3.18759 39.9331 3.01659 39.4673 2.62246 39.2863C2.22833 39.1054 1.76041 39.2778 1.61009 39.6846C1.35119 40.3853 1.11105 41.2478 1.03428 42.0873C0.933825 43.186 1.09117 44.6404 2.39017 45.2995C3.50152 45.8635 4.66589 45.673 5.58522 45.322C6.50846 44.9695 7.30596 44.4108 7.7855 44.0519C7.85146 44.0026 7.96283 43.9918 8.06513 44.0759C8.10884 44.1119 8.13782 44.1578 8.14974 44.2125C8.16088 44.2636 8.16661 44.3667 8.09018 44.5313C7.78341 45.1921 7.39695 46.168 7.24075 47.0502C7.16407 47.4832 7.12726 47.9749 7.24047 48.4181C7.3649 48.9052 7.69139 49.3768 8.30865 49.5459C9.18271 49.7854 11.061 49.5577 12.3273 47.6624C12.585 47.2766 12.9409 46.7544 13.3466 46.3186C13.7845 45.8481 14.1312 45.6441 14.3449 45.6234L14.3484 45.6231L14.3519 45.6227C14.506 45.6063 14.7479 45.6187 14.9356 45.6882C15.0231 45.7206 15.072 45.7556 15.0968 45.7804C15.115 45.7987 15.131 45.8208 15.1407 45.8694C15.2615 46.4769 15.2783 47.459 15.245 48.5541C15.223 49.2778 15.1816 50.001 15.1444 50.6502C15.1421 50.6909 15.1398 50.7313 15.1375 50.7714C15.1127 51.2044 15.4461 51.5725 15.8793 51.5936C16.3124 51.6147 16.6815 51.2806 16.7062 50.8477C16.7076 50.8229 16.7091 50.798 16.7105 50.7729C16.7483 50.1121 16.7921 49.345 16.8147 48.6019C16.8478 47.5154 16.841 46.3673 16.6809 45.5629C16.529 44.7994 15.9733 44.3978 15.481 44.2155C15.01 44.0411 14.5143 44.0266 14.1892 44.0607C13.3574 44.1431 12.6653 44.7455 12.197 45.2486C11.6957 45.7872 11.2779 46.4063 11.0215 46.79C10.1989 48.0212 9.11064 48.0962 8.77584 48.0423C8.76893 48.0411 8.76379 48.0362 8.76206 48.0294C8.73064 47.9064 8.72505 47.6747 8.78715 47.324C8.90848 46.6388 9.22977 45.8061 9.51459 45.1927C9.9401 44.2762 9.69209 43.3804 9.06239 42.8628C8.47755 42.382 7.56507 42.2553 6.84449 42.7946C6.39472 43.1313 5.73861 43.5824 5.02501 43.8549C4.30749 44.1288 3.65176 44.1786 3.1008 43.8991C2.73749 43.7147 2.50751 43.2223 2.59821 42.2303Z" fill="#EB8282" stroke="#404040" stroke-width="0.4"/>
<path fill-rule="evenodd" clip-rule="evenodd" d="M40.4717 33.7848C39.9393 33.4385 39.2941 33.1602 38.7138 32.964C38.303 32.8251 38.0431 32.4023 38.1451 31.9808C38.2471 31.5593 38.6722 31.2987 39.0847 31.4325C39.7952 31.6631 40.6211 32.0086 41.3279 32.4682C42.2528 33.0697 43.2974 34.0938 43.0106 35.5219C42.7652 36.7438 41.8947 37.5402 41.0498 38.0447C40.2013 38.5513 39.2688 38.8316 38.69 38.9859C38.6104 39.0071 38.533 39.0879 38.5357 39.2203C38.5369 39.2769 38.555 39.3281 38.5905 39.3713C38.6238 39.4117 38.7012 39.4801 38.8778 39.522C39.5865 39.6903 40.5922 39.9911 41.3816 40.4147C41.7691 40.6227 42.178 40.8982 42.4559 41.2616C42.7613 41.6609 42.9295 42.2093 42.68 42.7987C42.3268 43.6333 40.985 44.9672 38.7126 44.7879C38.2501 44.7514 37.6197 44.7074 37.0263 44.7561C36.3857 44.8086 36.0109 44.9545 35.8622 45.1095L35.8598 45.1121L35.8573 45.1146C35.7491 45.2254 35.609 45.423 35.5473 45.6135C35.5186 45.7023 35.5157 45.7623 35.5199 45.7971C35.523 45.8228 35.5305 45.849 35.5626 45.8867C35.9648 46.3578 36.7256 46.9791 37.6061 47.6311C38.188 48.0619 38.7815 48.4772 39.3143 48.85C39.3477 48.8734 39.3808 48.8966 39.4137 48.9196C39.769 49.1683 39.8517 49.6581 39.6 50.0112C39.3483 50.3644 38.8575 50.4474 38.5022 50.1987C38.4819 50.1844 38.4614 50.1701 38.4408 50.1557C37.8986 49.7762 37.2691 49.3356 36.6716 48.8932C35.7981 48.2464 34.9007 47.5301 34.3682 46.9064C33.8627 46.3143 33.8915 45.6293 34.0532 45.1298C34.2079 44.652 34.5035 44.2538 34.7316 44.0196C35.3114 43.4175 36.2129 43.2471 36.8979 43.1909C37.6313 43.1307 38.3761 43.186 38.8362 43.2223C40.3123 43.3388 41.0451 42.5307 41.21 42.2344C41.2134 42.2283 41.2127 42.2212 41.2085 42.2156C41.1314 42.1148 40.9529 41.967 40.6391 41.7986C40.0259 41.4695 39.1731 41.2062 38.5151 41.05C37.532 40.8166 36.9821 40.0672 36.9656 39.2522C36.9502 38.4953 37.4158 37.7003 38.2855 37.4684C38.8283 37.3237 39.5888 37.0879 40.2446 36.6963C40.9041 36.3025 41.3492 35.8185 41.4709 35.2127C41.5511 34.8133 41.3069 34.3278 40.4717 33.7848Z" fill="#82B9EB" stroke="#404040" stroke-width="0.4"/>
<path fill-rule="evenodd" clip-rule="evenodd" d="M91.7804 14.7888C92.4246 13.5969 93.3884 12.4191 94.2585 11.5251C94.6436 11.1293 94.6762 10.498 94.3054 10.0887L93.6746 9.3925C93.3038 8.9832 92.6703 8.95068 92.2816 9.34301C91.2377 10.3966 90.0309 11.8436 89.1945 13.391C88.2125 15.2077 87.4123 17.8262 89.1622 19.9171C90.6594 21.7058 92.8032 22.2356 94.6437 22.3085C96.492 22.3817 98.2757 22.0077 99.3652 21.7432C99.5151 21.7068 99.7146 21.7704 99.8287 21.9904C99.8775 22.0845 99.8935 22.1848 99.8738 22.2877C99.8553 22.3839 99.7892 22.5656 99.5365 22.7926C98.522 23.7036 97.1384 25.0984 96.2199 26.5015C95.7691 27.1901 95.3437 28.0092 95.2121 28.8552C95.0676 29.7849 95.2821 30.837 96.2197 31.5825C97.5475 32.6382 100.947 33.6296 104.522 31.3007C105.25 30.8266 106.247 30.19 107.266 29.7387C108.366 29.2516 109.112 29.156 109.495 29.2777L109.502 29.2797L109.508 29.2816C109.785 29.3669 110.192 29.5663 110.464 29.8242C110.591 29.9444 110.649 30.0405 110.674 30.1015C110.692 30.1463 110.703 30.1962 110.684 30.2869C110.444 31.4214 109.75 33.1237 108.886 34.9837C108.315 36.2127 107.711 37.4268 107.169 38.5165C107.063 38.7296 106.96 38.9379 106.859 39.1407C106.614 39.6355 106.82 40.2338 107.317 40.4755L108.162 40.8866C108.658 41.1283 109.257 40.9219 109.503 40.4271C109.59 40.2508 109.681 40.0684 109.774 39.8808C110.326 38.7716 110.966 37.4839 111.552 36.2217C112.409 34.3765 113.243 32.3958 113.56 30.8938C113.861 29.468 113.2 28.3678 112.487 27.6916C111.805 27.0446 110.963 26.6546 110.378 26.4739C108.886 26.0033 107.252 26.5301 106.075 27.051C104.816 27.6086 103.641 28.3663 102.917 28.8378C100.595 30.3508 98.6674 29.6784 98.131 29.339C98.1199 29.332 98.1147 29.3197 98.1167 29.3067C98.1532 29.072 98.3142 28.6692 98.6793 28.1114C99.3927 27.0216 100.559 25.8254 101.501 24.9795C102.908 23.7158 103.141 21.9916 102.438 20.6372C101.786 19.3793 100.309 18.4893 98.6718 18.8867C97.6499 19.1348 96.1887 19.4279 94.7601 19.3713C93.3236 19.3144 92.1586 18.9172 91.4164 18.0304C90.927 17.4457 90.8938 16.429 91.7804 14.7888Z" fill="#82B9EB" stroke="#404040" stroke-width="0.4"/>
<path d="M227.826 7.23606C227.082 8.35226 227.93 10.9395 228.446 12.0936C227.619 11.3185 226.689 8.52797 227.309 7.08103C227.819 5.89243 229.48 5.70822 231.495 6.40923C232.942 6.91251 240.621 10.874 242.606 17.5713C243.122 19.3152 243.515 22.4495 240.952 22.5322C239.092 22.5922 234.988 21.1783 233.252 18.8632C232.62 17.7779 233.169 17.4455 234.802 17.0546C235.588 18.2948 237.576 19.5006 238.471 19.9485C241.572 21.4781 241.635 19.38 241.314 17.5713C240.561 13.3339 234.426 8.58179 232.219 7.44276C230.617 6.61597 228.57 6.11985 227.826 7.23606Z" fill="#FFEA2F" stroke="#404040" stroke-width="0.2"/>
<path d="M234 13.0786L233.809 16.0503L233.804 16.119L233.867 16.1476L236.575 17.3848L233.69 18.121L233.623 18.1381L233.615 18.2065L233.276 21.1649L231.684 18.6482L231.647 18.59L231.58 18.6037L228.661 19.1949L230.563 16.9033L230.607 16.8503L230.573 16.7903L229.109 14.1973L231.876 15.2977L231.94 15.3231L231.986 15.2724L234 13.0786Z" fill="#FFEA2F" stroke="#404040" stroke-width="0.2"/>
<mask id="path-12-outside-1" maskUnits="userSpaceOnUse" x="52" y="31" width="185" height="26" fill="black">
<rect fill="white" x="52" y="31" width="185" height="26"/>
<path d="M74.912 37.643C76.716 39.205 77.618 41.218 77.618 43.682C77.618 46.146 76.716 48.17 74.912 49.754C73.108 51.316 70.413 52.196 66.827 52.394V55.265H63.824V52.394C60.216 52.196 57.51 51.316 55.706 49.754C53.902 48.17 53 46.146 53 43.682C53 41.218 53.902 39.205 55.706 37.643C57.51 36.081 60.216 35.201 63.824 35.003V32H66.827V35.003C70.413 35.201 73.108 36.081 74.912 37.643ZM56.201 43.682C56.201 47.334 58.742 49.314 63.824 49.622V37.775C58.742 38.083 56.201 40.052 56.201 43.682ZM66.827 49.622C71.887 49.292 74.417 47.312 74.417 43.682C74.417 40.074 71.887 38.105 66.827 37.775V49.622Z"/>
<path d="M97.0447 55.265H93.8107V41.504L94.3717 39.689H93.4807L86.9467 55.265H80.5447V38.831H83.7457V52.526L83.1847 54.374H84.0757L90.6097 38.831H97.0447V55.265Z"/>
<path d="M113.185 38.831H116.419V55.265H113.185V48.401H104.242V55.265H101.041V38.831H104.242V45.629H113.185V38.831Z"/>
<path d="M120.426 50.711C120.426 47.895 122.296 46.267 126.036 45.827L132.339 45.167C132.207 42.483 130.744 41.141 127.95 41.141C126.696 41.141 125.662 41.46 124.848 42.098C124.034 42.714 123.627 43.671 123.627 44.969H120.525C120.525 43.121 121.196 41.581 122.538 40.349C123.88 39.117 125.684 38.501 127.95 38.501C130.26 38.501 132.097 39.172 133.461 40.514C134.847 41.856 135.54 43.671 135.54 45.959V52.493H137.949V55.265H134.88C134.242 55.265 133.736 55.089 133.362 54.737C133.01 54.385 132.834 53.879 132.834 53.219V52.46L133.329 50.711H132.471C131.657 53.967 129.501 55.595 126.003 55.595C124.859 55.595 123.891 55.43 123.099 55.1C122.307 54.77 121.735 54.33 121.383 53.78C121.031 53.23 120.778 52.713 120.624 52.229C120.492 51.745 120.426 51.239 120.426 50.711ZM123.627 50.249C123.627 51.085 123.88 51.723 124.386 52.163C124.914 52.603 125.607 52.823 126.465 52.823C128.225 52.823 129.644 52.317 130.722 51.305C131.8 50.271 132.339 48.973 132.339 47.411L126.597 48.005C125.563 48.137 124.804 48.368 124.32 48.698C123.858 49.028 123.627 49.545 123.627 50.249Z"/>
<path d="M155.753 38.831V55.265H152.519V41.603H146.678C146.656 43.231 146.612 44.584 146.546 45.662C146.502 46.74 146.403 47.851 146.249 48.995C146.118 50.117 145.897 51.03 145.589 51.734C145.303 52.416 144.929 53.054 144.467 53.648C144.027 54.22 143.455 54.638 142.751 54.902C142.069 55.144 141.255 55.265 140.309 55.265V52.493C141.739 52.493 142.619 51.547 142.949 49.655C143.301 47.763 143.477 44.155 143.477 38.831H155.753Z"/>
<path d="M159.742 47.015C159.742 44.529 160.556 42.494 162.184 40.91C163.812 39.304 165.935 38.501 168.553 38.501C171.149 38.501 173.261 39.304 174.889 40.91C176.517 42.494 177.331 44.529 177.331 47.015C177.331 49.523 176.517 51.58 174.889 53.186C173.261 54.792 171.149 55.595 168.553 55.595C165.935 55.595 163.812 54.803 162.184 53.219C160.556 51.613 159.742 49.545 159.742 47.015ZM162.943 47.015C162.943 48.731 163.438 50.128 164.428 51.206C165.418 52.284 166.793 52.823 168.553 52.823C170.291 52.823 171.644 52.284 172.612 51.206C173.602 50.128 174.097 48.731 174.097 47.015C174.097 45.321 173.602 43.946 172.612 42.89C171.644 41.812 170.291 41.273 168.553 41.273C166.793 41.273 165.418 41.812 164.428 42.89C163.438 43.946 162.943 45.321 162.943 47.015Z"/>
<path d="M193.213 38.831H196.414V55.265H193.213V49.325L183.049 49.985C181.465 50.073 180.673 49.292 180.673 47.642V38.831H183.874V47.18L193.213 46.553V38.831Z"/>
<path d="M215.459 55.265H211.796L206.417 48.335C206.065 48.379 205.779 48.401 205.559 48.401H204.305V55.265H201.104V38.831H204.305V45.563H205.658L209.75 40.052C210.344 39.238 211.213 38.831 212.357 38.831H215.03V41.603H212.357L208.727 46.421L215.459 55.265Z"/>
<path d="M217.847 50.711C217.847 47.895 219.717 46.267 223.457 45.827L229.76 45.167C229.628 42.483 228.165 41.141 225.371 41.141C224.117 41.141 223.083 41.46 222.269 42.098C221.455 42.714 221.048 43.671 221.048 44.969H217.946C217.946 43.121 218.617 41.581 219.959 40.349C221.301 39.117 223.105 38.501 225.371 38.501C227.681 38.501 229.518 39.172 230.882 40.514C232.268 41.856 232.961 43.671 232.961 45.959V52.493H235.37V55.265H232.301C231.663 55.265 231.157 55.089 230.783 54.737C230.431 54.385 230.255 53.879 230.255 53.219V52.46L230.75 50.711H229.892C229.078 53.967 226.922 55.595 223.424 55.595C222.28 55.595 221.312 55.43 220.52 55.1C219.728 54.77 219.156 54.33 218.804 53.78C218.452 53.23 218.199 52.713 218.045 52.229C217.913 51.745 217.847 51.239 217.847 50.711ZM221.048 50.249C221.048 51.085 221.301 51.723 221.807 52.163C222.335 52.603 223.028 52.823 223.886 52.823C225.646 52.823 227.065 52.317 228.143 51.305C229.221 50.271 229.76 48.973 229.76 47.411L224.018 48.005C222.984 48.137 222.225 48.368 221.741 48.698C221.279 49.028 221.048 49.545 221.048 50.249Z"/>
</mask>
<path d="M74.912 37.643C76.716 39.205 77.618 41.218 77.618 43.682C77.618 46.146 76.716 48.17 74.912 49.754C73.108 51.316 70.413 52.196 66.827 52.394V55.265H63.824V52.394C60.216 52.196 57.51 51.316 55.706 49.754C53.902 48.17 53 46.146 53 43.682C53 41.218 53.902 39.205 55.706 37.643C57.51 36.081 60.216 35.201 63.824 35.003V32H66.827V35.003C70.413 35.201 73.108 36.081 74.912 37.643ZM56.201 43.682C56.201 47.334 58.742 49.314 63.824 49.622V37.775C58.742 38.083 56.201 40.052 56.201 43.682ZM66.827 49.622C71.887 49.292 74.417 47.312 74.417 43.682C74.417 40.074 71.887 38.105 66.827 37.775V49.622Z" fill="#FF6060"/>
<path d="M97.0447 55.265H93.8107V41.504L94.3717 39.689H93.4807L86.9467 55.265H80.5447V38.831H83.7457V52.526L83.1847 54.374H84.0757L90.6097 38.831H97.0447V55.265Z" fill="#FF6060"/>
<path d="M113.185 38.831H116.419V55.265H113.185V48.401H104.242V55.265H101.041V38.831H104.242V45.629H113.185V38.831Z" fill="#FF6060"/>
<path d="M120.426 50.711C120.426 47.895 122.296 46.267 126.036 45.827L132.339 45.167C132.207 42.483 130.744 41.141 127.95 41.141C126.696 41.141 125.662 41.46 124.848 42.098C124.034 42.714 123.627 43.671 123.627 44.969H120.525C120.525 43.121 121.196 41.581 122.538 40.349C123.88 39.117 125.684 38.501 127.95 38.501C130.26 38.501 132.097 39.172 133.461 40.514C134.847 41.856 135.54 43.671 135.54 45.959V52.493H137.949V55.265H134.88C134.242 55.265 133.736 55.089 133.362 54.737C133.01 54.385 132.834 53.879 132.834 53.219V52.46L133.329 50.711H132.471C131.657 53.967 129.501 55.595 126.003 55.595C124.859 55.595 123.891 55.43 123.099 55.1C122.307 54.77 121.735 54.33 121.383 53.78C121.031 53.23 120.778 52.713 120.624 52.229C120.492 51.745 120.426 51.239 120.426 50.711ZM123.627 50.249C123.627 51.085 123.88 51.723 124.386 52.163C124.914 52.603 125.607 52.823 126.465 52.823C128.225 52.823 129.644 52.317 130.722 51.305C131.8 50.271 132.339 48.973 132.339 47.411L126.597 48.005C125.563 48.137 124.804 48.368 124.32 48.698C123.858 49.028 123.627 49.545 123.627 50.249Z" fill="#FF6060"/>
<path d="M155.753 38.831V55.265H152.519V41.603H146.678C146.656 43.231 146.612 44.584 146.546 45.662C146.502 46.74 146.403 47.851 146.249 48.995C146.118 50.117 145.897 51.03 145.589 51.734C145.303 52.416 144.929 53.054 144.467 53.648C144.027 54.22 143.455 54.638 142.751 54.902C142.069 55.144 141.255 55.265 140.309 55.265V52.493C141.739 52.493 142.619 51.547 142.949 49.655C143.301 47.763 143.477 44.155 143.477 38.831H155.753Z" fill="#FF6060"/>
<path d="M159.742 47.015C159.742 44.529 160.556 42.494 162.184 40.91C163.812 39.304 165.935 38.501 168.553 38.501C171.149 38.501 173.261 39.304 174.889 40.91C176.517 42.494 177.331 44.529 177.331 47.015C177.331 49.523 176.517 51.58 174.889 53.186C173.261 54.792 171.149 55.595 168.553 55.595C165.935 55.595 163.812 54.803 162.184 53.219C160.556 51.613 159.742 49.545 159.742 47.015ZM162.943 47.015C162.943 48.731 163.438 50.128 164.428 51.206C165.418 52.284 166.793 52.823 168.553 52.823C170.291 52.823 171.644 52.284 172.612 51.206C173.602 50.128 174.097 48.731 174.097 47.015C174.097 45.321 173.602 43.946 172.612 42.89C171.644 41.812 170.291 41.273 168.553 41.273C166.793 41.273 165.418 41.812 164.428 42.89C163.438 43.946 162.943 45.321 162.943 47.015Z" fill="#FF6060"/>
<path d="M193.213 38.831H196.414V55.265H193.213V49.325L183.049 49.985C181.465 50.073 180.673 49.292 180.673 47.642V38.831H183.874V47.18L193.213 46.553V38.831Z" fill="#FF6060"/>
<path d="M215.459 55.265H211.796L206.417 48.335C206.065 48.379 205.779 48.401 205.559 48.401H204.305V55.265H201.104V38.831H204.305V45.563H205.658L209.75 40.052C210.344 39.238 211.213 38.831 212.357 38.831H215.03V41.603H212.357L208.727 46.421L215.459 55.265Z" fill="#FF6060"/>
<path d="M217.847 50.711C217.847 47.895 219.717 46.267 223.457 45.827L229.76 45.167C229.628 42.483 228.165 41.141 225.371 41.141C224.117 41.141 223.083 41.46 222.269 42.098C221.455 42.714 221.048 43.671 221.048 44.969H217.946C217.946 43.121 218.617 41.581 219.959 40.349C221.301 39.117 223.105 38.501 225.371 38.501C227.681 38.501 229.518 39.172 230.882 40.514C232.268 41.856 232.961 43.671 232.961 45.959V52.493H235.37V55.265H232.301C231.663 55.265 231.157 55.089 230.783 54.737C230.431 54.385 230.255 53.879 230.255 53.219V52.46L230.75 50.711H229.892C229.078 53.967 226.922 55.595 223.424 55.595C222.28 55.595 221.312 55.43 220.52 55.1C219.728 54.77 219.156 54.33 218.804 53.78C218.452 53.23 218.199 52.713 218.045 52.229C217.913 51.745 217.847 51.239 217.847 50.711ZM221.048 50.249C221.048 51.085 221.301 51.723 221.807 52.163C222.335 52.603 223.028 52.823 223.886 52.823C225.646 52.823 227.065 52.317 228.143 51.305C229.221 50.271 229.76 48.973 229.76 47.411L224.018 48.005C222.984 48.137 222.225 48.368 221.741 48.698C221.279 49.028 221.048 49.545 221.048 50.249Z" fill="#FF6060"/>
<path d="M74.912 37.643C76.716 39.205 77.618 41.218 77.618 43.682C77.618 46.146 76.716 48.17 74.912 49.754C73.108 51.316 70.413 52.196 66.827 52.394V55.265H63.824V52.394C60.216 52.196 57.51 51.316 55.706 49.754C53.902 48.17 53 46.146 53 43.682C53 41.218 53.902 39.205 55.706 37.643C57.51 36.081 60.216 35.201 63.824 35.003V32H66.827V35.003C70.413 35.201 73.108 36.081 74.912 37.643ZM56.201 43.682C56.201 47.334 58.742 49.314 63.824 49.622V37.775C58.742 38.083 56.201 40.052 56.201 43.682ZM66.827 49.622C71.887 49.292 74.417 47.312 74.417 43.682C74.417 40.074 71.887 38.105 66.827 37.775V49.622Z" stroke="#404040" stroke-width="2" mask="url(#path-12-outside-1)"/>
<path d="M97.0447 55.265H93.8107V41.504L94.3717 39.689H93.4807L86.9467 55.265H80.5447V38.831H83.7457V52.526L83.1847 54.374H84.0757L90.6097 38.831H97.0447V55.265Z" stroke="#404040" stroke-width="2" mask="url(#path-12-outside-1)"/>
<path d="M113.185 38.831H116.419V55.265H113.185V48.401H104.242V55.265H101.041V38.831H104.242V45.629H113.185V38.831Z" stroke="#404040" stroke-width="2" mask="url(#path-12-outside-1)"/>
<path d="M120.426 50.711C120.426 47.895 122.296 46.267 126.036 45.827L132.339 45.167C132.207 42.483 130.744 41.141 127.95 41.141C126.696 41.141 125.662 41.46 124.848 42.098C124.034 42.714 123.627 43.671 123.627 44.969H120.525C120.525 43.121 121.196 41.581 122.538 40.349C123.88 39.117 125.684 38.501 127.95 38.501C130.26 38.501 132.097 39.172 133.461 40.514C134.847 41.856 135.54 43.671 135.54 45.959V52.493H137.949V55.265H134.88C134.242 55.265 133.736 55.089 133.362 54.737C133.01 54.385 132.834 53.879 132.834 53.219V52.46L133.329 50.711H132.471C131.657 53.967 129.501 55.595 126.003 55.595C124.859 55.595 123.891 55.43 123.099 55.1C122.307 54.77 121.735 54.33 121.383 53.78C121.031 53.23 120.778 52.713 120.624 52.229C120.492 51.745 120.426 51.239 120.426 50.711ZM123.627 50.249C123.627 51.085 123.88 51.723 124.386 52.163C124.914 52.603 125.607 52.823 126.465 52.823C128.225 52.823 129.644 52.317 130.722 51.305C131.8 50.271 132.339 48.973 132.339 47.411L126.597 48.005C125.563 48.137 124.804 48.368 124.32 48.698C123.858 49.028 123.627 49.545 123.627 50.249Z" stroke="#404040" stroke-width="2" mask="url(#path-12-outside-1)"/>
<path d="M155.753 38.831V55.265H152.519V41.603H146.678C146.656 43.231 146.612 44.584 146.546 45.662C146.502 46.74 146.403 47.851 146.249 48.995C146.118 50.117 145.897 51.03 145.589 51.734C145.303 52.416 144.929 53.054 144.467 53.648C144.027 54.22 143.455 54.638 142.751 54.902C142.069 55.144 141.255 55.265 140.309 55.265V52.493C141.739 52.493 142.619 51.547 142.949 49.655C143.301 47.763 143.477 44.155 143.477 38.831H155.753Z" stroke="#404040" stroke-width="2" mask="url(#path-12-outside-1)"/>
<path d="M159.742 47.015C159.742 44.529 160.556 42.494 162.184 40.91C163.812 39.304 165.935 38.501 168.553 38.501C171.149 38.501 173.261 39.304 174.889 40.91C176.517 42.494 177.331 44.529 177.331 47.015C177.331 49.523 176.517 51.58 174.889 53.186C173.261 54.792 171.149 55.595 168.553 55.595C165.935 55.595 163.812 54.803 162.184 53.219C160.556 51.613 159.742 49.545 159.742 47.015ZM162.943 47.015C162.943 48.731 163.438 50.128 164.428 51.206C165.418 52.284 166.793 52.823 168.553 52.823C170.291 52.823 171.644 52.284 172.612 51.206C173.602 50.128 174.097 48.731 174.097 47.015C174.097 45.321 173.602 43.946 172.612 42.89C171.644 41.812 170.291 41.273 168.553 41.273C166.793 41.273 165.418 41.812 164.428 42.89C163.438 43.946 162.943 45.321 162.943 47.015Z" stroke="#404040" stroke-width="2" mask="url(#path-12-outside-1)"/>
<path d="M193.213 38.831H196.414V55.265H193.213V49.325L183.049 49.985C181.465 50.073 180.673 49.292 180.673 47.642V38.831H183.874V47.18L193.213 46.553V38.831Z" stroke="#404040" stroke-width="2" mask="url(#path-12-outside-1)"/>
<path d="M215.459 55.265H211.796L206.417 48.335C206.065 48.379 205.779 48.401 205.559 48.401H204.305V55.265H201.104V38.831H204.305V45.563H205.658L209.75 40.052C210.344 39.238 211.213 38.831 212.357 38.831H215.03V41.603H212.357L208.727 46.421L215.459 55.265Z" stroke="#404040" stroke-width="2" mask="url(#path-12-outside-1)"/>
<path d="M217.847 50.711C217.847 47.895 219.717 46.267 223.457 45.827L229.76 45.167C229.628 42.483 228.165 41.141 225.371 41.141C224.117 41.141 223.083 41.46 222.269 42.098C221.455 42.714 221.048 43.671 221.048 44.969H217.946C217.946 43.121 218.617 41.581 219.959 40.349C221.301 39.117 223.105 38.501 225.371 38.501C227.681 38.501 229.518 39.172 230.882 40.514C232.268 41.856 232.961 43.671 232.961 45.959V52.493H235.37V55.265H232.301C231.663 55.265 231.157 55.089 230.783 54.737C230.431 54.385 230.255 53.879 230.255 53.219V52.46L230.75 50.711H229.892C229.078 53.967 226.922 55.595 223.424 55.595C222.28 55.595 221.312 55.43 220.52 55.1C219.728 54.77 219.156 54.33 218.804 53.78C218.452 53.23 218.199 52.713 218.045 52.229C217.913 51.745 217.847 51.239 217.847 50.711ZM221.048 50.249C221.048 51.085 221.301 51.723 221.807 52.163C222.335 52.603 223.028 52.823 223.886 52.823C225.646 52.823 227.065 52.317 228.143 51.305C229.221 50.271 229.76 48.973 229.76 47.411L224.018 48.005C222.984 48.137 222.225 48.368 221.741 48.698C221.279 49.028 221.048 49.545 221.048 50.249Z" stroke="#404040" stroke-width="2" mask="url(#path-12-outside-1)"/>
<path fill-rule="evenodd" clip-rule="evenodd" d="M269.526 63.5517C269.109 62.1813 268.348 60.7554 267.625 59.648C267.317 59.1767 267.418 58.5377 267.878 58.2138L268.806 57.5606C269.249 57.2486 269.862 57.3451 270.163 57.7956C271.041 59.1077 272.015 60.8814 272.561 62.6788C273.192 64.7521 273.453 67.6075 271.144 69.3712C269.169 70.88 266.793 70.9593 264.838 70.6362C262.874 70.3116 261.078 69.5429 259.989 69.0365C259.839 68.9668 259.615 68.9888 259.446 69.1895C259.373 69.2753 259.334 69.3746 259.332 69.4843C259.33 69.5869 259.359 69.7872 259.575 70.0744C260.442 71.227 261.589 72.955 262.245 74.5909C262.567 75.3938 262.833 76.3248 262.783 77.2199C262.729 78.2036 262.269 79.235 261.116 79.7961C259.482 80.5906 255.68 80.8713 252.431 77.7127C251.77 77.0698 250.861 76.2021 249.888 75.5196C248.837 74.7828 248.072 74.5233 247.641 74.5652L247.634 74.5659L247.627 74.5665C247.316 74.594 246.843 74.7103 246.499 74.9157C246.339 75.0114 246.256 75.0973 246.217 75.1545C246.188 75.1965 246.165 75.2452 246.165 75.3423C246.165 76.5562 246.518 78.4503 247.015 80.5423C247.343 81.9248 247.709 83.299 248.038 84.5326C248.105 84.7858 248.171 85.0331 248.235 85.2734C248.378 85.8122 248.049 86.3612 247.507 86.4929L246.38 86.7669C245.848 86.8961 245.311 86.5742 245.171 86.0454C245.113 85.8273 245.053 85.6007 244.991 85.3672C244.656 84.1117 244.268 82.6541 243.931 81.2344C243.438 79.1589 243 76.9495 243 75.3423C243 73.8166 243.941 72.8323 244.842 72.2937C245.704 71.7783 246.678 71.5609 247.335 71.5021C249.011 71.3425 250.616 72.2355 251.74 73.0234C252.942 73.8669 254.012 74.897 254.669 75.5365C256.78 77.589 258.961 77.3162 259.601 77.0845C259.614 77.0798 259.622 77.0683 259.623 77.0546C259.637 76.8063 259.557 76.3588 259.296 75.7085C258.787 74.4379 257.824 72.9603 257.02 71.8902C255.818 70.2915 255.956 68.4749 256.997 67.2391C257.964 66.0915 259.718 65.499 261.355 66.2601C262.376 66.7351 263.85 67.3512 265.368 67.6021C266.894 67.8543 268.21 67.6992 269.189 66.9512C269.835 66.4579 270.096 65.4236 269.526 63.5517Z" fill="#8293EB" stroke="#404040" stroke-width="0.4"/>
<path fill-rule="evenodd" clip-rule="evenodd" d="M186.568 29.5862C186.308 28.731 185.856 27.8449 185.403 27.1135C185.106 26.6352 185.207 25.9962 185.667 25.6723L185.825 25.5606C186.268 25.2486 186.882 25.3453 187.174 25.8014C187.744 26.6896 188.343 27.8254 188.693 28.9751C189.134 30.4265 189.317 32.4253 187.701 33.6598C186.319 34.716 184.655 34.7715 183.286 34.5453C181.912 34.3182 180.655 33.78 179.892 33.4255C179.787 33.3768 179.63 33.3921 179.512 33.5327C179.461 33.5927 179.434 33.6622 179.433 33.739C179.431 33.8108 179.452 33.9511 179.603 34.1521C180.209 34.9589 181.012 36.1685 181.471 37.3136C181.697 37.8756 181.883 38.5274 181.848 39.1539C181.81 39.8425 181.488 40.5645 180.681 40.9573C179.537 41.5134 176.876 41.7099 174.602 39.4989C174.139 39.0489 173.503 38.4414 172.822 37.9637C172.086 37.4479 171.55 37.2663 171.249 37.2957L171.244 37.2961L171.239 37.2966C171.021 37.3158 170.69 37.3972 170.449 37.541C170.337 37.608 170.279 37.6681 170.252 37.7081C170.232 37.7376 170.216 37.7717 170.216 37.8396C170.216 38.6893 170.463 40.0152 170.81 41.4796C171.04 42.4474 171.296 43.4093 171.527 44.2728C171.547 44.3485 171.567 44.4234 171.586 44.4976C171.73 45.0362 171.401 45.5852 170.86 45.7168L170.654 45.7669C170.122 45.8961 169.584 45.5743 169.444 45.0456C169.427 44.9835 169.41 44.9206 169.393 44.857C169.159 43.9782 168.887 42.9579 168.651 41.9641C168.307 40.5112 168 38.9646 168 37.8396C168 36.7717 168.658 36.0826 169.289 35.7056C169.893 35.3448 170.575 35.1926 171.034 35.1515C172.208 35.0397 173.331 35.6649 174.118 36.2164C174.96 36.8068 175.708 37.5279 176.169 37.9755C177.646 39.4123 179.173 39.2213 179.621 39.0591C179.63 39.0559 179.636 39.0478 179.636 39.0383C179.646 38.8644 179.59 38.5512 179.407 38.0959C179.051 37.2065 178.377 36.1722 177.814 35.4232C176.973 34.304 177.069 33.0324 177.798 32.1674C178.475 31.364 179.703 30.9493 180.848 31.482C181.563 31.8145 182.595 32.2459 183.658 32.4214C184.726 32.598 185.647 32.4895 186.332 31.9658C186.784 31.6206 186.967 30.8966 186.568 29.5862Z" fill="#82EB86" stroke="#404040" stroke-width="0.4"/>
<path d="M203.682 14.8589L199.822 15.4507L199.5 15.5L200.217 19.6695L204.399 19.0284L203.682 14.8589Z" fill="#82B9EB"/>
<path d="M215 26.5L211.14 27.0918L210.818 27.1411L211.535 31.3106L215.717 30.6695L215 26.5Z" fill="#82B9EB"/>
<path d="M187.973 66.5244L184.113 67.1162L183.791 67.1655L184.508 71.335L188.69 70.6939L187.973 66.5244Z" fill="#82B9EB"/>
<path d="M203.682 14.8589L199.822 15.4507L199.5 15.5L200.217 19.6695L204.399 19.0284L203.682 14.8589Z" stroke="#404040" stroke-width="0.4"/>
<path d="M215 26.5L211.14 27.0918L210.818 27.1411L211.535 31.3106L215.717 30.6695L215 26.5Z" stroke="#404040" stroke-width="0.4"/>
<path d="M187.973 66.5244L184.113 67.1162L183.791 67.1655L184.508 71.335L188.69 70.6939L187.973 66.5244Z" stroke="#404040" stroke-width="0.4"/>
<path d="M68.4226 18.7642L72.2828 19.356L72.6045 19.4053L71.8875 23.5748L67.7056 22.9337L68.4226 18.7642Z" fill="#82EB86"/>
<path d="M57.1044 30.4053L60.9646 30.997L61.2863 31.0463L60.5692 35.2158L56.3874 34.5748L57.1044 30.4053Z" fill="#82EB86"/>
<path d="M81.8145 57L85.6746 57.5918L85.9963 57.6411L85.2793 61.8106L81.0974 61.1695L81.8145 57Z" fill="#82EB86"/>
<path d="M68.4226 18.7642L72.2828 19.356L72.6045 19.4053L71.8875 23.5748L67.7056 22.9337L68.4226 18.7642Z" stroke="#404040" stroke-width="0.4"/>
<path d="M57.1044 30.4053L60.9646 30.997L61.2863 31.0463L60.5692 35.2158L56.3874 34.5748L57.1044 30.4053Z" stroke="#404040" stroke-width="0.4"/>
<path d="M81.8145 57L85.6746 57.5918L85.9963 57.6411L85.2793 61.8106L81.0974 61.1695L81.8145 57Z" stroke="#404040" stroke-width="0.4"/>
</g>
<defs>
<clipPath id="clip0">
<rect width="288" height="88" fill="white"/>
</clipPath>
</defs>
</svg>
