<svg width="260" height="210" viewBox="0 0 260 210" fill="none" xmlns="http://www.w3.org/2000/svg">
<g clip-path="url(#clip0)">
<path d="M90.2221 9.55956C147.59 4.78513 134.42 31.3063 178.822 60.7973C223.225 90.2883 251.494 99.7683 226.873 147.962C218.941 163.49 203.1 174.352 184 180.609C170.87 184.909 156.2 187.033 141.5 187C126.986 186.966 112.443 184.83 99.3245 180.609C81.5876 174.902 66.4536 165.383 57.5146 152.1C16.0071 90.4188 47.2657 13.1346 90.2221 9.55956Z" fill="url(#paint0_linear)"/>
<path d="M32.4629 169.794C31.0885 160.001 31.4484 150.933 33.1237 144.195C33.9617 140.825 35.1226 138.063 36.5388 136.087C37.954 134.112 39.5953 132.958 41.3999 132.704C43.2046 132.45 45.0999 133.106 47.004 134.614C48.9094 136.123 50.7854 138.457 52.5187 141.466C55.9838 147.48 58.8257 156.097 60.2001 165.89C61.5745 175.683 61.2146 184.751 59.5393 191.489C58.7012 194.859 57.5404 197.621 56.1242 199.597C54.7089 201.572 53.0677 202.726 51.263 202.98C49.4584 203.234 47.563 202.578 45.659 201.07C43.7536 199.561 41.8775 197.227 40.1443 194.218C36.6792 188.204 33.8372 179.586 32.4629 169.794Z" fill="#90F9E0" stroke="#404040"/>
<path d="M5.83663 173.542C4.46227 163.749 4.82213 154.681 6.49748 147.943C7.33551 144.573 8.49635 141.811 9.91256 139.835C11.3278 137.86 12.969 136.706 14.7737 136.452C16.5784 136.198 18.4737 136.854 20.3778 138.362C22.2831 139.871 24.1592 142.205 25.8925 145.214C29.3576 151.228 32.1995 159.846 33.5739 169.638C34.9482 179.431 34.5884 188.499 32.913 195.237C32.075 198.607 30.9142 201.369 29.498 203.345C28.0827 205.32 26.4415 206.475 24.6368 206.728C22.8321 206.982 20.9368 206.326 19.0327 204.818C17.1274 203.309 15.2513 200.975 13.5181 197.966C10.0529 191.952 7.211 183.335 5.83663 173.542Z" fill="#90F9E0" stroke="#404040"/>
<ellipse rx="5.30681" ry="12.4692" transform="matrix(-0.990242 0.139362 -0.138985 -0.990295 54.7395 166.659)" fill="#404040"/>
<ellipse rx="5.6606" ry="12.4692" transform="matrix(-0.990242 0.139362 -0.138985 -0.990295 28.4641 170.357)" fill="#404040"/>
<g filter="url(#filter0_f)">
<ellipse rx="1.41515" ry="1.42506" transform="matrix(-0.990242 0.139362 -0.138985 -0.990295 53.7308 172.198)" fill="white"/>
</g>
<g filter="url(#filter1_f)">
<ellipse rx="1.41515" ry="1.42506" transform="matrix(-0.990242 0.139362 -0.138985 -0.990295 27.0062 175.239)" fill="white"/>
</g>
<path d="M227.878 170.548C229.252 160.756 228.892 151.688 227.217 144.95C226.379 141.579 225.218 138.818 223.802 136.841C222.387 134.866 220.746 133.712 218.941 133.458C217.136 133.204 215.241 133.861 213.337 135.369C211.431 136.877 209.555 139.212 207.822 142.22C204.357 148.235 201.515 156.852 200.141 166.645C198.766 176.437 199.126 185.505 200.802 192.243C201.64 195.614 202.8 198.375 204.217 200.352C205.632 202.327 207.273 203.481 209.078 203.735C210.882 203.989 212.778 203.332 214.682 201.825C216.587 200.316 218.463 197.981 220.197 194.973C223.662 188.958 226.504 180.341 227.878 170.548Z" fill="#90F9E0" stroke="#404040"/>
<path d="M254.504 174.297C255.878 164.504 255.519 155.436 253.843 148.698C253.005 145.328 251.844 142.566 250.428 140.59C249.013 138.615 247.372 137.46 245.567 137.206C243.762 136.953 241.867 137.609 239.963 139.117C238.058 140.626 236.182 142.96 234.448 145.968C230.983 151.983 228.141 160.6 226.767 170.393C225.393 180.186 225.752 189.254 227.428 195.992C228.266 199.362 229.427 202.124 230.843 204.1C232.258 206.075 233.899 207.229 235.704 207.483C237.509 207.737 239.404 207.081 241.308 205.573C243.213 204.064 245.089 201.73 246.823 198.721C250.288 192.707 253.13 184.089 254.504 174.297Z" fill="#90F9E0" stroke="#404040"/>
<ellipse rx="5.30681" ry="12.4692" transform="matrix(0.990242 0.139362 0.138985 -0.990295 205.601 167.414)" fill="#404040"/>
<ellipse rx="5.6606" ry="12.4692" transform="matrix(0.990242 0.139362 0.138985 -0.990295 231.877 171.112)" fill="#404040"/>
<g filter="url(#filter2_f)">
<ellipse rx="1.41515" ry="1.42506" transform="matrix(0.990242 0.139362 0.138985 -0.990295 206.61 172.953)" fill="white"/>
</g>
<g filter="url(#filter3_f)">
<ellipse rx="1.41515" ry="1.42506" transform="matrix(0.990242 0.139362 0.138985 -0.990295 233.335 175.994)" fill="white"/>
</g>
<path d="M227.223 39.6958C228.598 49.4885 228.238 58.5565 226.562 65.2945C225.724 68.6649 224.563 71.4266 223.147 73.403C221.732 75.378 220.091 76.5322 218.286 76.7862C216.481 77.0401 214.586 76.3837 212.682 74.8758C210.776 73.3669 208.9 71.0326 207.167 68.0241C203.702 62.0096 200.86 53.3921 199.486 43.5994C198.111 33.8067 198.471 24.7387 200.146 18.0007C200.985 14.6303 202.145 11.8686 203.562 9.8922C204.977 7.91717 206.618 6.76302 208.423 6.50904C210.227 6.25506 212.123 6.91147 214.027 8.41936C215.932 9.92828 217.808 12.2626 219.542 15.2711C223.007 21.2856 225.849 29.9031 227.223 39.6958Z" fill="#90F9E0" stroke="#404040"/>
<path d="M253.85 35.948C255.224 45.7407 254.864 54.8087 253.189 61.5467C252.351 64.9171 251.19 67.6788 249.774 69.6552C248.359 71.6302 246.717 72.7844 244.913 73.0384C243.108 73.2923 241.213 72.6359 239.308 71.128C237.403 69.6191 235.527 67.2848 233.794 64.2763C230.329 58.2618 227.487 49.6443 226.112 39.8516C224.738 30.0589 225.098 20.9909 226.773 14.2529C227.611 10.8825 228.772 8.12078 230.188 6.1444C231.604 4.16937 233.245 3.01522 235.049 2.76124C236.854 2.50725 238.75 3.16367 240.654 4.67155C242.559 6.18047 244.435 8.51479 246.168 11.5233C249.633 17.5378 252.475 26.1553 253.85 35.948Z" fill="#90F9E0" stroke="#404040"/>
<ellipse rx="5.30688" ry="12.4693" transform="matrix(0.990241 -0.139362 0.138985 0.990295 204.946 42.8307)" fill="#404040"/>
<ellipse rx="5.66067" ry="12.4693" transform="matrix(0.990241 -0.139362 0.138985 0.990295 231.224 39.1322)" fill="#404040"/>
<g filter="url(#filter4_f)">
<ellipse rx="1.41517" ry="1.42507" transform="matrix(0.990241 -0.139362 0.138985 0.990295 205.955 37.2921)" fill="white"/>
</g>
<g filter="url(#filter5_f)">
<ellipse rx="1.41517" ry="1.42507" transform="matrix(0.990241 -0.139362 0.138985 0.990295 232.678 34.2509)" fill="white"/>
</g>
<path d="M32.1234 39.4509C30.749 49.2436 31.1089 58.3117 32.7842 65.0496C33.6223 68.42 34.7831 71.1817 36.1993 73.1581C37.6146 75.1332 39.2559 76.2873 41.0606 76.5413C42.8652 76.7953 44.7606 76.1388 46.6647 74.631C48.5701 73.122 50.4461 70.7877 52.1794 67.7792C55.6446 61.7647 58.4866 53.1473 59.8609 43.3546C61.2353 33.5618 60.8754 24.4938 59.2001 17.7558C58.362 14.3854 57.2012 11.6237 55.7849 9.64733C54.3697 7.6723 52.7284 6.51815 50.9237 6.26417C49.119 6.01018 47.2237 6.6666 45.3196 8.17448C43.4142 9.6834 41.5381 12.0177 39.8048 15.0262C36.3397 21.0408 33.4977 29.6582 32.1234 39.4509Z" fill="#90F9E0" stroke="#404040"/>
<path d="M5.49664 35.7031C4.12227 45.4958 4.48214 54.5639 6.15752 61.3018C6.99555 64.6722 8.15641 67.4339 9.57264 69.4103C10.9879 71.3853 12.6292 72.5395 14.4338 72.7935C16.2385 73.0475 18.1339 72.391 20.038 70.8832C21.9434 69.3742 23.8194 67.0399 25.5527 64.0314C29.0179 58.0169 31.8598 49.3995 33.2342 39.6067C34.6086 29.814 34.2487 20.746 32.5733 14.008C31.7353 10.6376 30.5744 7.87591 29.1582 5.89952C27.743 3.92449 26.1017 2.77035 24.297 2.51636C22.4923 2.26238 20.597 2.9188 18.6929 4.42668C16.7875 5.9356 14.9114 8.26991 13.1781 11.2784C9.71299 17.293 6.87102 25.9104 5.49664 35.7031Z" fill="#90F9E0" stroke="#404040"/>
<ellipse rx="5.30688" ry="12.4693" transform="matrix(-0.990241 -0.139362 -0.138985 0.990295 54.4005 42.5858)" fill="#404040"/>
<ellipse rx="5.66067" ry="12.4693" transform="matrix(-0.990241 -0.139362 -0.138985 0.990295 28.1228 38.8871)" fill="#404040"/>
<g filter="url(#filter6_f)">
<ellipse rx="1.41517" ry="1.42507" transform="matrix(-0.990241 -0.139362 -0.138985 0.990295 53.3914 37.047)" fill="white"/>
</g>
<g filter="url(#filter7_f)">
<ellipse rx="1.41517" ry="1.42507" transform="matrix(-0.990241 -0.139362 -0.138985 0.990295 26.6681 34.006)" fill="white"/>
</g>
<path d="M89.2359 53.0107L128.881 47.9998L168.939 53.8459L190 79.736L128.881 162L69.0004 79.736L89.2359 53.0107Z" fill="#59D3FA"/>
<path d="M89.2359 53.0107L128.881 47.9998L168.939 53.8459M89.2359 53.0107L128.881 62.1976M89.2359 53.0107L104.103 90.5932M89.2359 53.0107L69.0004 79.736M168.939 53.8459L128.881 62.1976M168.939 53.8459L154.898 90.5932M168.939 53.8459L190 79.736M128.881 62.1976L104.103 90.5932M128.881 62.1976L154.898 90.5932M104.103 90.5932L69.0004 79.736M104.103 90.5932H154.898M104.103 90.5932L128.881 162M69.0004 79.736L128.881 162M154.898 90.5932L190 79.736M154.898 90.5932L128.881 162M190 79.736L128.881 162" stroke="#404040"/>
</g>
<defs>
<filter id="filter0_f" x="50.3153" y="168.773" width="6.83089" height="6.85023" filterUnits="userSpaceOnUse" color-interpolation-filters="sRGB">
<feFlood flood-opacity="0" result="BackgroundImageFix"/>
<feBlend mode="normal" in="SourceGraphic" in2="BackgroundImageFix" result="shape"/>
<feGaussianBlur stdDeviation="1" result="effect1_foregroundBlur"/>
</filter>
<filter id="filter1_f" x="23.5907" y="171.814" width="6.83089" height="6.85023" filterUnits="userSpaceOnUse" color-interpolation-filters="sRGB">
<feFlood flood-opacity="0" result="BackgroundImageFix"/>
<feBlend mode="normal" in="SourceGraphic" in2="BackgroundImageFix" result="shape"/>
<feGaussianBlur stdDeviation="1" result="effect1_foregroundBlur"/>
</filter>
<filter id="filter2_f" x="203.195" y="169.528" width="6.83089" height="6.85023" filterUnits="userSpaceOnUse" color-interpolation-filters="sRGB">
<feFlood flood-opacity="0" result="BackgroundImageFix"/>
<feBlend mode="normal" in="SourceGraphic" in2="BackgroundImageFix" result="shape"/>
<feGaussianBlur stdDeviation="1" result="effect1_foregroundBlur"/>
</filter>
<filter id="filter3_f" x="229.919" y="172.569" width="6.83089" height="6.85023" filterUnits="userSpaceOnUse" color-interpolation-filters="sRGB">
<feFlood flood-opacity="0" result="BackgroundImageFix"/>
<feBlend mode="normal" in="SourceGraphic" in2="BackgroundImageFix" result="shape"/>
<feGaussianBlur stdDeviation="1" result="effect1_foregroundBlur"/>
</filter>
<filter id="filter4_f" x="202.54" y="33.8669" width="6.83092" height="6.85025" filterUnits="userSpaceOnUse" color-interpolation-filters="sRGB">
<feFlood flood-opacity="0" result="BackgroundImageFix"/>
<feBlend mode="normal" in="SourceGraphic" in2="BackgroundImageFix" result="shape"/>
<feGaussianBlur stdDeviation="1" result="effect1_foregroundBlur"/>
</filter>
<filter id="filter5_f" x="229.263" y="30.8257" width="6.83092" height="6.85025" filterUnits="userSpaceOnUse" color-interpolation-filters="sRGB">
<feFlood flood-opacity="0" result="BackgroundImageFix"/>
<feBlend mode="normal" in="SourceGraphic" in2="BackgroundImageFix" result="shape"/>
<feGaussianBlur stdDeviation="1" result="effect1_foregroundBlur"/>
</filter>
<filter id="filter6_f" x="49.9759" y="33.6218" width="6.83092" height="6.85025" filterUnits="userSpaceOnUse" color-interpolation-filters="sRGB">
<feFlood flood-opacity="0" result="BackgroundImageFix"/>
<feBlend mode="normal" in="SourceGraphic" in2="BackgroundImageFix" result="shape"/>
<feGaussianBlur stdDeviation="1" result="effect1_foregroundBlur"/>
</filter>
<filter id="filter7_f" x="23.2526" y="30.5808" width="6.83092" height="6.85025" filterUnits="userSpaceOnUse" color-interpolation-filters="sRGB">
<feFlood flood-opacity="0" result="BackgroundImageFix"/>
<feBlend mode="normal" in="SourceGraphic" in2="BackgroundImageFix" result="shape"/>
<feGaussianBlur stdDeviation="1" result="effect1_foregroundBlur"/>
</filter>
<linearGradient id="paint0_linear" x1="96" y1="13.5" x2="165.5" y2="193.5" gradientUnits="userSpaceOnUse">
<stop offset="0.233753" stop-color="#C29EFF"/>
<stop offset="1" stop-color="#E6CCFF"/>
</linearGradient>
<clipPath id="clip0">
<rect width="260" height="210" fill="white" transform="translate(0.000427246 -0.000244141)"/>
</clipPath>
</defs>
</svg>
