<svg width="260" height="210" viewBox="0 0 260 210" fill="none" xmlns="http://www.w3.org/2000/svg">
<path d="M129.722 59.5679C128.599 66.9716 126.367 73.4665 123.685 77.981C122.343 80.2394 120.902 81.9796 119.451 83.0948C118.002 84.2088 116.581 84.6732 115.246 84.4707C113.91 84.2682 112.691 83.4034 111.637 81.9098C110.582 80.4147 109.722 78.3255 109.11 75.7708C107.887 70.664 107.681 63.7993 108.803 56.3956C109.926 48.9919 112.158 42.4969 114.841 37.9824C116.182 35.724 117.624 33.9839 119.074 32.8687C120.523 31.7546 121.944 31.2902 123.28 31.4927C124.615 31.6953 125.835 32.5601 126.888 34.0537C127.943 35.5488 128.803 37.638 129.415 40.1927C130.639 45.2995 130.845 52.1642 129.722 59.5679Z" fill="#90F9E0" stroke="#404040"/>
<path d="M150.026 62.647C148.903 70.0507 146.671 76.5456 143.989 81.0601C142.647 83.3185 141.206 85.0587 139.755 86.1739C138.306 87.2879 136.885 87.7523 135.55 87.5498C134.215 87.3473 132.995 86.4825 131.941 84.9889C130.887 83.4938 130.026 81.4046 129.414 78.8499C128.191 73.7431 127.985 66.8784 129.108 59.4747C130.23 52.071 132.463 45.576 135.145 41.0616C136.487 38.8031 137.928 37.063 139.378 35.9478C140.828 34.8337 142.249 34.3693 143.584 34.5718C144.919 34.7744 146.139 35.6392 147.192 37.1328C148.247 38.6279 149.108 40.7171 149.72 43.2718C150.943 48.3786 151.149 55.2433 150.026 62.647Z" fill="#90F9E0" stroke="#404040"/>
<ellipse cx="112.284" cy="56.9052" rx="4.05325" ry="9.45757" transform="rotate(8.62316 112.284 56.9052)" fill="#404040"/>
<ellipse cx="132.888" cy="60.048" rx="4.32346" ry="9.45757" transform="rotate(8.62316 132.888 60.048)" fill="#404040"/>
<g filter="url(#filter0_f)">
<circle cx="114.794" cy="53.2045" r="1.08087" transform="rotate(8.62316 114.794 53.2045)" fill="white"/>
</g>
<g filter="url(#filter1_f)">
<circle cx="135.018" cy="56.818" r="1.08087" transform="rotate(8.62316 135.018 56.818)" fill="white"/>
</g>
<path d="M216.156 149.976C224.849 143.976 228 129.757 228 115.408C228 108.535 226.635 104.455 224.358 102.038C222.226 99.9506 217.786 99.8637 213.983 102.038L161.718 133.562C154.416 138.866 153.351 158.237 153.351 167.586C154.108 178.122 157.598 183.04 161.283 184.032C162.677 184.408 164.1 184.222 165.412 183.565L216.156 149.976Z" fill="#FFFA8A"/>
<path d="M138.682 135.192C140.16 135.401 142.702 136.062 142.702 137.04V141.715V181.283L161.283 184.032C157.598 183.04 154.108 178.122 153.351 167.586C153.351 158.237 154.416 138.866 161.718 133.562L213.983 102.038C217.786 99.8637 222.226 99.9506 224.358 102.038C221.377 98.8737 216.835 98.5592 211.749 98.5592L201.27 105.299C201.089 105.444 200.509 105.69 199.64 105.516C198.771 105.342 197.829 105.299 197.467 105.299L185.297 111.821C184.79 112.002 183.384 112.386 181.82 112.473C180.255 112.56 172.62 113.452 168.998 113.886C168.273 113.959 166.542 113.995 165.412 113.56L140.312 128.235C139.529 128.757 136.943 132.814 135.748 134.777L138.682 135.192Z" fill="#FFFA8A"/>
<path d="M124.882 133.241L122.817 132.949L67.6183 125.144L66.3144 124.96L52.7319 123.039L46.4297 122.148C43.4741 121.73 41.5038 122.264 40.888 122.583L39.3668 123.235C38.4975 123.67 37.7369 124.626 37.7369 126.279C37.8093 139.178 36.672 167.695 31.5433 178.565C31.3622 178.855 31 179.891 31 180.413C31 181.065 31.1087 181.391 31.4346 181.5C31.6954 181.587 96.4493 192.407 128.794 197.806C129.917 198.023 132.423 198.24 133.466 197.371C134.509 196.501 139.841 191.646 142.376 189.327C142.485 189.182 142.702 188.718 142.702 188.022V181.283V141.715V137.04C142.702 136.062 140.16 135.401 138.682 135.192L135.748 134.777L124.882 133.241Z" fill="#FFFA8A"/>
<path d="M122.817 120.626L69.0309 113.778V116.06L122.817 123.126V120.626Z" fill="#FFFA8A"/>
<path d="M164.217 98.5592C162.044 98.3056 157.61 97.7983 157.263 97.7983L153.677 93.3415L153.798 91.3848C145.644 97.5447 129.011 110.082 127.707 110.951C126.403 111.821 125.28 111.749 124.882 111.604V133.241L135.748 134.777C136.943 132.814 139.529 128.757 140.312 128.235L165.412 113.56C166.542 113.995 168.273 113.959 168.998 113.886C172.62 113.452 180.255 112.56 181.82 112.473C183.384 112.386 184.79 112.002 185.297 111.821L197.467 105.299C197.829 105.299 198.771 105.342 199.64 105.516C200.509 105.69 201.089 105.444 201.27 105.299L211.749 98.5592L219.525 93.5589C220.307 93.0371 220.611 92.4718 220.72 91.9283L223.219 73.8835L218.873 60.2956C218.264 58.3824 216.591 57.578 215.721 57.4693L208.229 57.0345L208.441 58.6107L204.638 60.513C203.421 61.1217 202.682 62.216 202.465 62.6871L194.315 78.0143C192.751 79.9274 193.012 82.3624 193.012 83.7755V96.3851C188.701 98.2693 181.385 102.038 178.777 102.038C176.821 102.038 174.503 102.907 173.018 103.342L168.78 104.429C167.737 104.603 167.477 104.429 167.151 103.886L164.217 98.5592Z" fill="#FFFA8A"/>
<path d="M154.22 84.5365C154.22 83.8842 153.286 83.0798 151.286 82.9059L101.955 77.1446H99.4556L69.0309 96.2764L125.643 103.994L154.22 84.5365Z" fill="#FFFA8A"/>
<path d="M69.0309 96.2764L66.3144 102.69L123.795 111.438L125.643 103.994L69.0309 96.2764Z" fill="#FFFA8A"/>
<path d="M154.22 84.5365L125.643 103.994L123.795 111.438L124.882 111.604C125.28 111.749 126.403 111.821 127.707 110.951C129.011 110.082 145.644 97.5447 153.798 91.3848L154.22 84.5365Z" fill="#FFFA8A"/>
<path d="M124.882 111.604L123.795 111.438L66.3144 102.69V112.038V117.039V124.96L67.6183 125.144V123.996L69.0309 123.126V120.626L67.6183 119.648V118.287L69.0309 116.06V113.778L67.6183 112.582V110.082L70.1175 108.598L122.817 115.734V117.365V120.626V123.126V125V127.8V130.518V132.949L124.882 133.241V111.604Z" fill="#FFFA8A"/>
<path d="M52.7319 123.039L66.3144 124.96V117.039L62.2397 116.93L58.1649 116.821L52.7319 123.039Z" fill="#FFFA8A"/>
<path d="M62.2397 116.93L66.3144 117.039V112.038L62.2397 114.213V116.93Z" fill="#FFFA8A"/>
<path fill-rule="evenodd" clip-rule="evenodd" d="M172.149 41.2725C170.405 41.8993 168.989 42.0701 167.585 42.0392L163.13 94.4285L153.677 93.3415L157.263 97.7983C157.61 97.7983 162.044 98.3056 164.217 98.5592L167.151 103.886C167.477 104.429 167.737 104.603 168.78 104.429L173.018 103.342C174.503 102.907 176.821 102.038 178.777 102.038C181.385 102.038 188.701 98.2693 193.012 96.3851V83.7755C193.012 82.3624 192.751 79.9274 194.315 78.0143L202.465 62.6871C202.682 62.216 203.421 61.1217 204.638 60.513L208.441 58.6107L208.229 57.0345L205.181 34.4242H205.942L204.095 29.5695C196.548 32.4552 180.831 38.1525 172.149 41.2725ZM194.424 35.2165L183.124 39.8908C179.972 40.8328 173.475 42.7605 172.692 42.9345C171.91 43.1084 171.135 43.5867 170.845 43.8041C170.664 43.9853 170.193 44.478 169.758 44.9998C169.324 45.5216 169.215 46.884 169.215 47.5L170.193 83.3407C170.193 84.1741 170.345 86.1888 170.954 87.5802C171.562 88.9716 172.439 88.4498 172.801 88.015L185.188 74.5357L198.227 53.3386C198.923 52.4689 199.097 51.708 199.097 51.1645V49.3165C198.336 44.8597 196.728 36.9123 196.38 35.8687C196.032 34.8252 194.931 34.9991 194.424 35.2165Z" fill="#FFFA8A"/>
<path d="M96.8477 27.4672C101.194 28.0759 142.847 32.5762 163.13 34.7503C166.499 35.1113 168.672 35.6737 172.149 34.4242C183.341 30.4021 206.225 22.0972 208.224 21.0536C208.515 20.9018 208.827 20.5391 208.843 20.184C208.862 19.7433 208.424 19.3144 206.92 19.3144L131.184 12.0313C130.713 11.9588 129.294 11.966 127.381 12.5748C125.469 13.1835 104.997 20.8 95.0005 24.5322C94.3991 24.8968 93.7702 25.4835 93.8474 26.054C93.9237 26.6172 94.6884 27.1647 96.8477 27.4672Z" fill="#FFFA8A"/>
<path d="M163.13 34.7503C142.847 32.5762 101.194 28.0759 96.8477 27.4672C94.6884 27.1647 93.9237 26.6172 93.8474 26.054V33.1197C93.8474 33.377 94.0153 33.7408 94.6746 34.0671C95.1295 34.2923 95.8185 34.4995 96.8477 34.6415L163.13 41.5986C164.809 41.7785 166.191 42.0085 167.585 42.0392C168.989 42.0701 170.405 41.8993 172.149 41.2725C180.831 38.1525 196.548 32.4552 204.095 29.5695C206.277 28.7352 207.776 28.136 208.224 27.9019C208.767 27.6184 208.843 27.0323 208.843 26.4888V20.184C208.827 20.5391 208.515 20.9018 208.224 21.0536C206.225 22.0972 183.341 30.4021 172.149 34.4242C168.672 35.6737 166.499 35.1113 163.13 34.7503Z" fill="#FFFA8A"/>
<path d="M208.843 26.4888C208.843 27.0323 208.767 27.6184 208.224 27.9019C207.776 28.136 206.277 28.7352 204.095 29.5695L205.942 34.4242C206.377 34.4242 206.99 34.1341 207.572 33.7719C207.924 33.5531 208.408 33.1197 208.408 33.1197C208.734 32.7936 208.843 32.3153 208.843 31.2717V26.4888Z" fill="#FFFA8A"/>
<path fill-rule="evenodd" clip-rule="evenodd" d="M163.13 41.5986L96.8477 34.6415C95.8185 34.4995 95.1295 34.2923 94.6746 34.0671L92.2841 58.1215L89.9659 83.112L99.4556 77.1446H101.955L151.286 82.9059C153.286 83.0798 154.22 83.8842 154.22 84.5365L153.798 91.3848L153.677 93.3415L163.13 94.4285L167.585 42.0392C166.191 42.0085 164.809 41.7785 163.13 41.5986ZM103.585 36.3808C101.759 36.2938 101.23 38.2288 101.194 39.2071C100.434 47.0337 98.8471 63.8393 98.5863 68.4483C98.3255 73.0574 101.085 74.4995 102.498 74.6444L154.22 80.6231C156.828 80.8405 157.48 78.7752 157.589 77.362L160.305 45.2945C160.305 42.7943 158.023 42.064 156.719 41.9247C139.768 40.113 105.41 36.4678 103.585 36.3808Z" fill="#FFFA8A"/>
<path d="M67.6183 110.082V112.582L69.0309 113.778L122.817 120.626V117.365L67.6183 110.082Z" fill="#FFFA8A"/>
<path d="M122.817 115.734L70.1175 108.598L67.6183 110.082L122.817 117.365V115.734Z" fill="#FFFA8A"/>
<path d="M69.0309 116.06L67.6183 118.287L122.817 125V123.126L69.0309 116.06Z" fill="#FFFA8A"/>
<path d="M69.0309 120.626V123.126L122.817 130.518V127.8L69.0309 120.626Z" fill="#FFFA8A"/>
<path d="M69.0309 123.126L67.6183 123.996V125.144L122.817 132.949V130.518L69.0309 123.126Z" fill="#FFFA8A"/>
<path d="M67.6183 118.287V119.648L69.0309 120.626L122.817 127.8V125L67.6183 118.287Z" fill="#FFFA8A"/>
<path d="M93.8474 26.054C93.7702 25.4835 94.3991 24.8968 95.0005 24.5322C104.997 20.8 125.469 13.1835 127.381 12.5748C129.294 11.966 130.713 11.9588 131.184 12.0313L206.92 19.3144C208.424 19.3144 208.862 19.7433 208.843 20.184M93.8474 26.054C93.9237 26.6172 94.6884 27.1647 96.8477 27.4672C101.194 28.0759 142.847 32.5762 163.13 34.7503C166.499 35.1113 168.672 35.6737 172.149 34.4242C183.341 30.4022 206.225 22.0972 208.224 21.0536C208.515 20.9018 208.827 20.5391 208.843 20.184M93.8474 26.054V33.1197C93.8474 33.377 94.0153 33.7408 94.6746 34.0671M208.843 20.184V26.4888M208.843 26.4888C208.843 27.0323 208.767 27.6184 208.224 27.9019C207.776 28.136 206.277 28.7352 204.095 29.5695M208.843 26.4888V31.2717C208.843 32.3153 208.734 32.7936 208.408 33.1197C208.408 33.1197 207.924 33.5531 207.572 33.7719C206.99 34.1341 206.377 34.4242 205.942 34.4242M167.585 42.0392C166.191 42.0085 164.809 41.7785 163.13 41.5986L96.8477 34.6415C95.8185 34.4995 95.1295 34.2923 94.6746 34.0671M167.585 42.0392C168.989 42.0701 170.405 41.8993 172.149 41.2725C180.831 38.1525 196.548 32.4552 204.095 29.5695M167.585 42.0392L163.13 94.4285L153.677 93.3415M153.677 93.3415L153.798 91.3848M153.677 93.3415L157.263 97.7983C157.61 97.7983 162.044 98.3056 164.217 98.5592L167.151 103.886C167.477 104.429 167.737 104.603 168.78 104.429L173.018 103.342C174.503 102.907 176.821 102.038 178.777 102.038C181.385 102.038 188.701 98.2693 193.012 96.3851M154.22 84.5365C154.22 83.8842 153.286 83.0798 151.286 82.9059L101.955 77.1446H99.4556M154.22 84.5365L125.643 103.994M154.22 84.5365L153.798 91.3848M193.012 96.3851V83.7755C193.012 82.3624 192.751 79.9274 194.315 78.0143L202.465 62.6871C202.682 62.216 203.421 61.1217 204.638 60.513M193.012 96.3851L195.837 96.2764C196.308 96.2402 197.336 96.3851 197.684 97.2548M204.638 60.513C205.659 60.0024 207.363 59.1502 208.441 58.6107M204.638 60.513L208.441 58.6107M208.441 58.6107C208.649 58.507 208.833 58.4149 208.985 58.3389L208.441 58.6107ZM208.441 58.6107L208.229 57.0345M205.942 34.4242H205.181L208.229 57.0345M205.942 34.4242L204.095 29.5695M94.6746 34.0671L92.2841 58.1215L89.9659 83.112L99.4556 77.1446M66.3144 102.69L69.0309 96.2764M66.3144 102.69L123.795 111.438M66.3144 102.69V112.038M69.0309 96.2764L99.4556 77.1446M69.0309 96.2764L125.643 103.994M125.643 103.994L123.795 111.438M124.882 111.604C125.28 111.749 126.403 111.821 127.707 110.951C129.011 110.082 145.644 97.5447 153.798 91.3848M124.882 111.604L123.795 111.438M124.882 111.604V133.241M66.3144 124.96L67.6183 125.144M66.3144 124.96L52.7319 123.039M66.3144 124.96V117.039M124.882 133.241L122.817 132.949M124.882 133.241L135.748 134.777M122.817 132.949L67.6183 125.144M122.817 132.949V130.518M69.0309 108.451L70.1175 108.598M70.1175 108.598L122.817 115.734V117.365M70.1175 108.598L67.6183 110.082M67.6183 110.082V112.582L69.0309 113.778M67.6183 110.082L122.817 117.365M69.0309 113.778L122.817 120.626M69.0309 113.778V116.06M122.817 120.626V117.365M122.817 120.626V123.126M69.0309 116.06L67.6183 118.287M69.0309 116.06L122.817 123.126M67.6183 118.287V119.648L69.0309 120.626M67.6183 118.287L122.817 125M69.0309 120.626V123.126M69.0309 120.626L122.817 127.8M69.0309 123.126L67.6183 123.996V125.144M69.0309 123.126L122.817 130.518M122.817 130.518V127.8M122.817 127.8V125M122.817 125V123.126M142.702 188.022C142.702 188.718 142.485 189.182 142.376 189.327C139.841 191.646 134.509 196.501 133.466 197.371C132.423 198.24 129.917 198.023 128.794 197.806C96.4493 192.407 31.6954 181.587 31.4346 181.5C31.1087 181.391 31 181.065 31 180.413C31 179.891 31.3622 178.855 31.5433 178.565C36.672 167.695 37.8093 139.178 37.7369 126.279C37.7369 124.626 38.4975 123.67 39.3668 123.235L40.888 122.583C41.5038 122.264 43.4741 121.73 46.4297 122.148L52.7319 123.039M142.702 188.022C142.702 187.835 142.702 185.265 142.702 181.283M142.702 188.022V181.283M142.702 137.04C142.702 136.062 140.16 135.401 138.682 135.192L135.748 134.777M142.702 137.04C139.312 134.344 137.233 137.004 136.617 138.671C137.233 154.324 136.53 187.979 128.794 197.371M142.702 137.04C142.702 138.483 142.702 140.052 142.702 141.715M142.702 137.04V141.715M52.7319 123.039L58.1649 116.821L62.2397 116.93M66.3144 117.039L62.2397 116.93M66.3144 117.039V112.038M62.2397 116.93V114.213L66.3144 112.038M208.229 57.0345L215.721 57.4693C216.591 57.578 218.264 58.3824 218.873 60.2956L223.219 73.8835L220.72 91.9283C220.611 92.4718 220.307 93.0371 219.525 93.5589L211.749 98.5592M165.412 113.56C166.542 113.995 168.273 113.959 168.998 113.886C172.62 113.452 180.255 112.56 181.82 112.473C183.384 112.386 184.79 112.002 185.297 111.821L197.467 105.299C197.829 105.299 198.771 105.342 199.64 105.516C200.509 105.69 201.089 105.444 201.27 105.299L211.749 98.5592M165.412 113.56C164.282 113.125 163.203 112.654 162.804 112.473V106.929C162.804 106.168 163.282 105.234 164.76 104.973C165.158 105.154 166.238 105.625 167.368 106.06C168.498 106.495 170.229 106.458 170.954 106.386L181.82 105.299C183.384 105.212 184.79 104.828 185.297 104.647L197.467 98.5592M165.412 113.56L140.312 128.235C139.529 128.757 136.943 132.814 135.748 134.777M199.314 79.1013L207.029 63.9915M208.985 61.6L215.069 58.3389M142.702 141.715C142.702 154.119 142.702 171.748 142.702 181.283M142.702 141.715V181.283M211.749 98.5592C216.835 98.5592 221.377 98.8737 224.358 102.038M224.358 102.038C226.635 104.455 228 108.535 228 115.408C228 129.757 224.849 143.976 216.156 149.976L165.412 183.565C164.1 184.222 162.677 184.408 161.283 184.032M224.358 102.038C222.226 99.9506 217.786 99.8637 213.983 102.038L161.718 133.562C154.416 138.866 153.351 158.237 153.351 167.586C154.108 178.122 157.598 183.04 161.283 184.032M161.283 184.032L142.702 181.283M101.194 39.2071C101.23 38.2288 101.759 36.2938 103.585 36.3808C105.41 36.4678 139.768 40.113 156.719 41.9247C158.023 42.064 160.305 42.7943 160.305 45.2945L157.589 77.362C157.48 78.7752 156.828 80.8405 154.22 80.6231L102.498 74.6444C101.085 74.4995 98.3255 73.0574 98.5863 68.4483C98.8471 63.8393 100.434 47.0337 101.194 39.2071ZM183.124 39.8908L194.424 35.2165C194.931 34.9991 196.032 34.8252 196.38 35.8687C196.728 36.9123 198.336 44.8597 199.097 49.3165V51.1645C199.097 51.708 198.923 52.4689 198.227 53.3386L185.188 74.5357L172.801 88.015C172.439 88.4498 171.562 88.9716 170.954 87.5802C170.345 86.1888 170.193 84.1741 170.193 83.3407L169.215 47.5C169.215 46.884 169.324 45.5216 169.758 44.9998C170.193 44.478 170.664 43.9853 170.845 43.8041C171.135 43.5867 171.91 43.1084 172.692 42.9345C173.475 42.7605 179.972 40.8328 183.124 39.8908Z" stroke="#404040"/>
<path d="M74.648 55.416C74.648 63.3946 68.9946 67.4693 57.688 67.64V76.472H53.144V67.512C47.0426 67 42.6906 65.272 40.088 62.328C37.4853 59.3413 36.184 55.2453 36.184 50.04H42.392C42.392 54.0506 43.2666 56.9733 45.016 58.808C46.808 60.6 49.5173 61.688 53.144 62.072V45.688C48.0666 44.152 44.312 42.488 41.88 40.696C39.448 38.8613 38.232 36.152 38.232 32.568C38.232 25.4 43.2026 21.624 53.144 21.24V12.408H57.688V21.368C62.808 21.9226 66.6053 23.6506 69.08 26.552C71.5546 29.4533 72.792 32.8666 72.792 36.792H66.584C66.584 33.9333 65.7733 31.672 64.152 30.008C62.5733 28.344 60.4186 27.2986 57.688 26.872V41.336C59.736 41.976 61.3786 42.5306 62.616 43C63.896 43.4266 65.3893 44.0666 67.096 44.92C68.8026 45.7733 70.1253 46.648 71.064 47.544C72.0453 48.44 72.8773 49.5706 73.56 50.936C74.2853 52.3013 74.648 53.7946 74.648 55.416ZM44.44 32.504C44.44 34.3386 45.08 35.768 46.36 36.792C47.6826 37.7733 49.944 38.7973 53.144 39.864V26.616C47.3413 26.9146 44.44 28.8773 44.44 32.504ZM57.688 62.264C61.3146 62.1786 64.0026 61.624 65.752 60.6C67.544 59.576 68.44 57.9333 68.44 55.672C68.44 53.4106 67.5226 51.6826 65.688 50.488C63.8533 49.2506 61.1866 48.12 57.688 47.096V62.264Z" fill="#6A92E0"/>
<path fill-rule="evenodd" clip-rule="evenodd" d="M36.2004 51.04C36.1894 50.7113 36.184 50.378 36.184 50.04H42.392C42.392 54.0506 43.2666 56.9733 45.016 58.808C46.6392 60.4312 49.0152 61.4768 52.144 61.9448C52.4692 61.9934 52.8025 62.0358 53.144 62.072V45.688C48.0666 44.152 44.312 42.488 41.88 40.696C39.448 38.8613 38.232 36.152 38.232 32.568C38.232 25.4 43.2026 21.624 53.144 21.24V12.408H57.688V21.368C62.808 21.9226 66.6053 23.6506 69.08 26.552C71.3421 29.2041 72.5703 32.2841 72.7646 35.792C72.7828 36.1215 72.792 36.4548 72.792 36.792H66.584C66.584 33.9333 65.7733 31.672 64.152 30.008C62.7712 28.5526 60.9499 27.5705 58.688 27.0616C58.3637 26.9887 58.0304 26.9255 57.688 26.872V41.336C59.736 41.976 61.3786 42.5306 62.616 43C63.896 43.4266 65.3893 44.0666 67.096 44.92C68.8026 45.7733 70.1253 46.648 71.064 47.544C72.0453 48.44 72.8773 49.5706 73.56 50.936C74.2853 52.3013 74.648 53.7946 74.648 55.416C74.648 63.3946 68.9946 67.4693 57.688 67.64V76.472H53.144V67.512C47.0426 67 42.6906 65.272 40.088 62.328C37.6543 59.5352 36.3585 55.7726 36.2004 51.04ZM52.144 68.4213C46.3823 67.8063 42.0443 66.0507 39.3388 62.9903L39.334 62.985C36.5284 59.7654 35.184 55.4097 35.184 50.04V49.04H43.392V50.04C43.392 53.9302 44.2436 56.5426 45.7315 58.1093C47.1327 59.5059 49.234 60.4767 52.144 60.9331V46.4267C47.3768 44.9372 43.7347 43.3048 41.2868 41.501L41.2777 41.4943C38.5491 39.4359 37.232 36.4032 37.232 32.568C37.232 28.7241 38.5816 25.6705 41.3551 23.5637C43.9003 21.6302 47.5376 20.5767 52.144 20.2891V11.408H58.688V20.4838C63.5387 21.1561 67.303 22.9277 69.8408 25.903C72.4747 28.9911 73.792 32.6364 73.792 36.792V37.792H65.584V36.792C65.584 34.1305 64.8351 32.1421 63.4357 30.7058L63.4264 30.6963C62.2475 29.4536 60.6844 28.5734 58.688 28.0885V40.6025C60.4149 41.1506 61.8377 41.6359 62.9517 42.0578C64.2861 42.504 65.8184 43.1632 67.5432 44.0255C69.2966 44.9022 70.711 45.8268 71.7463 46.8128C72.8244 47.7992 73.7222 49.0273 74.449 50.4779C75.2509 51.9918 75.648 53.6436 75.648 55.416C75.648 59.6732 74.1207 63.0127 70.9927 65.2672C68.1031 67.3498 63.959 68.4248 58.688 68.6148V77.472H52.144V68.4213ZM65.2558 59.7317C66.7016 58.9055 67.44 57.6162 67.44 55.672C67.44 53.7354 66.6825 52.3289 65.1423 51.326L65.1355 51.3216L65.1288 51.317C63.6358 50.3101 61.5014 49.348 58.688 48.4476V61.226C61.7158 61.0688 63.8688 60.5436 65.2468 59.7369L65.2558 59.7317ZM58.688 62.2273C58.363 62.2437 58.0296 62.2559 57.688 62.264V47.096C58.0292 47.1958 58.3625 47.2967 58.688 47.3986C61.6989 48.3415 64.0322 49.3713 65.688 50.488C67.5226 51.6826 68.44 53.4106 68.44 55.672C68.44 57.9333 67.544 59.576 65.752 60.6C64.1674 61.5275 61.8128 62.07 58.688 62.2273ZM46.9707 35.9998C45.9673 35.1907 45.44 34.0687 45.44 32.504C45.44 31.0085 46.012 29.9278 47.1763 29.1402C48.248 28.4152 49.8748 27.9062 52.144 27.6908V38.4596C49.6922 37.5762 47.9889 36.7511 46.9707 35.9998ZM53.144 39.864C52.7998 39.7492 52.4664 39.635 52.144 39.5212C49.4684 38.5775 47.5404 37.6677 46.36 36.792C45.08 35.768 44.44 34.3386 44.44 32.504C44.44 29.092 47.008 27.1528 52.144 26.6865C52.4671 26.6572 52.8005 26.6336 53.144 26.616V39.864Z" fill="#404040"/>
<defs>
<filter id="filter0_f" x="111.713" y="50.1234" width="6.16203" height="6.16203" filterUnits="userSpaceOnUse" color-interpolation-filters="sRGB">
<feFlood flood-opacity="0" result="BackgroundImageFix"/>
<feBlend mode="normal" in="SourceGraphic" in2="BackgroundImageFix" result="shape"/>
<feGaussianBlur stdDeviation="1" result="effect1_foregroundBlur"/>
</filter>
<filter id="filter1_f" x="131.937" y="53.7369" width="6.16203" height="6.16203" filterUnits="userSpaceOnUse" color-interpolation-filters="sRGB">
<feFlood flood-opacity="0" result="BackgroundImageFix"/>
<feBlend mode="normal" in="SourceGraphic" in2="BackgroundImageFix" result="shape"/>
<feGaussianBlur stdDeviation="1" result="effect1_foregroundBlur"/>
</filter>
</defs>
</svg>
