<svg width="440" height="285" viewBox="0 0 440 285" fill="none" xmlns="http://www.w3.org/2000/svg">
<g clip-path="url(#clip0)">
<path d="M383.27 245.814C383.27 245.814 384.334 242.429 382.662 241.503C380.573 240.346 378.631 240.49 377.136 242.056C375.752 243.505 373.355 249.729 373.377 253.414L373.547 256.294C373.36 256.088 373.15 255.932 372.942 255.835L364.746 251.982C362.676 251.009 361.552 252.056 360.676 253.919C359.706 255.983 360.901 257.175 362.051 257.716L361.476 257.445C359.406 256.472 358.282 257.519 357.406 259.382C356.436 261.446 357.631 262.638 358.781 263.179L359.069 263.314C356.998 262.341 355.874 263.387 354.998 265.251C354.028 267.315 355.224 268.507 356.374 269.047L357.524 269.588C355.454 268.615 354.33 269.661 353.656 271.095C352.686 273.159 353.881 274.351 355.031 274.891L360.352 277.392C360.501 277.471 360.647 277.539 360.788 277.597L370.129 281.988C378.71 286.441 385.144 280.295 386.963 276.426C389.996 269.976 388.865 265.285 386.822 262.534C384.564 259.494 383.706 258.605 382.88 255.606C381.864 251.913 383.27 245.814 383.27 245.814Z" fill="#F9F2B2"/>
<path d="M360.352 277.392L370.129 281.988C378.71 286.441 385.144 280.295 386.963 276.426C389.996 269.976 388.865 265.285 386.822 262.534C384.564 259.494 383.706 258.605 382.88 255.606C381.864 251.913 383.27 245.814 383.27 245.814C383.27 245.814 384.334 242.429 382.662 241.503C380.573 240.346 378.631 240.49 377.136 242.056C375.752 243.505 373.355 249.729 373.377 253.414L373.547 256.294M360.352 277.392L355.031 274.891C353.881 274.351 352.686 273.159 353.656 271.095C354.33 269.661 355.454 268.615 357.524 269.588L363.707 272.494C364.57 272.9 365.487 274.311 364.786 275.801C364.18 277.091 362.828 278.696 360.352 277.392ZM366.977 267.031L359.069 263.314C356.998 262.341 355.874 263.387 354.998 265.251C354.028 267.315 355.224 268.507 356.374 269.047L363.42 272.359C365.896 273.663 367.248 272.058 367.854 270.768C368.757 268.848 367.84 267.437 366.977 267.031ZM366.977 267.031L358.781 263.179C357.631 262.638 356.436 261.446 357.406 259.382C358.282 257.519 359.406 256.472 361.476 257.445L370.535 261.703C371.398 262.109 372.314 263.52 371.412 265.441C370.805 266.731 369.454 268.335 366.977 267.031ZM361.082 264.26L367.265 267.166M363.489 258.392L369.672 261.298M373.547 256.294C373.36 256.088 373.15 255.932 372.942 255.835L364.746 251.982C362.676 251.009 361.552 252.056 360.676 253.919C359.706 255.983 360.901 257.175 362.051 257.716L369.385 261.163C371.174 262.105 372.376 261.529 373.134 260.65M373.547 256.294C374.14 256.948 374.505 258.113 373.819 259.572C373.651 259.93 373.425 260.312 373.134 260.65M373.134 260.65C373.93 263.066 376.587 268.398 380.843 270.399" stroke="#404040" stroke-linecap="round"/>
<g filter="url(#filter0_f)">
<path d="M404.27 140.672C404.27 140.672 406.394 138.999 407.505 139.94C408.894 141.115 409.317 142.538 408.605 144.026C407.947 145.403 404.162 148.793 401.531 149.774L399.433 150.431C399.631 150.509 399.799 150.616 399.924 150.738L404.884 155.535C406.137 156.746 405.695 157.83 404.605 158.958C403.396 160.207 402.224 159.677 401.528 159.004L401.876 159.341C403.129 160.553 402.688 161.636 401.597 162.764C400.389 164.013 399.217 163.484 398.521 162.81L398.347 162.642C399.6 163.854 399.158 164.938 398.067 166.065C396.859 167.314 395.687 166.785 394.991 166.112L394.295 165.438C395.548 166.65 395.106 167.734 394.267 168.601C393.059 169.85 391.887 169.321 391.191 168.648L387.972 165.534C387.875 165.449 387.787 165.364 387.707 165.279L382.055 159.812C376.563 154.903 379.201 148.659 381.466 146.316C385.241 142.413 388.888 141.95 391.4 142.662C394.176 143.448 395.041 143.819 397.4 143.597C400.306 143.323 404.27 140.672 404.27 140.672Z" fill="#F9F2B2"/>
<path d="M387.972 165.534L382.055 159.812C376.563 154.903 379.201 148.659 381.466 146.316C385.241 142.413 388.888 141.95 391.4 142.662C394.176 143.448 395.041 143.819 397.4 143.597C400.306 143.323 404.27 140.672 404.27 140.672C404.27 140.672 406.394 138.999 407.505 139.94C408.894 141.115 409.317 142.538 408.605 144.026C407.947 145.403 404.162 148.793 401.531 149.774L399.433 150.431M387.972 165.534L391.191 168.648C391.887 169.321 393.059 169.85 394.267 168.601C395.106 167.734 395.548 166.65 394.295 165.438L390.553 161.82C390.031 161.315 388.778 161.043 387.906 161.945C387.151 162.726 386.373 164.122 387.972 165.534ZM393.561 158.014L398.347 162.642C399.6 163.854 399.158 164.938 398.067 166.065C396.859 167.314 395.687 166.785 394.991 166.112L390.727 161.988C389.129 160.576 389.907 159.18 390.662 158.399C391.786 157.237 393.039 157.509 393.561 158.014ZM393.561 158.014L398.521 162.81C399.217 163.484 400.389 164.013 401.597 162.764C402.688 161.636 403.129 160.553 401.876 159.341L396.394 154.039C395.872 153.534 394.619 153.262 393.495 154.425C392.74 155.205 391.962 156.602 393.561 158.014ZM397.128 161.464L393.387 157.845M400.658 158.163L396.916 154.544M399.433 150.431C399.631 150.509 399.799 150.616 399.924 150.738L404.884 155.535C406.137 156.746 405.695 157.83 404.605 158.958C403.396 160.207 402.224 159.677 401.528 159.004L397.09 154.712C395.936 153.692 396.021 152.68 396.442 151.903M399.433 150.431C398.807 150.185 397.879 150.24 397.025 151.124C396.815 151.34 396.604 151.604 396.442 151.903M396.442 151.903C394.506 151.989 389.989 151.538 387.414 149.047" stroke="#7B7B7B"/>
</g>
<g filter="url(#filter1_f)">
<path d="M140.598 108.649C140.598 108.649 140.049 106.002 138.593 106.007C136.773 106.013 135.534 106.829 135.121 108.426C134.739 109.904 135.455 114.935 136.838 117.379L138.021 119.232C137.819 119.164 137.621 119.138 137.447 119.151L130.564 119.631C128.825 119.752 128.466 120.866 128.575 122.431C128.696 124.164 129.934 124.513 130.9 124.446L130.417 124.479C128.678 124.601 128.319 125.714 128.428 127.279C128.549 129.013 129.787 129.362 130.753 129.295L130.994 129.278C129.255 129.399 128.896 130.513 129.005 132.078C129.126 133.811 130.364 134.16 131.33 134.093L132.296 134.025C130.557 134.147 130.198 135.26 130.282 136.464C130.403 138.198 131.641 138.547 132.607 138.479L137.075 138.168C137.204 138.165 137.326 138.156 137.441 138.142L145.287 137.595C152.649 137.372 154.648 130.894 154.421 127.644C154.044 122.227 151.549 119.526 149.169 118.454C146.538 117.27 145.637 116.997 143.974 115.308C141.927 113.229 140.598 108.649 140.598 108.649Z" fill="#F9F2B2"/>
<path d="M137.075 138.168L145.287 137.595C152.649 137.372 154.648 130.894 154.421 127.644C154.044 122.227 151.549 119.526 149.169 118.454C146.538 117.27 145.637 116.997 143.974 115.308C141.927 113.229 140.598 108.649 140.598 108.649C140.598 108.649 140.049 106.002 138.593 106.007C136.773 106.013 135.534 106.829 135.121 108.426C134.739 109.904 135.455 114.935 136.838 117.379L138.021 119.232M137.075 138.168L132.607 138.479C131.641 138.547 130.403 138.198 130.282 136.464C130.198 135.26 130.557 134.147 132.296 134.025L137.489 133.663C138.213 133.613 139.347 134.211 139.435 135.463C139.51 136.546 139.207 138.116 137.075 138.168ZM137.636 128.814L130.994 129.278C129.255 129.399 128.896 130.513 129.005 132.078C129.126 133.811 130.364 134.16 131.33 134.093L137.247 133.68C139.379 133.628 139.683 132.059 139.607 130.975C139.494 129.362 138.361 128.764 137.636 128.814ZM137.636 128.814L130.753 129.295C129.787 129.362 128.549 129.013 128.428 127.279C128.319 125.714 128.678 124.601 130.417 124.479L138.025 123.949C138.749 123.898 139.883 124.497 139.996 126.11C140.071 127.193 139.768 128.763 137.636 128.814ZM132.685 129.16L137.878 128.798M132.108 124.362L137.3 123.999M138.021 119.232C137.819 119.164 137.621 119.138 137.447 119.151L130.564 119.631C128.825 119.752 128.466 120.866 128.575 122.431C128.696 124.164 129.934 124.513 130.9 124.446L137.059 124.016C138.599 123.979 139.185 123.149 139.363 122.283M138.021 119.232C138.658 119.446 139.333 120.086 139.418 121.311C139.439 121.612 139.431 121.95 139.363 122.283M139.363 122.283C140.79 123.595 144.537 126.156 148.112 125.907" stroke="#7B7B7B"/>
</g>
<g filter="url(#filter2_f)">
<path d="M36.4881 38.3798C36.4881 38.3798 35.7053 36.6937 34.7211 36.9271C33.4908 37.2188 32.7795 37.9618 32.7484 39.0964C32.7195 40.1468 33.9856 43.4028 35.3015 44.8207L36.3898 45.8747C36.2429 45.8611 36.1052 45.8754 35.9894 45.9111L31.4069 47.3209C30.2492 47.6771 30.1793 48.4798 30.4964 49.5106C30.8477 50.6524 31.7395 50.6905 32.3827 50.4926L32.0611 50.5916C30.9034 50.9478 30.8335 51.7504 31.1507 52.7812C31.502 53.923 32.3937 53.9612 33.0369 53.7633L33.1977 53.7138C32.04 54.07 31.9701 54.8727 32.2873 55.9035C32.6386 57.0453 33.5303 57.0834 34.1735 56.8855L34.8166 56.6877C33.659 57.0438 33.5891 57.8465 33.833 58.6394C34.1843 59.7812 35.0761 59.8194 35.7193 59.6215L38.6939 58.7063C38.7805 58.6839 38.8617 58.6588 38.9379 58.6312L44.1607 57.0244C49.1073 55.7109 49.4525 51.0564 48.794 48.9155C47.6965 45.3472 45.5889 43.9326 43.8117 43.5912C41.8476 43.214 41.1956 43.1738 39.8081 42.3059C38.0994 41.2369 36.4881 38.3798 36.4881 38.3798Z" fill="#F9F2B2"/>
<path d="M38.6939 58.7063L44.1607 57.0244C49.1073 55.7109 49.4525 51.0564 48.794 48.9155C47.6965 45.3472 45.5889 43.9326 43.8117 43.5912C41.8476 43.214 41.1956 43.1738 39.8081 42.3059C38.0994 41.2369 36.4881 38.3798 36.4881 38.3798C36.4881 38.3798 35.7053 36.6937 34.7211 36.9271C33.4908 37.2188 32.7795 37.9618 32.7484 39.0964C32.7195 40.1468 33.9856 43.4028 35.3015 44.8207L36.3898 45.8747M38.6939 58.7063L35.7193 59.6215C35.0761 59.8194 34.1843 59.7812 33.833 58.6394C33.5891 57.8465 33.659 57.0438 34.8166 56.6877L38.2736 55.6241C38.756 55.4757 39.6162 55.6971 39.8699 56.5218C40.0894 57.2354 40.1283 58.3344 38.6939 58.7063ZM37.6194 52.3534L33.1977 53.7138C32.04 54.07 31.9701 54.8727 32.2873 55.9035C32.6386 57.0453 33.5303 57.0834 34.1735 56.8855L38.1128 55.6735C39.5473 55.3017 39.5084 54.2026 39.2888 53.489C38.9619 52.4265 38.1018 52.205 37.6194 52.3534ZM37.6194 52.3534L33.0369 53.7633C32.3937 53.9612 31.502 53.923 31.1507 52.7812C30.8335 51.7504 30.9034 50.9478 32.0611 50.5916L37.126 49.0333C37.6083 48.8849 38.4685 49.1063 38.7954 50.1689C39.0149 50.8825 39.0539 51.9815 37.6194 52.3534ZM34.3232 53.3675L37.7802 52.304M33.1866 50.2453L36.6436 49.1817M36.3898 45.8747C36.2429 45.8611 36.1052 45.8754 35.9894 45.9111L31.4069 47.3209C30.2492 47.6771 30.1793 48.4798 30.4964 49.5106C30.8477 50.6524 31.7395 50.6905 32.3827 50.4926L36.4828 49.2312C37.5191 48.9625 37.7865 48.3143 37.7722 47.7061M36.3898 45.8747C36.8542 45.9176 37.4104 46.2394 37.6588 47.0466C37.7197 47.2447 37.7668 47.4725 37.7722 47.7061M37.7722 47.7061C38.9416 48.359 41.8753 49.4817 44.255 48.7496" stroke="#7B7B7B"/>
</g>
<g filter="url(#filter3_f)">
<path d="M391.184 25.3798C391.184 25.3798 391.967 23.6937 392.951 23.9271C394.181 24.2188 394.892 24.9618 394.924 26.0964C394.952 27.1468 393.686 30.4028 392.37 31.8207L391.282 32.8747C391.429 32.8611 391.567 32.8754 391.683 32.9111L396.265 34.3209C397.423 34.6771 397.493 35.4798 397.175 36.5106C396.824 37.6524 395.932 37.6905 395.289 37.4926L395.611 37.5916C396.768 37.9478 396.838 38.7504 396.521 39.7812C396.17 40.923 395.278 40.9612 394.635 40.7633L394.474 40.7138C395.632 41.07 395.702 41.8727 395.385 42.9035C395.033 44.0453 394.142 44.0834 393.498 43.8855L392.855 43.6877C394.013 44.0438 394.083 44.8465 393.839 45.6394C393.488 46.7812 392.596 46.8194 391.953 46.6215L388.978 45.7063C388.891 45.6839 388.81 45.6588 388.734 45.6312L383.511 44.0244C378.565 42.7109 378.219 38.0564 378.878 35.9155C379.975 32.3472 382.083 30.9326 383.86 30.5912C385.824 30.214 386.476 30.1738 387.864 29.3059C389.572 28.2369 391.184 25.3798 391.184 25.3798Z" fill="#F9F2B2"/>
<path d="M388.978 45.7063L383.511 44.0244C378.565 42.7109 378.219 38.0564 378.878 35.9155C379.975 32.3472 382.083 30.9326 383.86 30.5912C385.824 30.214 386.476 30.1738 387.864 29.3059C389.572 28.2369 391.184 25.3798 391.184 25.3798C391.184 25.3798 391.967 23.6937 392.951 23.9271C394.181 24.2188 394.892 24.9618 394.924 26.0964C394.952 27.1468 393.686 30.4028 392.37 31.8207L391.282 32.8747M388.978 45.7063L391.953 46.6215C392.596 46.8194 393.488 46.7812 393.839 45.6394C394.083 44.8465 394.013 44.0438 392.855 43.6877L389.398 42.6241C388.916 42.4757 388.056 42.6971 387.802 43.5218C387.582 44.2354 387.544 45.3344 388.978 45.7063ZM390.052 39.3534L394.474 40.7138C395.632 41.07 395.702 41.8727 395.385 42.9035C395.033 44.0453 394.142 44.0834 393.498 43.8855L389.559 42.6735C388.125 42.3017 388.163 41.2026 388.383 40.489C388.71 39.4265 389.57 39.205 390.052 39.3534ZM390.052 39.3534L394.635 40.7633C395.278 40.9612 396.17 40.923 396.521 39.7812C396.838 38.7504 396.768 37.9478 395.611 37.5916L390.546 36.0333C390.064 35.8849 389.203 36.1063 388.876 37.1689C388.657 37.8825 388.618 38.9815 390.052 39.3534ZM393.349 40.3675L389.892 39.304M394.485 37.2453L391.028 36.1817M391.282 32.8747C391.429 32.8611 391.567 32.8754 391.683 32.9111L396.265 34.3209C397.423 34.6771 397.493 35.4798 397.175 36.5106C396.824 37.6524 395.932 37.6905 395.289 37.4926L391.189 36.2312C390.153 35.9625 389.885 35.3143 389.9 34.7061M391.282 32.8747C390.818 32.9176 390.261 33.2394 390.013 34.0466C389.952 34.2447 389.905 34.4725 389.9 34.7061M389.9 34.7061C388.73 35.359 385.797 36.4817 383.417 35.7496" stroke="#7B7B7B"/>
</g>
<g filter="url(#filter4_f)">
<path d="M29.1862 256.38C29.1862 256.38 29.969 254.694 30.9532 254.927C32.1835 255.219 32.8948 255.962 32.926 257.096C32.9548 258.147 31.6887 261.403 30.3728 262.821L29.2845 263.875C29.4314 263.861 29.5691 263.875 29.685 263.911L34.2675 265.321C35.4251 265.677 35.495 266.48 35.1779 267.511C34.8266 268.652 33.9348 268.691 33.2917 268.493L33.6132 268.592C34.7709 268.948 34.8408 269.75 34.5236 270.781C34.1724 271.923 33.2806 271.961 32.6374 271.763L32.4766 271.714C33.6343 272.07 33.7042 272.873 33.387 273.903C33.0358 275.045 32.144 275.083 31.5008 274.886L30.8577 274.688C32.0154 275.044 32.0852 275.847 31.8413 276.639C31.49 277.781 30.5982 277.819 29.955 277.621L26.9804 276.706C26.8938 276.684 26.8126 276.659 26.7364 276.631L21.5136 275.024C16.567 273.711 16.2219 269.056 16.8804 266.915C17.9778 263.347 20.0854 261.933 21.8626 261.591C23.8267 261.214 24.4788 261.174 25.8662 260.306C27.5749 259.237 29.1862 256.38 29.1862 256.38Z" fill="#F9F2B2"/>
<path d="M26.9804 276.706L21.5136 275.024C16.567 273.711 16.2219 269.056 16.8804 266.915C17.9778 263.347 20.0854 261.933 21.8626 261.591C23.8267 261.214 24.4788 261.174 25.8662 260.306C27.5749 259.237 29.1862 256.38 29.1862 256.38C29.1862 256.38 29.969 254.694 30.9532 254.927C32.1835 255.219 32.8948 255.962 32.926 257.096C32.9548 258.147 31.6887 261.403 30.3728 262.821L29.2845 263.875M26.9804 276.706L29.955 277.621C30.5982 277.819 31.49 277.781 31.8413 276.639C32.0852 275.847 32.0154 275.044 30.8577 274.688L27.4007 273.624C26.9183 273.476 26.0582 273.697 25.8044 274.522C25.5849 275.235 25.546 276.334 26.9804 276.706ZM28.0549 270.353L32.4766 271.714C33.6343 272.07 33.7042 272.873 33.387 273.903C33.0358 275.045 32.144 275.083 31.5008 274.886L27.5615 273.674C26.127 273.302 26.1659 272.203 26.3855 271.489C26.7124 270.426 27.5725 270.205 28.0549 270.353ZM28.0549 270.353L32.6374 271.763C33.2806 271.961 34.1724 271.923 34.5236 270.781C34.8408 269.75 34.7709 268.948 33.6132 268.592L28.5484 267.033C28.066 266.885 27.2058 267.106 26.8789 268.169C26.6594 268.883 26.6205 269.982 28.0549 270.353ZM31.3511 271.368L27.8941 270.304M32.4877 268.245L29.0307 267.182M29.2845 263.875C29.4314 263.861 29.5691 263.875 29.685 263.911L34.2675 265.321C35.4251 265.677 35.495 266.48 35.1779 267.511C34.8266 268.652 33.9348 268.691 33.2917 268.493L29.1915 267.231C28.1552 266.963 27.8879 266.314 27.9021 265.706M29.2845 263.875C28.8201 263.918 28.2639 264.239 28.0155 265.047C27.9546 265.245 27.9076 265.472 27.9021 265.706M27.9021 265.706C26.7327 266.359 23.799 267.482 21.4193 266.75" stroke="#7B7B7B"/>
</g>
<g filter="url(#filter5_f)">
<path d="M89.5865 191.239C89.5865 191.239 90.3974 188.66 89.1238 187.955C87.5319 187.073 86.0519 187.183 84.9133 188.376C83.8591 189.48 82.0322 194.222 82.0493 197.03L82.1791 199.224C82.0362 199.067 81.8759 198.948 81.718 198.874L75.4734 195.939C73.8959 195.197 73.0395 195.995 72.3722 197.415C71.633 198.987 72.5437 199.895 73.4202 200.307L72.9819 200.101C71.4044 199.36 70.548 200.157 69.8807 201.577C69.1415 203.149 70.0522 204.058 70.9287 204.47L71.1478 204.573C69.5702 203.831 68.7138 204.628 68.0465 206.048C67.3073 207.621 68.2181 208.529 69.0945 208.941L69.9709 209.353C68.3933 208.611 67.537 209.409 67.0236 210.501C66.2845 212.073 67.1952 212.981 68.0716 213.393L72.1251 215.299C72.2391 215.359 72.3499 215.411 72.4576 215.455L79.5748 218.8C86.1124 222.193 91.0145 217.511 92.4007 214.562C94.7111 209.648 93.8493 206.074 92.2929 203.978C90.5728 201.662 89.9189 200.985 89.2899 198.7C88.5152 195.886 89.5865 191.239 89.5865 191.239Z" fill="#F9F2B2"/>
<path d="M72.1251 215.299L79.5748 218.8C86.1124 222.193 91.0145 217.511 92.4007 214.562C94.7111 209.648 93.8493 206.074 92.2929 203.978C90.5728 201.662 89.9189 200.985 89.2899 198.7C88.5152 195.886 89.5865 191.239 89.5865 191.239C89.5865 191.239 90.3974 188.66 89.1238 187.955C87.5319 187.073 86.0519 187.183 84.9133 188.376C83.8591 189.48 82.0322 194.222 82.0493 197.03L82.1791 199.224M72.1251 215.299L68.0716 213.393C67.1952 212.981 66.2845 212.073 67.0236 210.501C67.537 209.409 68.3933 208.611 69.9709 209.353L74.6817 211.567C75.339 211.876 76.0376 212.951 75.5037 214.087C75.0417 215.07 74.0122 216.292 72.1251 215.299ZM77.1732 207.405L71.1478 204.573C69.5702 203.831 68.7138 204.628 68.0465 206.048C67.3073 207.621 68.2181 208.529 69.0945 208.941L74.4626 211.464C76.3497 212.458 77.3792 211.235 77.8412 210.252C78.5291 208.789 77.8305 207.714 77.1732 207.405ZM77.1732 207.405L70.9287 204.47C70.0522 204.058 69.1415 203.149 69.8807 201.577C70.548 200.157 71.4044 199.36 72.982 200.101L79.8838 203.345C80.5411 203.654 81.2397 204.729 80.5518 206.193C80.0898 207.176 79.0603 208.398 77.1732 207.405ZM72.6815 205.293L77.3923 207.508M74.5157 200.822L79.2265 203.036M82.1791 199.224C82.0362 199.067 81.8759 198.948 81.718 198.874L75.4734 195.939C73.8959 195.197 73.0395 195.995 72.3722 197.415C71.633 198.987 72.5437 199.895 73.4202 200.307L79.0074 202.933C80.3707 203.651 81.2865 203.212 81.864 202.543M82.1791 199.224C82.6309 199.722 82.9086 200.61 82.386 201.721C82.2578 201.994 82.0858 202.286 81.864 202.543M81.864 202.543C82.4708 204.384 84.4951 208.446 87.7379 209.971" stroke="#7B7B7B"/>
</g>
<path d="M344.661 213.036L348.845 215.137L353.294 213.07L343.21 251.024L335.721 246.68L344.661 213.036Z" fill="#7F8082"/>
<path d="M357.744 211.003L356.696 214.951L347.951 247.86L343.21 251.024L353.294 213.07L357.744 211.003Z" fill="#7F8082"/>
<path d="M375.195 202.898L374.142 206.861L367.687 209.854L364.38 211.387L356.696 214.951L357.744 211.003L375.195 202.898Z" fill="#7F8082"/>
<path d="M374.142 206.861L366.547 235.445L361.571 232.873L367.687 209.854L374.142 206.861Z" fill="#7F8082"/>
<path d="M293.509 187.35L299.718 190.468L291.584 221.079L285.487 217.543L293.509 187.35Z" fill="#7F8082"/>
<path d="M299.718 190.468L303.767 192.501L296.647 219.296L291.584 221.079L299.718 190.468Z" fill="#7F8082"/>
<path d="M326.576 203.954L325.269 208.873L320.503 210.689L322.797 202.057L326.576 203.954Z" fill="#7F8082"/>
<path d="M322.797 202.057L320.503 210.689L315.818 208.17L318.073 199.685L322.797 202.057Z" fill="#7F8082"/>
<path d="M375.195 202.898L376.135 199.361L400.622 120.725L403.775 122.472L379.775 197.752L370.45 232.846L366.547 235.445L374.142 206.861L375.195 202.898Z" fill="#7F8082"/>
<path d="M376.135 199.361L369.127 196.375L369.974 193.633L392.094 122.029L393.027 119.01L400.622 120.725L376.135 199.361Z" fill="#7F8082"/>
<path d="M349.747 211.741L288.878 181.175L323.231 176.819L329.139 179.337L334.383 179.177L369.974 193.633L369.127 196.375L376.135 199.361L349.747 211.741Z" fill="#7F8082"/>
<path d="M376.135 199.361L375.195 202.898L357.744 211.003L353.294 213.07L348.845 215.137L349.747 211.741L376.135 199.361Z" fill="#7F8082"/>
<path d="M352.353 91.9745L356.83 94.6968L356.229 96.9609L352.799 96.0497L349.679 107.795L353.108 108.706L352.372 111.474L334.383 179.177L329.139 179.337L348.024 108.264L348.287 107.274L348.588 106.142L352.353 91.9745Z" fill="#7F8082"/>
<path d="M329.139 179.337L323.231 176.819L341.88 106.632L348.024 108.264L329.139 179.337Z" fill="#7F8082"/>
<path d="M287.976 184.571L288.878 181.175L349.747 211.741L348.845 215.137L344.661 213.036L326.576 203.954L322.797 202.057L318.073 199.685L303.767 192.501L299.718 190.468L293.509 187.35L287.976 184.571Z" fill="#7F8082"/>
<path d="M389.774 99.0964C393.734 99.8501 396.188 104.286 396.919 106.409L393.719 116.77L394.063 118.073L393.027 119.01L389.761 118.142C389.022 116.128 386.285 111.765 381.256 110.428L364.681 106.024C362.109 105.341 357.312 104.975 353.108 108.706L349.679 107.795L352.799 96.0497L356.229 96.9609C358.521 94.7824 362.948 94.3177 364.875 94.3577L389.774 99.0964Z" fill="#7F8082"/>
<path d="M398.656 100.787L406.373 102.255L401.406 118.206L393.719 116.77L396.919 106.409L398.656 100.787Z" fill="#7F8082"/>
<path d="M393.027 119.01L394.063 118.073L400.971 119.606L400.622 120.725L393.027 119.01Z" fill="#7F8082"/>
<path d="M404.532 120.098L402.884 120.569L400.971 119.606L401.406 118.206L404.532 120.098Z" fill="#7F8082"/>
<path d="M400.971 119.606L394.063 118.073L393.719 116.77L401.406 118.206L400.971 119.606Z" fill="#7F8082"/>
<path d="M406.373 102.255L409.163 105.572L404.532 120.098L401.406 118.206L406.373 102.255Z" fill="#7F8082"/>
<path d="M402.884 120.569L403.775 122.472L400.622 120.725L400.971 119.606L402.884 120.569Z" fill="#7F8082"/>
<path d="M341.88 106.632L343.286 105.945L348.287 107.274L348.024 108.264L341.88 106.632Z" fill="#7F8082"/>
<path d="M343.286 105.945L342.444 104.509L348.588 106.142L348.287 107.274L343.286 105.945Z" fill="#7F8082"/>
<path d="M346.091 90.7829L352.353 91.9745L348.588 106.142L342.444 104.509L346.091 90.7829Z" fill="#7F8082"/>
<path fill-rule="evenodd" clip-rule="evenodd" d="M334.383 179.177L369.974 193.633L392.094 122.029L385.807 120.358C385.631 118.717 384.279 115.171 380.278 114.108L363.704 109.704C360.132 108.754 356.221 109.079 354.944 112.157L352.372 111.474L334.383 179.177ZM369.821 137.366L379.496 124.887L371.425 126.669L369.147 118.456L362.443 123.791L356.987 117.597L357.424 133.336L369.821 137.366Z" fill="#7F8082"/>
<path d="M376.135 199.361L375.195 202.898M376.135 199.361L349.747 211.741M376.135 199.361L369.127 196.375L369.974 193.633M376.135 199.361L400.622 120.725M375.195 202.898L374.142 206.861M375.195 202.898L357.744 211.003M348.845 215.137L349.747 211.741M348.845 215.137L344.661 213.036M348.845 215.137L353.294 213.07M288.878 181.175L287.976 184.571L293.509 187.35M288.878 181.175L349.747 211.741M288.878 181.175L323.231 176.819M323.231 176.819L329.139 179.337M323.231 176.819L341.88 106.632M406.373 102.255L409.163 105.572L404.532 120.098M406.373 102.255L398.656 100.787L396.919 106.409M406.373 102.255L401.406 118.206M396.919 106.409C396.188 104.286 393.734 99.8501 389.774 99.0964L364.875 94.3577C362.948 94.3177 358.521 94.7824 356.229 96.9609M396.919 106.409L393.719 116.77M352.353 91.9745L346.091 90.7829L342.444 104.509M352.353 91.9745L356.83 94.6968L356.229 96.9609M352.353 91.9745L348.588 106.142M329.139 179.337L348.024 108.264M329.139 179.337L334.383 179.177M356.229 96.9609L352.799 96.0497L349.679 107.795L353.108 108.706M393.027 119.01L389.761 118.142C389.022 116.128 386.285 111.765 381.256 110.428M393.027 119.01L394.063 118.073M393.027 119.01L400.622 120.725M393.027 119.01L392.094 122.029M381.256 110.428C376.226 109.092 368.111 106.936 364.681 106.024M381.256 110.428L364.681 106.024M364.681 106.024C362.109 105.341 357.312 104.975 353.108 108.706M353.108 108.706L352.372 111.474M404.532 120.098L402.884 120.569M404.532 120.098L401.406 118.206M402.884 120.569L403.775 122.472M402.884 120.569L400.971 119.606M403.775 122.472L379.775 197.752L370.45 232.846L366.547 235.445M403.775 122.472L400.622 120.725M400.971 119.606L394.063 118.073M400.971 119.606L401.406 118.206M400.971 119.606L400.622 120.725M394.063 118.073L393.719 116.77M393.719 116.77L401.406 118.206M343.286 105.945L342.444 104.509M343.286 105.945L341.88 106.632M343.286 105.945L348.287 107.274M342.444 104.509L348.588 106.142M341.88 106.632L348.024 108.264M348.024 108.264L348.287 107.274M348.588 106.142L348.287 107.274M334.383 179.177L369.974 193.633M334.383 179.177L352.372 111.474M369.974 193.633L392.094 122.029M392.094 122.029L385.807 120.358C385.631 118.717 384.279 115.171 380.278 114.108M380.278 114.108C376.278 113.045 367.562 110.729 363.704 109.704M380.278 114.108L363.704 109.704M363.704 109.704C360.132 108.754 356.221 109.079 354.944 112.157L352.372 111.474M366.547 235.445L374.142 206.861M366.547 235.445L361.571 232.873L367.687 209.854M344.661 213.036L335.721 246.68L343.21 251.024M344.661 213.036L326.576 203.954M374.142 206.861L367.687 209.854M356.696 214.951L357.744 211.003M356.696 214.951L364.38 211.387L367.687 209.854M356.696 214.951L347.951 247.86L343.21 251.024M357.744 211.003L353.294 213.07M353.294 213.07L343.21 251.024M293.509 187.35L299.718 190.468M293.509 187.35L285.487 217.543L291.584 221.079M299.718 190.468L303.767 192.501M299.718 190.468L291.584 221.079M303.767 192.501L296.647 219.296L291.584 221.079M303.767 192.501L318.073 199.685M326.576 203.954L325.269 208.873L320.503 210.689M326.576 203.954L322.797 202.057M322.797 202.057L320.503 210.689M322.797 202.057L318.073 199.685M320.503 210.689L315.818 208.17L318.073 199.685M379.496 124.887L369.821 137.366L357.424 133.336L356.987 117.597L362.443 123.791L369.147 118.456L371.425 126.669L379.496 124.887Z" stroke="#404040"/>
<path d="M333.884 160.842L334.599 158.15L328.032 156.405L294.826 154.257L293.809 158.083L299.991 160.701L294.736 180.48L300.288 183.169L304.556 182.635L310.25 161.206L312.092 161.178L333.884 160.842Z" fill="#7F8082"/>
<path d="M383.179 176.064L376.087 173.421L350.399 176.913L349.307 181.022L353.018 182.587L347.137 204.721L355.461 209.057L359.64 207.133L365.646 184.529L382.275 179.466L383.179 176.064Z" fill="#7F8082"/>
<path d="M334.599 158.15L333.884 160.842L312.092 161.178L310.25 161.206M334.599 158.15L302.557 157.373M334.599 158.15L328.032 156.405L294.826 154.257M301.502 161.341L302.557 157.373M301.502 161.341L306.106 161.27M301.502 161.341L299.991 160.701M302.557 157.373L294.826 154.257M294.826 154.257L293.809 158.083L299.991 160.701M383.179 176.064L376.087 173.421L350.399 176.913M383.179 176.064L362.12 181.696M383.179 176.064L382.275 179.466L365.646 184.529M350.399 176.913L362.12 181.696M350.399 176.913L349.307 181.022L353.018 182.587M362.12 181.696L360.99 185.947M360.99 185.947L353.018 182.587M360.99 185.947L361.655 185.745M353.018 182.587L347.137 204.721L355.461 209.057M365.646 184.529L359.64 207.133L355.461 209.057M365.646 184.529L361.655 185.745M361.655 185.745L355.461 209.057M306.106 161.27L300.288 183.169M306.106 161.27L310.25 161.206M300.288 183.169L294.736 180.48L299.991 160.701M300.288 183.169L304.556 182.635L310.25 161.206" stroke="#404040"/>
<path d="M132.806 239.724C132.806 239.724 134.581 236.267 136.583 236.829C139.085 237.531 140.476 239.135 140.43 241.504C140.387 243.697 137.465 250.391 134.62 253.248L132.278 255.363C132.582 255.346 132.863 255.386 133.098 255.469L142.388 258.759C144.735 259.591 144.801 261.27 144.048 263.396C143.214 265.75 141.375 265.762 140.072 265.3L140.723 265.531C143.07 266.362 143.136 268.041 142.383 270.167C141.549 272.522 139.711 272.533 138.407 272.071L138.081 271.956C140.428 272.787 140.493 274.466 139.741 276.592C138.907 278.947 137.068 278.958 135.764 278.496L134.461 278.034C136.808 278.866 136.873 280.545 136.294 282.18C135.46 284.535 133.622 284.546 132.318 284.084L126.288 281.948C126.112 281.895 125.947 281.836 125.793 281.773L115.205 278.023C105.157 274.906 104.9 265.172 106.464 260.757C109.069 253.399 113.543 250.61 117.232 250.034C121.309 249.397 122.655 249.363 125.594 247.658C129.213 245.56 132.806 239.724 132.806 239.724Z" fill="#F9F2B2"/>
<path d="M126.288 281.948L115.205 278.023C105.157 274.906 104.9 265.172 106.464 260.757C109.069 253.399 113.543 250.61 117.232 250.034C121.309 249.397 122.655 249.363 125.594 247.658C129.213 245.56 132.806 239.724 132.806 239.724C132.806 239.724 134.581 236.267 136.583 236.829C139.085 237.531 140.476 239.135 140.43 241.504C140.387 243.697 137.465 250.391 134.62 253.248L132.278 255.363M126.288 281.948L132.318 284.084C133.622 284.546 135.46 284.535 136.294 282.18C136.873 280.545 136.808 278.866 134.461 278.034L127.453 275.552C126.475 275.206 124.684 275.602 124.081 277.302C123.56 278.774 123.373 281.063 126.288 281.948ZM129.117 268.781L138.081 271.956C140.428 272.787 140.493 274.466 139.741 276.592C138.907 278.947 137.068 278.958 135.764 278.496L127.778 275.668C124.864 274.782 125.051 272.493 125.572 271.022C126.348 268.831 128.139 268.435 129.117 268.781ZM129.117 268.781L138.407 272.071C139.711 272.533 141.549 272.522 142.383 270.167C143.136 268.041 143.07 266.362 140.723 265.531L130.456 261.894C129.478 261.548 127.687 261.944 126.911 264.135C126.39 265.607 126.202 267.896 129.117 268.781ZM135.799 271.148L128.791 268.665M138.442 264.723L131.434 262.24M132.278 255.363C132.582 255.346 132.863 255.386 133.098 255.469L142.388 258.759C144.735 259.591 144.801 261.27 144.048 263.396C143.214 265.75 141.375 265.762 140.072 265.3L131.76 262.356C129.654 261.716 129.167 260.344 129.256 259.077M132.278 255.363C131.318 255.417 130.143 256.045 129.553 257.71C129.409 258.118 129.29 258.59 129.256 259.077M129.256 259.077C126.786 260.349 120.642 262.467 115.817 260.758" stroke="#404040" stroke-linecap="round"/>
<path d="M67.5076 223.122C65.7776 221.975 49.9673 208.71 42.2785 202.22C41.8539 201.862 39.6114 202.172 38.0736 202.937L58.0167 230.408C57.6162 230.487 56.9114 230.957 57.2958 232.199C57.4536 232.709 58.0833 233.434 58.9582 234.23L30.3847 248.324C30.4648 248.363 30.7692 248.467 31.3458 248.562C31.9225 248.658 32.8676 248.284 33.2681 248.085L61.6589 236.38C62.9846 237.329 64.3754 238.203 65.4653 238.768C68.2285 240.202 72.4333 243.785 93.3375 244.143C94.7792 244.168 97.5409 245.003 98.0215 246.532C95.3384 248.125 90.1602 251.268 89.3729 251.668C88.3928 252.166 28.2156 280.266 22.3288 280.505C17.444 278.25 12.8374 274.185 10.5618 271.734H9C11.9634 274.998 18.3949 281.743 20.4132 282.603C22.9361 283.678 28.9431 282.244 29.3035 282.125C48.7983 274.662 87.1858 259.697 98.1431 254.47C98.6236 254.924 100.101 255.316 100.779 255.455C100.595 255.922 100.534 256.359 100.546 256.684C100.506 257.441 101.05 259.336 103.549 260.865C106.048 262.393 113.481 262.218 116.885 261.94C117.881 261.783 118.763 261.567 119.528 261.256C121.565 260.428 122.775 258.928 123.132 256.087C123.252 255.132 123.372 253.698 122.051 252.026C121.5 251.329 120.849 250.675 119.408 250.18C118.068 249.719 116.523 249.606 115.321 249.664L121.69 246.651C123.558 245.693 123.853 244.998 123.853 244.521C128.466 244.234 131.141 242.949 131.902 242.352C136.988 242.67 150.476 242.662 163.739 240.082C168.552 239.146 172.203 237.814 174.928 236.38C179.712 233.861 181.643 231.025 182 229.452C180.64 228.025 178.242 226.041 175.392 224.2C174.214 223.439 172.959 222.703 171.668 222.04C169.46 220.907 167.149 219.991 164.94 219.539C157.106 217.935 144.078 218.638 136.347 219.436C137.116 219.068 140.192 200.4 141.633 191.112L130.941 182.393C130.34 182.035 129.475 181.939 128.899 182.035C130.861 184.344 134.833 189.177 135.026 190.037C134.946 191.112 134.665 192.545 133.944 195.412C133.132 198.644 125.535 218.375 122.171 221.167L81.0833 226.227C79.0676 225.932 75.8626 225.4 73.037 224.794C73.877 222.923 75.7251 218.798 76.3979 217.269C77.0707 215.741 76.6782 215.438 76.3979 215.478L74.9563 215.717L68.709 223.663C68.1857 223.479 67.7726 223.298 67.5076 223.122Z" fill="#96F9FF"/>
<path d="M81.0833 226.227C80.6028 227.947 65.5053 229.731 58.0167 230.408M81.0833 226.227L122.171 221.167M81.0833 226.227C79.0677 225.932 75.8626 225.4 73.037 224.794M58.0167 230.408L38.0736 202.937C39.6114 202.172 41.8539 201.862 42.2785 202.22C49.9673 208.71 65.7776 221.975 67.5076 223.122C67.7726 223.298 68.1857 223.479 68.709 223.663M58.0167 230.408C57.6162 230.487 56.9114 230.957 57.2958 232.199C57.4536 232.709 58.0833 233.434 58.9582 234.23M123.853 244.521C128.466 244.234 131.141 242.949 131.902 242.352C136.988 242.67 150.476 242.662 163.739 240.082C168.552 239.146 172.203 237.814 174.928 236.38M123.853 244.521C123.853 244.998 123.558 245.693 121.69 246.651L115.321 249.664M123.853 244.521C123.252 243.406 120.561 241.181 114.602 241.277C107.153 241.396 101.145 244.621 98.0215 246.532M98.0215 246.532C97.5409 245.003 94.7792 244.168 93.3375 244.143C72.4333 243.785 68.2285 240.202 65.4653 238.768C64.3754 238.203 62.9846 237.329 61.6589 236.38M98.0215 246.532C95.3384 248.125 90.1602 251.268 89.3729 251.668C88.3928 252.166 28.2156 280.266 22.3288 280.505M29.3035 282.125C28.9431 282.244 22.9361 283.678 20.4132 282.603C18.3949 281.743 11.9634 274.998 9 271.734H10.5618C13.9257 275.357 22.3835 282.507 29.3035 282.125ZM29.3035 282.125C48.7983 274.662 87.1858 259.697 98.1431 254.47M119.408 250.18C120.849 250.675 121.5 251.329 122.051 252.026C123.372 253.698 123.252 255.132 123.132 256.087C122.641 259.994 120.537 261.366 116.885 261.94C113.481 262.218 106.048 262.393 103.549 260.865C101.05 259.336 100.506 257.441 100.546 256.684C100.534 256.359 100.595 255.922 100.779 255.455C100.101 255.316 98.6236 254.924 98.1431 254.47M119.408 250.18C117.125 249.709 113 250.895 113 256C113 261.105 117.298 261.87 119.528 261.256M119.408 250.18C118.068 249.719 116.523 249.606 115.321 249.664M115.321 249.664C113.761 250.5 100.44 253.417 98.1431 254.47M135.026 190.037C134.946 191.112 134.665 192.545 133.944 195.412C133.132 198.644 125.535 218.375 122.171 221.167M135.026 190.037C137.332 190.037 140.392 190.754 141.633 191.112M135.026 190.037C134.833 189.177 130.861 184.344 128.899 182.035C129.475 181.939 130.34 182.035 130.941 182.393L141.633 191.112M122.171 221.167L135.386 219.539C135.696 219.505 136.017 219.47 136.347 219.436M141.633 191.112C140.192 200.4 137.116 219.068 136.347 219.436M136.347 219.436C144.078 218.638 157.106 217.935 164.94 219.539C167.149 219.991 169.46 220.907 171.668 222.04M68.709 223.663L74.9563 215.717L76.3979 215.478C76.6782 215.438 77.0707 215.741 76.3979 217.269C75.7251 218.798 73.877 222.923 73.037 224.794M68.709 223.663C69.7919 224.043 71.3465 224.432 73.037 224.794M171.668 222.04L171.548 224.675L169.145 223.122V221.091M171.668 222.04C172.959 222.703 174.214 223.439 175.392 224.2M175.392 224.2C178.242 226.041 180.64 228.025 182 229.452C181.643 231.025 179.712 233.861 174.928 236.38M175.392 224.2C174.351 224.478 172.149 225.654 171.668 228.138C171.187 230.623 171.548 234.971 174.928 236.38M58.9582 234.23L30.3847 248.324C30.4648 248.363 30.7692 248.467 31.3458 248.562C31.9225 248.658 32.8676 248.284 33.2681 248.085L61.6589 236.38M58.9582 234.23H62.7021C63.5431 234.23 64.36 235.185 63.3028 235.663C62.2456 236.141 61.7664 236.34 61.6589 236.38M168.357 224.2L164.633 226.231L166.675 228.261L171 225.873L168.357 224.2ZM163.39 226.831L161.828 227.19L163.51 230.176L165.433 228.981L163.39 226.831ZM162.085 230.647L160.403 227.661L158 228.138L158.12 230.527L162.085 230.647Z" stroke="#404040" stroke-linecap="round" stroke-linejoin="bevel"/>
<path d="M261.806 64.7238C261.806 64.7238 263.581 61.2671 265.583 61.829C268.085 62.5314 269.476 64.1352 269.43 66.5039C269.387 68.6969 266.465 75.3909 263.62 78.2476L261.278 80.3627C261.582 80.3456 261.863 80.3859 262.098 80.4691L271.388 83.7595C273.735 84.5907 273.801 86.2701 273.048 88.3958C272.214 90.7503 270.375 90.7617 269.072 90.2999L269.723 90.5308C272.07 91.362 272.136 93.0414 271.383 95.1671C270.549 97.5216 268.711 97.533 267.407 97.0712L267.081 96.9557C269.428 97.787 269.493 99.4664 268.741 101.592C267.907 103.947 266.068 103.958 264.764 103.496L263.461 103.034C265.808 103.866 265.873 105.545 265.294 107.18C264.46 109.535 262.622 109.546 261.318 109.084L255.288 106.948C255.112 106.895 254.947 106.836 254.793 106.773L244.205 103.023C234.157 99.9058 233.9 90.1722 235.464 85.7573C238.069 78.3991 242.543 75.6098 246.232 75.0335C250.309 74.3967 251.655 74.3628 254.594 72.6585C258.213 70.5596 261.806 64.7238 261.806 64.7238Z" fill="#F9F2B2"/>
<path d="M255.288 106.948L244.205 103.023C234.157 99.9058 233.9 90.1722 235.464 85.7573C238.069 78.3991 242.543 75.6098 246.232 75.0335C250.309 74.3967 251.655 74.3628 254.594 72.6585C258.213 70.5596 261.806 64.7238 261.806 64.7238C261.806 64.7238 263.581 61.2671 265.583 61.829C268.085 62.5314 269.476 64.1352 269.43 66.5039C269.387 68.6969 266.465 75.3909 263.62 78.2476L261.278 80.3627M255.288 106.948L261.318 109.084C262.622 109.546 264.46 109.535 265.294 107.18C265.873 105.545 265.808 103.866 263.461 103.034L256.453 100.552C255.475 100.206 253.684 100.602 253.081 102.302C252.56 103.774 252.373 106.063 255.288 106.948ZM258.117 93.7809L267.081 96.9557C269.428 97.787 269.493 99.4664 268.741 101.592C267.907 103.947 266.068 103.958 264.764 103.496L256.778 100.668C253.864 99.7824 254.051 97.4933 254.572 96.0217C255.348 93.8306 257.139 93.4345 258.117 93.7809ZM258.117 93.7809L267.407 97.0712C268.711 97.533 270.549 97.5216 271.383 95.1671C272.136 93.0414 272.07 91.362 269.723 90.5308L259.456 86.8941C258.478 86.5477 256.687 86.9439 255.911 89.1349C255.39 90.6065 255.202 92.8957 258.117 93.7809ZM264.799 96.1476L257.791 93.6654M267.442 89.7226L260.434 87.2405M261.278 80.3627C261.582 80.3456 261.863 80.3859 262.098 80.4691L271.388 83.7595C273.735 84.5907 273.801 86.2701 273.048 88.3958C272.214 90.7503 270.375 90.7617 269.072 90.2999L260.76 87.3559C258.654 86.7164 258.167 85.3441 258.256 84.0767M261.278 80.3627C260.318 80.4167 259.143 81.0453 258.553 82.71C258.409 83.1184 258.29 83.5898 258.256 84.0767M258.256 84.0767C255.786 85.349 249.642 87.4665 244.817 85.7579" stroke="#404040" stroke-linecap="round"/>
<path d="M144.678 38.7705C144.678 38.7705 143.313 36.8222 144.189 35.8985C145.284 34.7438 146.55 34.4486 147.819 35.1503C148.995 35.8 151.785 39.2941 152.52 41.6509L152.996 43.5229C153.074 43.3537 153.176 43.2126 153.288 43.1092L157.723 39.018C158.844 37.9844 159.772 38.4286 160.708 39.4434C161.745 40.5675 161.226 41.5663 160.604 42.1405L160.915 41.8534C162.035 40.8198 162.964 41.264 163.9 42.2788C164.937 43.4028 164.418 44.4016 163.795 44.9758L163.64 45.1194C164.76 44.0858 165.688 44.53 166.624 45.5448C167.661 46.6688 167.143 47.6676 166.52 48.2418L165.898 48.816C167.018 47.7824 167.946 48.2266 168.666 49.0072C169.703 50.1313 169.184 51.1301 168.562 51.7043L165.683 54.36C165.604 54.44 165.525 54.5125 165.447 54.5778L160.392 59.2407C155.834 63.7919 150.49 61.1509 148.545 59.0434C145.305 55.5309 145.072 52.3116 145.813 50.1492C146.633 47.7592 146.999 47.0209 146.915 44.9426C146.812 42.3831 144.678 38.7705 144.678 38.7705Z" fill="#F9F2B2"/>
<path d="M165.683 54.36L160.392 59.2407C155.834 63.7919 150.49 61.1509 148.545 59.0434C145.305 55.5309 145.072 52.3116 145.813 50.1492C146.633 47.7592 146.999 47.0209 146.915 44.9426C146.812 42.3831 144.678 38.7705 144.678 38.7705C144.678 38.7705 143.313 36.8222 144.189 35.8985C145.284 34.7438 146.55 34.4486 147.819 35.1503C148.995 35.8 151.785 39.2941 152.52 41.6509L152.996 43.5229M165.683 54.36L168.562 51.7043C169.184 51.1301 169.703 50.1313 168.666 49.0072C167.946 48.2266 167.018 47.7824 165.898 48.816L162.552 51.9023C162.085 52.333 161.788 53.4161 162.537 54.2279C163.185 54.9305 164.371 55.6856 165.683 54.36ZM159.36 49.067L163.64 45.1194C164.76 44.0858 165.688 44.53 166.624 45.5448C167.661 46.6688 167.143 47.6676 166.52 48.2418L162.708 51.7588C161.396 53.0845 160.209 52.3293 159.561 51.6268C158.596 50.5808 158.893 49.4976 159.36 49.067ZM159.36 49.067L163.795 44.9758C164.418 44.4016 164.937 43.4028 163.9 42.2788C162.964 41.264 162.035 40.8198 160.915 41.8534L156.013 46.3752C155.546 46.8058 155.249 47.889 156.214 48.935C156.862 49.6375 158.048 50.3927 159.36 49.067ZM162.55 46.1242L159.205 49.2105M159.826 42.8582L156.48 45.9445M152.996 43.5229C153.074 43.3537 153.176 43.2126 153.288 43.1092L157.723 39.018C158.844 37.9844 159.772 38.4286 160.708 39.4434C161.745 40.5675 161.226 41.5663 160.604 42.1405L156.636 45.801C155.688 46.7587 154.806 46.6304 154.145 46.2205M152.996 43.5229C152.752 44.0581 152.756 44.8742 153.489 45.669C153.669 45.864 153.891 46.063 154.145 46.2205M154.145 46.2205C154.128 47.9211 153.52 51.8536 151.217 53.9781" stroke="#404040" stroke-linecap="round"/>
<path d="M138.248 132.386L119.14 139.341L124.827 154.967L147.025 146.888L148.755 151.642L120.743 161.838L104.695 117.745L132.404 107.66L134.146 112.445L112.251 120.414L117.409 134.586L136.518 127.631L138.248 132.386Z" fill="#FF4EC3"/>
<path d="M165.672 125.285L155.315 129.055L161.807 146.892L155.962 149.019L139.914 104.927L154.511 99.614C159.477 97.8064 163.704 97.5482 167.192 98.8393C170.7 100.123 173.241 102.925 174.813 107.246C175.812 109.991 175.936 112.656 175.184 115.238C174.453 117.814 172.948 120.088 170.671 122.06L187.839 137.005L187.972 137.368L181.733 139.639L165.672 125.285ZM153.585 124.3L162.518 121.049C165.405 119.998 167.425 118.417 168.577 116.306C169.749 114.187 169.88 111.876 168.968 109.373C167.976 106.647 166.398 104.856 164.234 103.997C162.09 103.131 159.48 103.247 156.404 104.344L147.5 107.584L153.585 124.3Z" fill="#FF4EC3"/>
<path d="M193.742 115.72L200.024 132.982L194.21 135.098L178.162 91.0057L194.424 85.0868C199.249 83.3306 203.472 83.1881 207.094 84.6591C210.736 86.1228 213.296 88.8836 214.773 92.9415C216.331 97.2215 216.19 101.011 214.35 104.31C212.522 107.581 209.115 110.125 204.129 111.94L193.742 115.72ZM192.011 110.966L202.459 107.163C205.568 106.032 207.686 104.438 208.812 102.382C209.931 100.305 209.987 97.8842 208.981 95.1183C208.025 92.4938 206.434 90.6954 204.205 89.7233C201.976 88.7511 199.407 88.7601 196.498 89.7503L185.718 93.6742L192.011 110.966Z" fill="#FF4EC3"/>
<path fill-rule="evenodd" clip-rule="evenodd" d="M139.53 132.984L120.421 139.938L125.425 153.685L147.622 145.606L150.037 152.24L120.146 163.119L103.413 117.148L133.002 106.378L135.427 113.043L113.533 121.012L118.007 133.305L137.116 126.35L139.53 132.984ZM117.409 134.586L112.251 120.414L134.146 112.445L132.404 107.66L104.695 117.745L120.743 161.838L148.755 151.642L147.025 146.888L124.827 154.967L119.14 139.341L138.248 132.386L136.518 127.631L117.409 134.586ZM181.733 139.639L165.672 125.285L155.315 129.055L161.807 146.892L155.962 149.019L139.914 104.927L154.511 99.614C159.477 97.8064 163.704 97.5481 167.192 98.8393C170.7 100.123 173.241 102.925 174.813 107.246C175.812 109.991 175.936 112.656 175.184 115.238C174.535 117.523 173.278 119.57 171.413 121.38C171.176 121.61 170.928 121.837 170.671 122.06L187.839 137.005L187.972 137.368L181.733 139.639ZM172.17 122.039L188.691 136.42L189.253 137.966L181.513 140.783L165.452 126.43L156.597 129.652L163.089 147.489L155.365 150.301L138.633 104.329L154.169 98.6743C159.265 96.8195 163.75 96.4995 167.538 97.9009C171.385 99.3094 174.105 102.377 175.753 106.904C176.818 109.83 176.961 112.71 176.146 115.514C175.45 117.959 174.114 120.135 172.17 122.039ZM167.699 115.827L167.702 115.822C168.719 113.983 168.852 111.977 168.029 109.715C167.109 107.187 165.701 105.655 163.865 104.927L163.859 104.924C162.021 104.182 159.681 104.237 156.742 105.284L148.782 108.182L154.182 123.019L162.176 120.109C164.9 119.118 166.693 117.67 167.699 115.827ZM153.585 124.3L147.5 107.584L156.404 104.344C159.48 103.247 162.09 103.131 164.234 103.997C166.398 104.856 167.976 106.647 168.968 109.373C169.88 111.876 169.749 114.187 168.577 116.306C167.425 118.417 165.405 119.998 162.518 121.049L153.585 124.3ZM201.306 133.579L193.612 136.38L176.88 90.408L194.082 84.1471C199.064 82.3336 203.554 82.1423 207.469 83.7319C211.402 85.313 214.15 88.3051 215.713 92.5995C217.347 97.0909 217.233 101.192 215.223 104.797C213.238 108.351 209.59 111.016 204.471 112.879L195.023 116.318L201.306 133.579ZM193.742 115.72L204.129 111.94C209.115 110.125 212.522 107.581 214.35 104.31C216.19 101.011 216.331 97.2215 214.773 92.9415C213.296 88.8836 210.736 86.1228 207.094 84.6591C203.472 83.1881 199.249 83.3306 194.424 85.0868L178.162 91.0057L194.21 135.098L200.024 132.982L193.742 115.72ZM192.609 109.684L202.117 106.223C205.089 105.142 206.963 103.673 207.933 101.904C208.883 100.14 208.976 98.0283 208.041 95.4603C207.164 93.0513 205.745 91.4859 203.805 90.6398C201.863 89.7927 199.564 89.7652 196.83 90.6936L186.999 94.2719L192.609 109.684ZM192.011 110.966L185.718 93.6742L196.498 89.7503C199.407 88.7601 201.976 88.7511 204.205 89.7233C206.433 90.6954 208.025 92.4938 208.981 95.1183C209.987 97.8842 209.931 100.305 208.812 102.382C207.686 104.438 205.568 106.032 202.459 107.163L192.011 110.966Z" fill="#404040"/>
<path d="M60.069 93.2061C60.069 93.2061 61.2289 89.4976 59.4078 88.4937C57.1315 87.2388 55.0152 87.4063 53.3868 89.1272C51.8792 90.7204 49.2662 97.5409 49.2904 101.573L49.4756 104.723C49.2713 104.498 49.0421 104.329 48.8163 104.223L39.8872 100.052C37.6315 98.9982 36.4068 100.149 35.4524 102.192C34.3952 104.455 35.6974 105.753 36.9506 106.338L36.324 106.046C34.0682 104.992 32.8435 106.143 31.8891 108.186C30.8319 110.449 32.1341 111.747 33.3873 112.332L33.7006 112.478C31.4448 111.425 30.2201 112.576 29.2657 114.619C28.2085 116.882 29.5107 118.179 30.7639 118.765L32.0171 119.35C29.7613 118.297 28.5366 119.448 27.8024 121.019C26.7452 123.282 28.0474 124.58 29.3006 125.165L35.0967 127.873C35.2596 127.958 35.4181 128.032 35.5722 128.095L45.7489 132.849C55.0971 137.676 62.1075 130.918 64.0901 126.675C67.3945 119.603 66.1626 114.477 63.9374 111.478C61.478 108.164 60.543 107.197 59.6438 103.92C58.5365 99.8858 60.069 93.2061 60.069 93.2061Z" fill="#F9F2B2"/>
<path d="M35.0967 127.873L45.7489 132.849C55.0971 137.676 62.1075 130.918 64.0901 126.675C67.3945 119.603 66.1626 114.477 63.9374 111.478C61.478 108.164 60.543 107.197 59.6438 103.92C58.5365 99.8858 60.069 93.2061 60.069 93.2061C60.069 93.2061 61.2289 89.4976 59.4078 88.4937C57.1315 87.2388 55.0152 87.4063 53.3868 89.1272C51.8792 90.7204 49.2662 97.5409 49.2904 101.573L49.4756 104.723M35.0967 127.873L29.3006 125.165C28.0474 124.58 26.7452 123.282 27.8024 121.019C28.5366 119.448 29.7613 118.297 32.0171 119.35L38.7531 122.497C39.693 122.936 40.6917 124.475 39.9281 126.109C39.2674 127.524 37.795 129.287 35.0967 127.873ZM42.3163 116.503L33.7006 112.478C31.4448 111.425 30.2201 112.576 29.2657 114.619C28.2085 116.882 29.5107 118.179 30.7639 118.765L38.4398 122.351C41.1381 123.764 42.6104 122.001 43.2712 120.587C44.255 118.481 43.2562 116.942 42.3163 116.503ZM42.3163 116.503L33.3873 112.332C32.1341 111.747 30.8319 110.449 31.8891 108.186C32.8435 106.143 34.0682 104.992 36.324 106.046L46.1929 110.656C47.1328 111.095 48.1316 112.634 47.1478 114.74C46.487 116.154 45.0147 117.917 42.3163 116.503ZM35.8937 113.503L42.6296 116.65M38.5171 107.07L45.253 110.217M49.4756 104.723C49.2713 104.498 49.0421 104.329 48.8163 104.223L39.8872 100.052C37.6315 98.9982 36.4068 100.149 35.4524 102.192C34.3952 104.455 35.6974 105.753 36.9506 106.338L44.9397 110.071C46.8891 111.092 48.1987 110.455 49.0246 109.49M49.4756 104.723C50.1217 105.434 50.5186 106.707 49.7712 108.307C49.5878 108.7 49.3418 109.119 49.0246 109.49M49.0246 109.49C49.892 112.129 52.7862 117.948 57.4231 120.114" stroke="#404040" stroke-linecap="round"/>
<path d="M216.796 205.212C217.056 203.64 220.874 164.15 220.874 164.15L259.875 177.491C259.875 177.491 238.649 211.211 237.866 212.42C237.083 213.629 233.443 216.444 225.867 214.038C218.292 211.631 216.535 206.784 216.796 205.212Z" fill="#59D3FA" stroke="#404040"/>
<path d="M261.348 159.492C264.598 163.101 265.917 166.917 264.815 170.136C263.714 173.355 260.335 175.565 255.555 176.427C250.794 177.286 244.76 176.777 238.596 174.668C232.432 172.559 227.351 169.266 224.114 165.671C220.863 162.062 219.545 158.246 220.646 155.027C221.747 151.808 225.127 149.598 229.907 148.736C234.668 147.878 240.701 148.386 246.865 150.495C253.029 152.604 258.11 155.897 261.348 159.492ZM219.374 158.787C219.374 158.786 219.374 158.785 219.375 158.785C219.771 161.328 221.2 163.931 223.371 166.341C226.742 170.084 231.978 173.461 238.273 175.614C244.567 177.767 250.774 178.305 255.732 177.411C258.924 176.835 261.648 175.653 263.519 173.886C263.519 173.886 263.518 173.887 263.518 173.888C263.48 173.955 263.42 174.056 263.334 174.185C263.163 174.442 262.893 174.81 262.503 175.232C261.724 176.076 260.464 177.141 258.558 177.993C254.755 179.691 248.298 180.571 237.805 176.982C227.312 173.392 222.746 168.742 220.781 165.069C219.795 163.229 219.452 161.615 219.353 160.471C219.303 159.898 219.315 159.443 219.338 159.134C219.349 158.98 219.363 158.863 219.374 158.787Z" fill="#7F8082" stroke="#404040"/>
<path d="M263.712 163.113C262.867 165.583 260.107 167.269 256.075 167.862C252.071 168.451 246.959 167.93 241.702 166.131C236.445 164.333 232.085 161.614 229.281 158.697C226.456 155.758 225.308 152.734 226.153 150.265C226.998 147.795 229.757 146.108 233.79 145.515C237.794 144.927 242.905 145.448 248.162 147.246C253.419 149.045 257.779 151.763 260.584 154.681C263.408 157.62 264.557 160.643 263.712 163.113ZM224.089 156.297L225.053 153.48C225.493 155.47 226.746 157.503 228.56 159.39C231.496 162.444 236.003 165.238 241.379 167.077C246.754 168.916 252.028 169.468 256.22 168.852C258.81 168.471 261.045 167.632 262.612 166.328L261.648 169.145C260.803 171.615 258.044 173.301 254.011 173.894C250.007 174.483 244.896 173.961 239.639 172.163C234.382 170.365 230.022 167.646 227.217 164.729C224.393 161.79 223.245 158.766 224.089 156.297Z" fill="#7F8082" stroke="#404040"/>
<path d="M260.085 160.765C259.757 161.725 258.981 162.517 257.794 163.101C256.251 163.859 254.068 164.235 251.496 164.156C248.931 164.076 246.015 163.545 243.029 162.524C238.355 160.925 234.566 158.486 232.405 155.995C230.72 154.051 230.111 152.187 230.624 150.687C231.213 148.966 233.269 147.772 236.421 147.403C239.533 147.039 243.537 147.51 247.68 148.927C251.824 150.345 255.277 152.425 257.514 154.619C259.78 156.841 260.674 159.044 260.085 160.765Z" fill="#7F8082" stroke="#404040"/>
<rect x="233.406" y="159.761" width="6.08384" height="1.61491" rx="0.807453" transform="rotate(29.8849 233.406 159.761)" fill="#404040"/>
<path d="M193.002 172.714C190.954 172.904 188.828 174.918 188.026 176.063C187.449 176.776 187.289 179.06 187.427 180.551C187.538 181.745 187.132 182.327 186.915 182.47C184.935 184.944 181.865 189.405 184.762 191.698C187.393 193.781 188.415 195.575 188.348 196.612C188.266 199.52 190.172 204.322 192.628 204.144C196.627 203.854 197.103 205.342 197.793 206.349C200.031 209.427 203.925 208.353 205.867 207.023C208.283 205.367 210.859 205.497 212.01 206.168C213.214 206.869 217.654 206.319 218.454 205.488C219.987 203.895 222.063 202.754 223.328 198.854C223.907 197.07 225.145 196.082 226.624 194.928C227.807 194.005 227.517 191.551 227.224 190.44L225.905 185.438C225.277 183.056 226.393 181.489 226.066 179.282C225.739 177.076 224.396 174.882 222.365 174.908C220.741 174.929 220 173.664 219.832 173.029C218.953 169.694 216.13 167.919 214.501 167.301C212.52 166.55 210.979 167.466 209.073 167.968C207.549 168.37 206.24 167.526 205.775 167.054C204.662 165.921 201.886 166.296 200.334 166.705C198.782 167.114 197.84 167.872 197.313 168.775C196.23 170.633 195.986 172.437 193.002 172.714Z" fill="#FDCA74" stroke="#404040"/>
<path d="M218.111 175.775C218.439 177.019 217.533 178.467 215.886 178.901C214.238 179.335 212.737 178.522 212.409 177.278C212.081 176.034 212.986 174.586 214.634 174.152C216.281 173.718 217.783 174.531 218.111 175.775Z" fill="#993E29" stroke="#404040"/>
<path d="M200.216 196.795C200.544 198.039 199.638 199.487 197.991 199.921C196.344 200.355 194.842 199.542 194.514 198.298C194.186 197.053 195.092 195.606 196.739 195.171C198.386 194.737 199.888 195.55 200.216 196.795Z" fill="#993E29" stroke="#404040"/>
<circle cx="196.982" cy="181.599" r="1.71687" transform="rotate(-14.7669 196.982 181.599)" fill="#993E29" stroke="#404040"/>
<circle cx="218.276" cy="192.799" r="1.71687" transform="rotate(-14.7669 218.276 192.799)" fill="#993E29" stroke="#404040"/>
<circle cx="209.401" cy="199.723" r="1.71687" transform="rotate(-14.7669 209.401 199.723)" fill="#993E29" stroke="#404040"/>
<circle cx="206.263" cy="187.814" r="1.71687" transform="rotate(-14.7669 206.263 187.814)" fill="#993E29" stroke="#404040"/>
</g>
<defs>
<filter id="filter0_f" x="374.303" y="135.153" width="39.1425" height="38.7038" filterUnits="userSpaceOnUse" color-interpolation-filters="sRGB">
<feFlood flood-opacity="0" result="BackgroundImageFix"/>
<feBlend mode="normal" in="SourceGraphic" in2="BackgroundImageFix" result="shape"/>
<feGaussianBlur stdDeviation="2" result="effect1_foregroundBlur"/>
</filter>
<filter id="filter1_f" x="123.91" y="101.507" width="35.0279" height="41.4804" filterUnits="userSpaceOnUse" color-interpolation-filters="sRGB">
<feFlood flood-opacity="0" result="BackgroundImageFix"/>
<feBlend mode="normal" in="SourceGraphic" in2="BackgroundImageFix" result="shape"/>
<feGaussianBlur stdDeviation="2" result="effect1_foregroundBlur"/>
</filter>
<filter id="filter2_f" x="25.8339" y="32.4048" width="27.7114" height="31.8084" filterUnits="userSpaceOnUse" color-interpolation-filters="sRGB">
<feFlood flood-opacity="0" result="BackgroundImageFix"/>
<feBlend mode="normal" in="SourceGraphic" in2="BackgroundImageFix" result="shape"/>
<feGaussianBlur stdDeviation="2" result="effect1_foregroundBlur"/>
</filter>
<filter id="filter3_f" x="374.127" y="19.4048" width="27.7114" height="31.8084" filterUnits="userSpaceOnUse" color-interpolation-filters="sRGB">
<feFlood flood-opacity="0" result="BackgroundImageFix"/>
<feBlend mode="normal" in="SourceGraphic" in2="BackgroundImageFix" result="shape"/>
<feGaussianBlur stdDeviation="2" result="effect1_foregroundBlur"/>
</filter>
<filter id="filter4_f" x="12.129" y="250.405" width="27.7114" height="31.8084" filterUnits="userSpaceOnUse" color-interpolation-filters="sRGB">
<feFlood flood-opacity="0" result="BackgroundImageFix"/>
<feBlend mode="normal" in="SourceGraphic" in2="BackgroundImageFix" result="shape"/>
<feGaussianBlur stdDeviation="2" result="effect1_foregroundBlur"/>
</filter>
<filter id="filter5_f" x="62.2521" y="182.875" width="36.0669" height="41.6097" filterUnits="userSpaceOnUse" color-interpolation-filters="sRGB">
<feFlood flood-opacity="0" result="BackgroundImageFix"/>
<feBlend mode="normal" in="SourceGraphic" in2="BackgroundImageFix" result="shape"/>
<feGaussianBlur stdDeviation="2" result="effect1_foregroundBlur"/>
</filter>
<clipPath id="clip0">
<rect width="440" height="285" fill="white"/>
</clipPath>
</defs>
</svg>
