<svg width="440" height="285" viewBox="0 0 440 285" fill="none" xmlns="http://www.w3.org/2000/svg">
<path d="M209.287 183.777L215.38 182.871L215.631 184.564L209.539 185.47L209.044 185.543L209.117 186.038L209.878 191.156L207.274 191.543L206.513 186.425L206.44 185.93L205.945 186.004L202.967 186.447L202.715 184.754L205.694 184.311L206.188 184.237L206.115 183.743L205.569 180.07L205.495 179.576L205.001 179.649L202.022 180.092L201.703 177.945L204.682 177.502L205.176 177.428L205.103 176.934L203.041 163.068L210.053 162.026C213.485 161.516 216.033 161.873 217.78 162.988L217.78 162.988L217.784 162.99C219.551 164.1 220.658 165.944 221.055 168.616C221.454 171.302 220.887 173.486 219.397 175.227C217.902 176.943 215.45 178.096 211.947 178.616L208.594 179.115L208.099 179.188L208.173 179.683L208.719 183.356L208.792 183.85L209.287 183.777ZM206.459 164.754L205.965 164.828L206.038 165.322L207.707 176.547L207.78 177.041L208.275 176.968L211.109 176.546C213.576 176.18 215.495 175.467 216.802 174.36C218.216 173.184 218.684 171.394 218.349 169.144C218.056 167.173 217.232 165.709 215.813 164.869C214.415 164.041 212.467 163.861 210.052 164.22L206.459 164.754Z" fill="#FF4EC3" stroke="#404040"/>
<g filter="url(#filter0_f)">
<path d="M130.622 269.084L128.727 264.924L126.053 266.142L125.148 264.154L127.821 262.936L126.581 260.213L123.908 261.431L122.849 259.106L125.522 257.888L120.674 247.243L126.452 244.611C129.136 243.389 131.369 243.024 133.152 243.517C134.956 244.001 136.327 245.272 137.265 247.332C138.212 249.412 138.249 251.366 137.374 253.192C136.489 254.999 134.674 256.527 131.929 257.778L129.347 258.953L130.587 261.676L135.658 259.366L136.564 261.355L131.493 263.664L133.388 267.824L130.622 269.084ZM130.47 255.635C132.335 254.785 133.64 253.822 134.386 252.743C135.152 251.655 135.173 250.316 134.449 248.726C133.817 247.339 132.918 246.505 131.751 246.224C130.583 245.943 129.088 246.218 127.265 247.048L124.499 248.308L128.288 256.629L130.47 255.635Z" fill="#FF4EC3"/>
<path d="M130.622 269.084L128.727 264.924L126.053 266.142L125.148 264.154L127.821 262.936L126.581 260.213L123.908 261.431L122.849 259.106L125.522 257.888L120.674 247.243L126.452 244.611C129.136 243.389 131.369 243.024 133.152 243.517C134.956 244.001 136.327 245.272 137.265 247.332C138.212 249.412 138.249 251.366 137.374 253.192C136.489 254.999 134.674 256.527 131.929 257.778L129.347 258.953L130.587 261.676L135.658 259.366L136.564 261.355L131.493 263.664L133.388 267.824L130.622 269.084ZM130.47 255.635C132.335 254.785 133.64 253.822 134.386 252.743C135.152 251.655 135.173 250.316 134.449 248.726C133.817 247.339 132.918 246.505 131.751 246.224C130.583 245.943 129.088 246.218 127.265 247.048L124.499 248.308L128.288 256.629L130.47 255.635Z" stroke="#7B7B7B"/>
</g>
<g filter="url(#filter1_f)">
<path d="M291.986 192.03L291.977 187.458L289.039 187.464L289.034 185.279L291.972 185.274L291.966 182.282L289.028 182.288L289.023 179.733L291.961 179.727L291.938 168.03L298.287 168.017C301.236 168.011 303.421 168.601 304.842 169.786C306.285 170.971 307.009 172.695 307.014 174.958C307.018 177.244 306.245 179.038 304.694 180.341C303.143 181.621 300.859 182.264 297.842 182.27L295.006 182.276L295.012 185.268L300.584 185.256L300.588 187.441L295.016 187.452L295.025 192.024L291.986 192.03ZM297.398 179.717C299.447 179.712 301.034 179.373 302.158 178.699C303.305 178.024 303.877 176.813 303.873 175.065C303.87 173.541 303.395 172.411 302.448 171.673C301.501 170.935 300.026 170.568 298.022 170.572L294.983 170.578L295.001 179.721L297.398 179.717Z" fill="#FF4EC3"/>
<path d="M291.986 192.03L291.977 187.458L289.039 187.464L289.034 185.279L291.972 185.274L291.966 182.282L289.028 182.288L289.023 179.733L291.961 179.727L291.938 168.03L298.287 168.017C301.236 168.011 303.421 168.601 304.842 169.786C306.285 170.971 307.009 172.695 307.014 174.958C307.018 177.244 306.245 179.038 304.694 180.341C303.143 181.621 300.859 182.264 297.842 182.27L295.006 182.276L295.012 185.268L300.584 185.256L300.588 187.441L295.016 187.452L295.025 192.024L291.986 192.03ZM297.398 179.717C299.447 179.712 301.034 179.373 302.158 178.699C303.305 178.024 303.877 176.813 303.873 175.065C303.87 173.541 303.395 172.411 302.448 171.673C301.501 170.935 300.026 170.568 298.022 170.572L294.983 170.578L295.001 179.721L297.398 179.717Z" stroke="#7B7B7B"/>
</g>
<g filter="url(#filter2_f)">
<path d="M62.0385 124.968L60.2611 120.756L57.5542 121.899L56.7047 119.886L59.4116 118.743L58.2484 115.987L55.5415 117.129L54.5482 114.776L57.2551 113.633L52.7069 102.856L58.5563 100.388C61.2736 99.2411 63.5165 98.939 65.2851 99.4818C67.0744 100.016 68.409 101.325 69.2891 103.411C70.1778 105.516 70.1592 107.47 69.2333 109.272C68.2987 111.052 66.4417 112.529 63.6622 113.702L61.0486 114.805L62.2118 117.561L67.3456 115.395L68.1951 117.408L63.0613 119.574L64.8388 123.786L62.0385 124.968ZM62.2644 111.519C64.152 110.723 65.4836 109.796 66.2594 108.739C67.0559 107.673 67.1143 106.335 66.4347 104.725C65.8422 103.321 64.9666 102.462 63.8079 102.148C62.6492 101.835 61.1468 102.067 59.3007 102.846L56.5004 104.028L60.0553 112.452L62.2644 111.519Z" fill="#FF4EC3"/>
<path d="M62.0385 124.968L60.2611 120.756L57.5542 121.899L56.7047 119.886L59.4116 118.743L58.2484 115.987L55.5415 117.129L54.5482 114.776L57.2551 113.633L52.7069 102.856L58.5563 100.388C61.2736 99.2411 63.5165 98.939 65.2851 99.4818C67.0744 100.016 68.409 101.325 69.2891 103.411C70.1778 105.516 70.1592 107.47 69.2333 109.272C68.2987 111.052 66.4417 112.529 63.6622 113.702L61.0486 114.805L62.2118 117.561L67.3456 115.395L68.1951 117.408L63.0613 119.574L64.8388 123.786L62.0385 124.968ZM62.2644 111.519C64.152 110.723 65.4836 109.796 66.2594 108.739C67.0559 107.673 67.1143 106.335 66.4347 104.725C65.8422 103.321 64.9666 102.462 63.8079 102.148C62.6492 101.835 61.1468 102.067 59.3007 102.846L56.5004 104.028L60.0553 112.452L62.2644 111.519Z" stroke="#7B7B7B"/>
</g>
<g filter="url(#filter3_f)">
<path d="M233.35 270.928L232.633 267.142L230.2 267.602L229.857 265.793L232.291 265.332L231.822 262.855L229.388 263.315L228.988 261.2L231.421 260.739L229.587 251.051L234.845 250.056C237.288 249.593 239.19 249.743 240.551 250.504C241.93 251.262 242.797 252.578 243.152 254.452C243.511 256.345 243.148 257.952 242.066 259.272C240.979 260.573 239.187 261.46 236.688 261.933L234.339 262.378L234.808 264.856L239.423 263.982L239.765 265.791L235.151 266.665L235.867 270.451L233.35 270.928ZM235.924 259.886C237.621 259.565 238.883 259.038 239.71 258.305C240.555 257.568 240.841 256.476 240.567 255.028C240.328 253.766 239.759 252.903 238.86 252.439C237.961 251.975 236.682 251.9 235.022 252.214L232.505 252.69L233.938 260.262L235.924 259.886Z" fill="#FF4EC3"/>
<path d="M233.35 270.928L232.633 267.142L230.2 267.602L229.857 265.793L232.291 265.332L231.822 262.855L229.388 263.315L228.988 261.2L231.421 260.739L229.587 251.051L234.845 250.056C237.288 249.593 239.19 249.743 240.551 250.504C241.93 251.262 242.797 252.578 243.152 254.452C243.511 256.345 243.148 257.952 242.066 259.272C240.979 260.573 239.187 261.46 236.688 261.933L234.339 262.378L234.808 264.856L239.423 263.982L239.765 265.791L235.151 266.665L235.867 270.451L233.35 270.928ZM235.924 259.886C237.621 259.565 238.883 259.038 239.71 258.305C240.555 257.568 240.841 256.476 240.567 255.028C240.328 253.766 239.759 252.903 238.86 252.439C237.961 251.975 236.682 251.9 235.022 252.214L232.505 252.69L233.938 260.262L235.924 259.886Z" stroke="#7B7B7B"/>
</g>
<rect x="0.280155" y="0.653657" width="63.9239" height="32.1064" transform="matrix(0.926332 0.376708 -0.366022 0.930606 348.403 171.472)" fill="#90FF5C" stroke="#404040"/>
<ellipse rx="9.56625" ry="11.6185" transform="matrix(0.926305 0.376774 -0.366089 0.93058 371.878 199.547)" fill="#D2FFE4"/>
<rect x="0.280155" y="0.653657" width="63.9239" height="32.1064" transform="matrix(0.926332 0.376708 -0.366022 0.930606 332.79 174.346)" fill="#90FF5C" stroke="#404040"/>
<ellipse rx="9.56625" ry="11.6185" transform="matrix(0.926305 0.376774 -0.366089 0.93058 356.265 202.421)" fill="#D2FFE4"/>
<rect x="0.280155" y="0.653657" width="63.9239" height="32.1064" transform="matrix(0.926332 0.376708 -0.366022 0.930606 317.177 177.22)" fill="#90FF5C" stroke="#404040"/>
<ellipse rx="9.56625" ry="11.6185" transform="matrix(0.926305 0.376774 -0.366089 0.93058 340.652 205.295)" fill="#D2FFE4"/>
<rect x="0.280155" y="0.653657" width="63.9239" height="32.1064" transform="matrix(0.926332 0.376708 -0.366022 0.930606 301.563 180.095)" fill="#90FF5C" stroke="#404040"/>
<ellipse rx="9.56625" ry="11.6185" transform="matrix(0.926305 0.376774 -0.366089 0.93058 325.038 208.17)" fill="#D2FFE4"/>
<rect x="0.280155" y="0.653657" width="63.9239" height="32.1064" transform="matrix(0.926332 0.376708 -0.366022 0.930606 285.95 182.969)" fill="#90FF5C" stroke="#404040"/>
<ellipse rx="9.56625" ry="11.6185" transform="matrix(0.926305 0.376774 -0.366089 0.93058 309.425 211.044)" fill="#D2FFE4"/>
<rect x="0.280155" y="0.653657" width="63.9239" height="32.1064" transform="matrix(0.926332 0.376708 -0.366022 0.930606 270.337 185.843)" fill="#90FF5C" stroke="#404040"/>
<ellipse rx="9.56625" ry="11.6185" transform="matrix(0.926305 0.376774 -0.366089 0.93058 293.812 213.918)" fill="#D2FFE4"/>
<rect x="0.280155" y="0.653657" width="63.9239" height="32.1064" transform="matrix(0.926332 0.376708 -0.366022 0.930606 254.724 188.717)" fill="#90FF5C" stroke="#404040"/>
<ellipse rx="9.56625" ry="11.6185" transform="matrix(0.926305 0.376774 -0.366089 0.93058 278.199 216.792)" fill="#D2FFE4"/>
<path d="M81.6577 247.997C81.6577 253.097 78.8661 256.587 73.2846 256.587C69.2025 256.587 64.18 251.974 64.4801 247.997C64.4801 240.91 68.422 238.763 73.2846 238.763C76.7186 238.763 81.6577 243.487 81.6577 247.997Z" fill="#404040"/>
<path d="M79.0801 248C79.0801 251.44 77.1272 253.795 73.2227 253.795C70.367 253.795 66.8535 250.683 67.0634 248C67.0634 243.218 69.821 241.769 73.2227 241.769C75.6249 241.769 79.0801 244.957 79.0801 248Z" fill="white"/>
<path d="M151.675 274.41C151.675 279.51 148.883 283 143.302 283C139.22 283 134.197 278.387 134.497 274.41C134.497 267.324 138.439 265.176 143.302 265.176C146.736 265.176 151.675 269.901 151.675 274.41Z" fill="#404040"/>
<path d="M149.097 274.413C149.097 277.854 147.144 280.208 143.24 280.208C140.384 280.208 136.871 277.096 137.081 274.413C137.081 269.632 139.838 268.183 143.24 268.183C145.642 268.183 149.097 271.37 149.097 274.413Z" fill="white"/>
<path d="M186.463 248.212C186.463 253.311 183.672 256.801 178.09 256.801C174.008 256.801 168.986 252.188 169.286 248.212C169.286 241.125 173.228 238.978 178.09 238.978C181.524 238.978 186.463 243.702 186.463 248.212Z" fill="#404040"/>
<path d="M183.887 248.214C183.887 251.655 181.934 254.01 178.03 254.01C175.174 254.01 171.66 250.897 171.87 248.214C171.87 243.433 174.628 241.984 178.03 241.984C180.432 241.984 183.887 245.172 183.887 248.214Z" fill="white"/>
<path d="M116.457 222.442C116.457 227.542 113.665 231.032 108.084 231.032C104.002 231.032 98.9793 226.419 99.2794 222.442C99.2794 215.356 103.221 213.208 108.084 213.208C111.518 213.208 116.457 217.933 116.457 222.442Z" fill="#404040"/>
<path d="M113.88 222.445C113.88 225.886 111.927 228.24 108.022 228.24C105.167 228.24 101.653 225.128 101.863 222.445C101.863 217.664 104.621 216.215 108.022 216.215C110.425 216.215 113.88 219.402 113.88 222.445Z" fill="white"/>
<path d="M67.0549 234.253L70.4908 248.856C70.7056 249.929 73.0678 250.574 73.4972 249.5L77.5774 238.119L67.0549 234.253Z" fill="#EDE06C" stroke="#404040"/>
<path d="M137.072 260.667L140.508 275.269C140.723 276.343 143.085 276.987 143.515 275.913L147.595 264.532L137.072 260.667Z" fill="#EDE06C" stroke="#404040"/>
<path d="M171.861 234.468L175.297 249.071C175.511 250.144 177.874 250.788 178.303 249.715L182.383 238.333L171.861 234.468Z" fill="#EDE06C" stroke="#404040"/>
<path d="M101.854 208.699L105.29 223.301C105.505 224.375 107.867 225.019 108.297 223.946L112.377 212.564L101.854 208.699Z" fill="#EDE06C" stroke="#404040"/>
<path d="M57.1769 207.625L62.5455 232.965L157.462 268.397V261.793L68.9878 229.301L67.2698 228.67L66.6396 225.449L63.4044 208.913L56.9621 206.981L57.1769 207.625Z" fill="#F9F2B2"/>
<path d="M190.739 236.615L185.914 240.266L157.462 261.793V268.397L190.739 242.648V236.615Z" fill="#F9F2B2"/>
<path d="M164.978 226.737L160.039 230.603L185.914 240.266L190.739 236.615L164.978 226.737Z" fill="#F9F2B2"/>
<path d="M66.6396 225.449L67.2698 228.67L68.9878 229.301L85.523 216.215L80.5839 214.497L66.6396 225.449Z" fill="#F9F2B2"/>
<path d="M29.6897 125.163L34.6288 132.894L38.4942 131.391L29.9044 117.218L29.6897 125.163Z" fill="#F9F2B2"/>
<path d="M95.1865 98.1058L100.126 105.837L103.991 104.333L95.4012 90.1602L95.1865 98.1058Z" fill="#F9F2B2"/>
<path d="M157.462 268.397L62.5455 232.965L57.1769 207.625L56.9621 206.981L63.4044 208.913L66.6396 225.449M157.462 268.397V261.793M157.462 268.397L190.739 242.648V236.615M190.739 236.615L164.978 226.737L160.039 230.603L185.914 240.266M190.739 236.615L185.914 240.266M157.462 261.793L185.914 240.266M157.462 261.793L68.9878 229.301M66.6396 225.449L67.2698 228.67L68.9878 229.301M66.6396 225.449L80.5839 214.497L85.523 216.215L68.9878 229.301M29.6897 125.163L34.6288 132.894L38.4942 131.391L29.9044 117.218L29.6897 125.163ZM95.1865 98.1058L100.126 105.837L103.991 104.333L95.4012 90.1602L95.1865 98.1058Z" stroke="#404040"/>
<path d="M56.1032 207.41L152.523 238.333L161.972 185.936L104.635 161.597L33.9846 131.606L56.1032 207.41Z" fill="#90F9DF"/>
<path d="M189.244 208.484L209.86 156.516L161.972 185.936L152.523 238.333L189.244 208.484Z" fill="#90F9DF"/>
<path d="M209.86 156.516L104.635 101.971V161.597L161.972 185.936L209.86 156.516Z" fill="#90F9DF"/>
<path d="M104.635 101.971L33.9846 131.606L104.635 161.597V101.971Z" fill="#90F9DF"/>
<path d="M33.9846 131.606L104.635 101.971M33.9846 131.606L56.1032 207.41L152.523 238.333M33.9846 131.606L104.635 161.597M104.635 101.971L209.86 156.516M104.635 101.971V161.597M209.86 156.516L189.244 208.484L152.523 238.333M209.86 156.516L161.972 185.936M152.523 238.333L161.972 185.936M161.972 185.936L104.635 161.597" stroke="#404040"/>
<path d="M91.1207 91.3875C88.5908 87.9574 88.6342 81.9294 91.4159 82.1482C97.411 82.6199 98.462 93.9038 97.0499 100.901L91.1207 91.3875Z" fill="#25B0DD" stroke="#404040"/>
<path d="M24.3206 118.077C21.5294 114.856 21.0999 108.843 23.8902 108.843L89.6031 82.6442C90.8916 82.2148 93.1696 83.5821 93.898 85.2212C94.757 87.1539 94.1128 89.9455 92.6095 90.5897C91.407 91.1051 50.3707 107.268 30.0029 115.285C31.1374 118.967 31.4082 123.544 30.9777 127.096L24.3206 118.077Z" fill="#59D3FA"/>
<path d="M23.8902 108.843C21.0999 108.843 21.5294 114.856 24.3206 118.077L30.9777 127.096C31.4082 123.544 31.1374 118.967 30.0029 115.285M23.8902 108.843L89.6031 82.6442C90.8916 82.2148 93.1696 83.5821 93.898 85.2212C94.757 87.1539 94.1128 89.9455 92.6095 90.5897C91.407 91.1051 50.3707 107.268 30.0029 115.285M23.8902 108.843C26.8897 108.843 28.874 111.621 30.0029 115.285" stroke="#404040"/>
<path d="M171.99 120.57L178.126 130.088L178.273 130.316L178.544 130.317L189.869 130.359L182.712 139.136L182.541 139.346L182.624 139.605L186.083 150.388L175.525 146.294L175.272 146.196L175.051 146.355L165.865 152.977L166.496 141.67L166.511 141.399L166.292 141.239L157.155 134.548L168.104 131.654L168.366 131.585L168.451 131.327L171.99 120.57Z" fill="#F9F2B2" stroke="#404040"/>
<path d="M211.168 115.528L217.453 125.057L217.601 125.282L217.87 125.282L229.501 125.285L222.129 134.084L221.951 134.297L222.037 134.56L225.555 145.345L214.701 141.275L214.453 141.182L214.237 141.334L204.759 148.008L205.446 136.685L205.463 136.408L205.237 136.247L195.886 129.59L207.141 126.656L207.401 126.588L207.488 126.333L211.168 115.528Z" fill="#F9F2B2" stroke="#404040"/>
<path d="M250.351 110.536L256.487 120.054L256.634 120.282L256.905 120.283L268.23 120.325L261.074 129.102L260.902 129.312L260.985 129.57L264.445 140.354L253.886 136.26L253.633 136.161L253.413 136.32L244.226 142.943L244.857 131.636L244.872 131.365L244.653 131.204L235.516 124.514L246.465 121.62L246.727 121.551L246.812 121.293L250.351 110.536Z" fill="#F9F2B2" stroke="#404040"/>
<path d="M289.528 105.494L295.812 115.023L295.96 115.248L296.23 115.248L307.86 115.251L300.488 124.05L300.31 124.262L300.396 124.526L303.914 135.311L293.06 131.24L292.813 131.148L292.597 131.3L283.119 137.974L283.806 126.65L283.822 126.374L283.596 126.213L274.246 119.555L285.5 116.622L285.76 116.554L285.847 116.299L289.528 105.494Z" fill="#F9F2B2" stroke="#404040"/>
<path d="M328.711 100.501L334.846 110.02L334.993 110.248L335.265 110.249L346.589 110.291L339.433 119.067L339.261 119.278L339.344 119.536L342.804 130.319L332.245 126.225L331.992 126.127L331.772 126.286L322.586 132.908L323.217 121.601L323.232 121.33L323.013 121.17L313.876 114.48L324.824 111.586L325.087 111.516L325.171 111.259L328.711 100.501Z" fill="#404040" stroke="#404040"/>
<path d="M52.3281 48.1367L58.0673 45.7146L58.7439 47.3178L53.0047 49.7398L52.544 49.9342L52.7384 50.3949L54.7731 55.2162L52.3127 56.2545L50.278 51.4332L50.0836 50.9726L49.623 51.167L46.8146 52.3522L46.1381 50.749L48.9464 49.5639L49.4071 49.3695L49.2127 48.9088L47.7539 45.4522L47.5595 44.9916L47.0988 45.186L44.2905 46.3712L43.4337 44.3408L46.242 43.1556L46.7026 42.9612L46.5082 42.5006L40.9988 29.4457L47.6021 26.6589C50.8327 25.2956 53.4173 25.0031 55.4103 25.6555L55.4103 25.6555L55.4141 25.6567C57.4247 26.2977 58.9726 27.8254 60.0342 30.3409C61.1017 32.8703 61.0965 35.1524 60.0767 37.2324C59.0445 39.2898 56.9337 41.0355 53.6368 42.4268L50.4806 43.7588L50.0199 43.9532L50.2143 44.4139L51.6731 47.8704L51.8675 48.3311L52.3281 48.1367ZM44.7767 30.2433L44.316 30.4377L44.5104 30.8984L48.9686 41.4622L49.163 41.9229L49.6237 41.7285L52.2915 40.6026C54.6126 39.623 56.3096 38.4431 57.3101 37.0318C58.3954 35.5267 58.4033 33.6596 57.5102 31.5433C56.7275 29.6887 55.5538 28.4653 53.9555 28.001C52.3811 27.5436 50.4306 27.8572 48.1584 28.8162L44.7767 30.2433Z" fill="#FF4EC3" stroke="#404040"/>
<g filter="url(#filter4_f)">
<path d="M227.039 77.968L225.261 73.7562L222.554 74.8986L221.705 72.8857L224.412 71.7433L223.248 68.9871L220.541 70.1294L219.548 67.7758L222.255 66.6335L217.707 55.8564L223.556 53.3878C226.274 52.2411 228.516 51.939 230.285 52.4818C232.074 53.0157 233.409 54.3253 234.289 56.4106C235.178 58.5164 235.159 60.4701 234.233 62.2715C233.299 64.0524 231.442 65.5293 228.662 66.7023L226.049 67.8053L227.212 70.5615L232.346 68.3949L233.195 70.4079L228.061 72.5745L229.839 76.7862L227.039 77.968ZM227.264 64.5194C229.152 63.7228 230.484 62.796 231.259 61.7389C232.056 60.6731 232.114 59.335 231.435 57.7246C230.842 56.3207 229.967 55.4619 228.808 55.1483C227.649 54.8346 226.147 55.0674 224.301 55.8465L221.5 57.0282L225.055 65.4517L227.264 64.5194Z" fill="#FF4EC3"/>
<path d="M227.039 77.968L225.261 73.7562L222.554 74.8986L221.705 72.8857L224.412 71.7433L223.248 68.9871L220.541 70.1294L219.548 67.7758L222.255 66.6335L217.707 55.8564L223.556 53.3878C226.274 52.2411 228.516 51.939 230.285 52.4818C232.074 53.0157 233.409 54.3253 234.289 56.4106C235.178 58.5164 235.159 60.4701 234.233 62.2715C233.299 64.0524 231.442 65.5293 228.662 66.7023L226.049 67.8053L227.212 70.5615L232.346 68.3949L233.195 70.4079L228.061 72.5745L229.839 76.7862L227.039 77.968ZM227.264 64.5194C229.152 63.7228 230.484 62.796 231.259 61.7389C232.056 60.6731 232.114 59.335 231.435 57.7246C230.842 56.3207 229.967 55.4619 228.808 55.1483C227.649 54.8346 226.147 55.0674 224.301 55.8465L221.5 57.0282L225.055 65.4517L227.264 64.5194Z" stroke="#7B7B7B"/>
</g>
<g filter="url(#filter5_f)">
<path d="M380.893 112.145L381.689 107.643L378.796 107.131L379.177 104.98L382.07 105.492L382.591 102.546L379.698 102.034L380.143 99.5185L383.036 100.03L385.075 88.512L391.327 89.6183C394.231 90.1323 396.278 91.0976 397.468 92.5143C398.679 93.9348 399.088 95.7595 398.694 97.9882C398.295 100.239 397.218 101.869 395.462 102.878C393.71 103.865 391.348 104.096 388.378 103.57L385.584 103.076L385.063 106.021L390.55 106.992L390.169 109.144L384.682 108.173L383.885 112.674L380.893 112.145ZM388.39 100.978C390.408 101.335 392.029 101.281 393.255 100.815C394.503 100.353 395.279 99.2613 395.584 97.5402C395.849 96.0397 395.581 94.8429 394.778 93.95C393.976 93.057 392.589 92.436 390.615 92.0868L387.623 91.5572L386.029 100.56L388.39 100.978Z" fill="#FF4EC3"/>
<path d="M380.893 112.145L381.689 107.643L378.796 107.131L379.177 104.98L382.07 105.492L382.591 102.546L379.698 102.034L380.143 99.5185L383.036 100.03L385.075 88.512L391.327 89.6183C394.231 90.1323 396.278 91.0976 397.468 92.5143C398.679 93.9348 399.088 95.7595 398.694 97.9882C398.295 100.239 397.218 101.869 395.462 102.878C393.71 103.865 391.348 104.096 388.378 103.57L385.584 103.076L385.063 106.021L390.55 106.992L390.169 109.144L384.682 108.173L383.885 112.674L380.893 112.145ZM388.39 100.978C390.408 101.335 392.029 101.281 393.255 100.815C394.503 100.353 395.279 99.2613 395.584 97.5402C395.849 96.0397 395.581 94.8429 394.778 93.95C393.976 93.057 392.589 92.436 390.615 92.0868L387.623 91.5572L386.029 100.56L388.39 100.978Z" stroke="#7B7B7B"/>
</g>
<path d="M41.2062 252.043L48.161 249.108L49.0464 251.206L42.0916 254.141L41.631 254.336L41.8254 254.796L44.2971 260.653L41.1737 261.972L38.7019 256.115L38.5075 255.654L38.0468 255.848L34.5975 257.304L33.712 255.206L37.1614 253.75L37.622 253.556L37.4276 253.095L35.6828 248.961L35.4884 248.5L35.0278 248.695L31.5785 250.15L30.4773 247.541L33.9267 246.086L34.3873 245.891L34.1929 245.43L27.565 229.726L35.5535 226.354C39.4275 224.719 42.5453 224.36 44.9613 225.151L44.9613 225.151L44.965 225.152C47.4036 225.93 49.2736 227.782 50.5516 230.81C51.8376 233.858 51.8345 236.617 50.6 239.135C49.351 241.625 46.8027 243.725 42.8477 245.394L39.0726 246.988L38.6119 247.182L38.8063 247.643L40.5511 251.777L40.7455 252.238L41.2062 252.043ZM32.2503 230.822L31.7896 231.016L31.984 231.477L37.3164 244.112L37.5108 244.573L37.9715 244.379L41.1623 243.032C43.9305 241.864 45.9416 240.461 47.1235 238.794C48.3949 237.031 48.4123 234.837 47.3521 232.325C46.4237 230.125 45.0386 228.689 43.1633 228.144C41.312 227.606 39.0044 227.972 36.2951 229.115L32.2503 230.822Z" fill="#FF4EC3" stroke="#404040"/>
<path d="M332.919 55.5787L342.628 59.5155L341.324 62.7309L331.615 58.794L331.152 58.6062L330.964 59.0695L327.638 67.2727L323.016 65.3986L326.342 57.1954L326.53 56.7321L326.066 56.5442L321.166 54.5572L322.47 51.3419L327.37 53.3288L327.833 53.5167L328.021 53.0534L330.321 47.3819L330.509 46.9185L330.045 46.7306L325.145 44.7437L326.733 40.8273L331.633 42.8143L332.097 43.0022L332.285 42.5388L341.088 20.8261L352.216 25.3379C357.549 27.5002 360.951 30.1805 362.549 33.3279L362.549 33.3279L362.551 33.3314C364.185 36.4895 364.197 40.1365 362.498 44.3271C360.786 48.5482 358.088 51.2523 354.413 52.5123C350.752 53.7311 346.22 53.2891 340.773 51.0803L335.594 48.9805L335.131 48.7926L334.943 49.256L332.643 54.9274L332.455 55.3908L332.919 55.5787ZM344.586 26.8044L344.122 26.6165L343.935 27.0799L336.907 44.4129L336.719 44.8763L337.182 45.0641L341.559 46.839C345.341 48.3726 348.597 48.9445 351.298 48.4818C354.14 48.0191 356.23 45.9801 357.613 42.5692C358.823 39.5858 358.859 36.9252 357.608 34.654C356.369 32.4046 353.835 30.5549 350.134 29.0542L344.586 26.8044Z" fill="#FF4EC3" stroke="#404040"/>
<path d="M358.946 274.531L364.071 277.006L363.476 278.237L358.352 275.762L357.901 275.544L357.684 275.994L355.747 280.003L353.607 278.969L355.543 274.96L355.761 274.51L355.311 274.293L352.821 273.09L353.416 271.859L355.905 273.062L356.355 273.279L356.573 272.829L357.983 269.911L358.2 269.461L357.75 269.243L355.261 268.041L356.029 266.449L358.519 267.651L358.969 267.869L359.186 267.419L364.481 256.458L370.383 259.309C373.289 260.713 375.074 262.282 375.862 263.974L375.862 263.974L375.864 263.978C376.668 265.669 376.603 267.539 375.589 269.64C374.569 271.751 373.061 273.012 371.059 273.491C369.059 273.949 366.594 273.515 363.629 272.083L360.791 270.712L360.341 270.494L360.123 270.945L358.713 273.863L358.496 274.313L358.946 274.531ZM366.303 259.301L365.853 259.084L365.635 259.534L361.327 268.453L361.109 268.903L361.56 269.12L363.958 270.279C366.045 271.287 367.884 271.766 369.452 271.645C371.148 271.528 372.424 270.467 373.299 268.655C374.066 267.067 374.161 265.566 373.476 264.214C372.805 262.891 371.386 261.757 369.344 260.77L366.303 259.301Z" fill="#FF4EC3" stroke="#404040"/>
<defs>
<filter id="filter0_f" x="116.011" y="238.805" width="26.4923" height="34.942" filterUnits="userSpaceOnUse" color-interpolation-filters="sRGB">
<feFlood flood-opacity="0" result="BackgroundImageFix"/>
<feBlend mode="normal" in="SourceGraphic" in2="BackgroundImageFix" result="shape"/>
<feGaussianBlur stdDeviation="2" result="effect1_foregroundBlur"/>
</filter>
<filter id="filter1_f" x="284.522" y="163.517" width="26.9916" height="33.0136" filterUnits="userSpaceOnUse" color-interpolation-filters="sRGB">
<feFlood flood-opacity="0" result="BackgroundImageFix"/>
<feBlend mode="normal" in="SourceGraphic" in2="BackgroundImageFix" result="shape"/>
<feGaussianBlur stdDeviation="2" result="effect1_foregroundBlur"/>
</filter>
<filter id="filter2_f" x="48.0518" y="94.7202" width="26.3901" height="34.9029" filterUnits="userSpaceOnUse" color-interpolation-filters="sRGB">
<feFlood flood-opacity="0" result="BackgroundImageFix"/>
<feBlend mode="normal" in="SourceGraphic" in2="BackgroundImageFix" result="shape"/>
<feGaussianBlur stdDeviation="2" result="effect1_foregroundBlur"/>
</filter>
<filter id="filter3_f" x="224.404" y="245.294" width="23.3821" height="30.2184" filterUnits="userSpaceOnUse" color-interpolation-filters="sRGB">
<feFlood flood-opacity="0" result="BackgroundImageFix"/>
<feBlend mode="normal" in="SourceGraphic" in2="BackgroundImageFix" result="shape"/>
<feGaussianBlur stdDeviation="2" result="effect1_foregroundBlur"/>
</filter>
<filter id="filter4_f" x="213.052" y="47.7202" width="26.3901" height="34.9029" filterUnits="userSpaceOnUse" color-interpolation-filters="sRGB">
<feFlood flood-opacity="0" result="BackgroundImageFix"/>
<feBlend mode="normal" in="SourceGraphic" in2="BackgroundImageFix" result="shape"/>
<feGaussianBlur stdDeviation="2" result="effect1_foregroundBlur"/>
</filter>
<filter id="filter5_f" x="374.217" y="83.9325" width="29.1222" height="33.3214" filterUnits="userSpaceOnUse" color-interpolation-filters="sRGB">
<feFlood flood-opacity="0" result="BackgroundImageFix"/>
<feBlend mode="normal" in="SourceGraphic" in2="BackgroundImageFix" result="shape"/>
<feGaussianBlur stdDeviation="2" result="effect1_foregroundBlur"/>
</filter>
</defs>
</svg>
